G04 #@! TF.GenerationSoftware,KiCad,Pcbnew,6.0.10+dfsg-1~bpo11+1*
G04 #@! TF.ProjectId,project,70726f6a-6563-4742-9e6b-696361645f70,1.0.p1*
G04 #@! TF.SameCoordinates,Original*
G04 #@! TF.FileFunction,Copper,L1,Top*
G04 #@! TF.FilePolarity,Positive*
%FSLAX46Y46*%
G04 Gerber Fmt 4.6, Leading zero omitted, Abs format (unit mm)*
%MOMM*%
%LPD*%
G01*
G04 APERTURE LIST*
G04 #@! TA.AperFunction,Profile*
%ADD10C,0.100000*%
G04 #@! TD*
G04 #@! TA.AperFunction,ComponentPad*
%ADD11R,2.400000X2.400000*%
G04 #@! TD*
G04 #@! TA.AperFunction,ComponentPad*
%ADD12C,2.400000*%
G04 #@! TD*
G04 #@! TA.AperFunction,ComponentPad*
%ADD13C,0.900000*%
G04 #@! TD*
G04 #@! TA.AperFunction,ComponentPad*
%ADD14C,8.600000*%
G04 #@! TD*
G04 #@! TA.AperFunction,ComponentPad*
%ADD15C,2.000000*%
G04 #@! TD*
G04 #@! TA.AperFunction,ComponentPad*
%ADD16R,3.200000X3.200000*%
G04 #@! TD*
G04 #@! TA.AperFunction,ComponentPad*
%ADD17O,3.200000X3.200000*%
G04 #@! TD*
G04 #@! TA.AperFunction,ComponentPad*
%ADD18R,3.000000X3.000000*%
G04 #@! TD*
G04 #@! TA.AperFunction,ComponentPad*
%ADD19C,3.000000*%
G04 #@! TD*
G04 #@! TA.AperFunction,ComponentPad*
%ADD20R,2.600000X2.600000*%
G04 #@! TD*
G04 #@! TA.AperFunction,ComponentPad*
%ADD21C,2.600000*%
G04 #@! TD*
G04 #@! TA.AperFunction,ComponentPad*
%ADD22R,2.000000X2.000000*%
G04 #@! TD*
G04 #@! TA.AperFunction,ComponentPad*
%ADD23R,1.600000X1.600000*%
G04 #@! TD*
G04 #@! TA.AperFunction,ComponentPad*
%ADD24O,1.600000X1.600000*%
G04 #@! TD*
G04 #@! TA.AperFunction,ComponentPad*
%ADD25C,1.440000*%
G04 #@! TD*
G04 #@! TA.AperFunction,ComponentPad*
%ADD26O,2.190000X1.740000*%
G04 #@! TD*
G04 #@! TA.AperFunction,SMDPad,CuDef*
%ADD27R,3.500000X1.800000*%
G04 #@! TD*
G04 #@! TA.AperFunction,ComponentPad*
%ADD28C,1.800000*%
G04 #@! TD*
G04 #@! TA.AperFunction,ComponentPad*
%ADD29R,1.905000X2.000000*%
G04 #@! TD*
G04 #@! TA.AperFunction,ComponentPad*
%ADD30O,1.905000X2.000000*%
G04 #@! TD*
G04 #@! TA.AperFunction,ComponentPad*
%ADD31O,2.000000X2.000000*%
G04 #@! TD*
G04 #@! TA.AperFunction,ViaPad*
%ADD32C,0.700000*%
G04 #@! TD*
G04 #@! TA.AperFunction,ViaPad*
%ADD33C,1.000000*%
G04 #@! TD*
G04 #@! TA.AperFunction,Conductor*
%ADD34C,1.500000*%
G04 #@! TD*
G04 #@! TA.AperFunction,Conductor*
%ADD35C,2.500000*%
G04 #@! TD*
G04 #@! TA.AperFunction,Conductor*
%ADD36C,1.000000*%
G04 #@! TD*
G04 #@! TA.AperFunction,Conductor*
%ADD37C,0.500000*%
G04 #@! TD*
G04 #@! TA.AperFunction,Conductor*
%ADD38C,2.000000*%
G04 #@! TD*
G04 APERTURE END LIST*
D10*
X80000000Y-55000000D02*
X170000000Y-55000000D01*
X175000000Y-60000000D02*
X175000000Y-150000000D01*
X170000000Y-155000000D02*
G75*
G03*
X175000000Y-150000000I0J5000000D01*
G01*
X170000000Y-155000000D02*
X80000000Y-155000000D01*
X75000000Y-150000000D02*
G75*
G03*
X80000000Y-155000000I5000000J0D01*
G01*
X80000000Y-55000000D02*
G75*
G03*
X75000000Y-60000000I0J-5000000D01*
G01*
X175000000Y-60000000D02*
G75*
G03*
X170000000Y-55000000I-5000000J0D01*
G01*
X75000000Y-150000000D02*
X75000000Y-60000000D01*
D11*
X111512754Y-110000000D03*
D12*
X111512754Y-117500000D03*
G04 #@! TA.AperFunction,SMDPad,CuDef*
G36*
G01*
X120010000Y-137265000D02*
X120910000Y-137265000D01*
G75*
G02*
X121160000Y-137515000I0J-250000D01*
G01*
X121160000Y-138215000D01*
G75*
G02*
X120910000Y-138465000I-250000J0D01*
G01*
X120010000Y-138465000D01*
G75*
G02*
X119760000Y-138215000I0J250000D01*
G01*
X119760000Y-137515000D01*
G75*
G02*
X120010000Y-137265000I250000J0D01*
G01*
G37*
G04 #@! TD.AperFunction*
G04 #@! TA.AperFunction,SMDPad,CuDef*
G36*
G01*
X120010000Y-139265000D02*
X120910000Y-139265000D01*
G75*
G02*
X121160000Y-139515000I0J-250000D01*
G01*
X121160000Y-140215000D01*
G75*
G02*
X120910000Y-140465000I-250000J0D01*
G01*
X120010000Y-140465000D01*
G75*
G02*
X119760000Y-140215000I0J250000D01*
G01*
X119760000Y-139515000D01*
G75*
G02*
X120010000Y-139265000I250000J0D01*
G01*
G37*
G04 #@! TD.AperFunction*
G04 #@! TA.AperFunction,SMDPad,CuDef*
G36*
G01*
X127350000Y-123162500D02*
X127350000Y-122862500D01*
G75*
G02*
X127500000Y-122712500I150000J0D01*
G01*
X128675000Y-122712500D01*
G75*
G02*
X128825000Y-122862500I0J-150000D01*
G01*
X128825000Y-123162500D01*
G75*
G02*
X128675000Y-123312500I-150000J0D01*
G01*
X127500000Y-123312500D01*
G75*
G02*
X127350000Y-123162500I0J150000D01*
G01*
G37*
G04 #@! TD.AperFunction*
G04 #@! TA.AperFunction,SMDPad,CuDef*
G36*
G01*
X127350000Y-125062500D02*
X127350000Y-124762500D01*
G75*
G02*
X127500000Y-124612500I150000J0D01*
G01*
X128675000Y-124612500D01*
G75*
G02*
X128825000Y-124762500I0J-150000D01*
G01*
X128825000Y-125062500D01*
G75*
G02*
X128675000Y-125212500I-150000J0D01*
G01*
X127500000Y-125212500D01*
G75*
G02*
X127350000Y-125062500I0J150000D01*
G01*
G37*
G04 #@! TD.AperFunction*
G04 #@! TA.AperFunction,SMDPad,CuDef*
G36*
G01*
X129225000Y-124112500D02*
X129225000Y-123812500D01*
G75*
G02*
X129375000Y-123662500I150000J0D01*
G01*
X130550000Y-123662500D01*
G75*
G02*
X130700000Y-123812500I0J-150000D01*
G01*
X130700000Y-124112500D01*
G75*
G02*
X130550000Y-124262500I-150000J0D01*
G01*
X129375000Y-124262500D01*
G75*
G02*
X129225000Y-124112500I0J150000D01*
G01*
G37*
G04 #@! TD.AperFunction*
D13*
X82280419Y-152280419D03*
X80000000Y-146775000D03*
D14*
X80000000Y-150000000D03*
D13*
X83225000Y-150000000D03*
X76775000Y-150000000D03*
X77719581Y-147719581D03*
X77719581Y-152280419D03*
X82280419Y-147719581D03*
X80000000Y-153225000D03*
G04 #@! TA.AperFunction,SMDPad,CuDef*
G36*
G01*
X167450000Y-98750000D02*
X166550000Y-98750000D01*
G75*
G02*
X166300000Y-98500000I0J250000D01*
G01*
X166300000Y-97800000D01*
G75*
G02*
X166550000Y-97550000I250000J0D01*
G01*
X167450000Y-97550000D01*
G75*
G02*
X167700000Y-97800000I0J-250000D01*
G01*
X167700000Y-98500000D01*
G75*
G02*
X167450000Y-98750000I-250000J0D01*
G01*
G37*
G04 #@! TD.AperFunction*
G04 #@! TA.AperFunction,SMDPad,CuDef*
G36*
G01*
X167450000Y-96750000D02*
X166550000Y-96750000D01*
G75*
G02*
X166300000Y-96500000I0J250000D01*
G01*
X166300000Y-95800000D01*
G75*
G02*
X166550000Y-95550000I250000J0D01*
G01*
X167450000Y-95550000D01*
G75*
G02*
X167700000Y-95800000I0J-250000D01*
G01*
X167700000Y-96500000D01*
G75*
G02*
X167450000Y-96750000I-250000J0D01*
G01*
G37*
G04 #@! TD.AperFunction*
G04 #@! TA.AperFunction,SMDPad,CuDef*
G36*
G01*
X109000000Y-138000000D02*
X109000000Y-140000000D01*
G75*
G02*
X108750000Y-140250000I-250000J0D01*
G01*
X105250000Y-140250000D01*
G75*
G02*
X105000000Y-140000000I0J250000D01*
G01*
X105000000Y-138000000D01*
G75*
G02*
X105250000Y-137750000I250000J0D01*
G01*
X108750000Y-137750000D01*
G75*
G02*
X109000000Y-138000000I0J-250000D01*
G01*
G37*
G04 #@! TD.AperFunction*
G04 #@! TA.AperFunction,SMDPad,CuDef*
G36*
G01*
X101000000Y-138000000D02*
X101000000Y-140000000D01*
G75*
G02*
X100750000Y-140250000I-250000J0D01*
G01*
X97250000Y-140250000D01*
G75*
G02*
X97000000Y-140000000I0J250000D01*
G01*
X97000000Y-138000000D01*
G75*
G02*
X97250000Y-137750000I250000J0D01*
G01*
X100750000Y-137750000D01*
G75*
G02*
X101000000Y-138000000I0J-250000D01*
G01*
G37*
G04 #@! TD.AperFunction*
D11*
X120512754Y-103500000D03*
D12*
X120512754Y-96000000D03*
D15*
X136250000Y-59000000D03*
X143750000Y-59000000D03*
G04 #@! TA.AperFunction,SMDPad,CuDef*
G36*
G01*
X126010000Y-137265000D02*
X126910000Y-137265000D01*
G75*
G02*
X127160000Y-137515000I0J-250000D01*
G01*
X127160000Y-138215000D01*
G75*
G02*
X126910000Y-138465000I-250000J0D01*
G01*
X126010000Y-138465000D01*
G75*
G02*
X125760000Y-138215000I0J250000D01*
G01*
X125760000Y-137515000D01*
G75*
G02*
X126010000Y-137265000I250000J0D01*
G01*
G37*
G04 #@! TD.AperFunction*
G04 #@! TA.AperFunction,SMDPad,CuDef*
G36*
G01*
X126010000Y-139265000D02*
X126910000Y-139265000D01*
G75*
G02*
X127160000Y-139515000I0J-250000D01*
G01*
X127160000Y-140215000D01*
G75*
G02*
X126910000Y-140465000I-250000J0D01*
G01*
X126010000Y-140465000D01*
G75*
G02*
X125760000Y-140215000I0J250000D01*
G01*
X125760000Y-139515000D01*
G75*
G02*
X126010000Y-139265000I250000J0D01*
G01*
G37*
G04 #@! TD.AperFunction*
G04 #@! TA.AperFunction,SMDPad,CuDef*
G36*
G01*
X108100000Y-127050000D02*
X108100000Y-127950000D01*
G75*
G02*
X107850000Y-128200000I-250000J0D01*
G01*
X107150000Y-128200000D01*
G75*
G02*
X106900000Y-127950000I0J250000D01*
G01*
X106900000Y-127050000D01*
G75*
G02*
X107150000Y-126800000I250000J0D01*
G01*
X107850000Y-126800000D01*
G75*
G02*
X108100000Y-127050000I0J-250000D01*
G01*
G37*
G04 #@! TD.AperFunction*
G04 #@! TA.AperFunction,SMDPad,CuDef*
G36*
G01*
X106100000Y-127050000D02*
X106100000Y-127950000D01*
G75*
G02*
X105850000Y-128200000I-250000J0D01*
G01*
X105150000Y-128200000D01*
G75*
G02*
X104900000Y-127950000I0J250000D01*
G01*
X104900000Y-127050000D01*
G75*
G02*
X105150000Y-126800000I250000J0D01*
G01*
X105850000Y-126800000D01*
G75*
G02*
X106100000Y-127050000I0J-250000D01*
G01*
G37*
G04 #@! TD.AperFunction*
D16*
X153000000Y-73868629D03*
D17*
X153000000Y-89108629D03*
G04 #@! TA.AperFunction,SMDPad,CuDef*
G36*
G01*
X125400000Y-128450000D02*
X125400000Y-127550000D01*
G75*
G02*
X125650000Y-127300000I250000J0D01*
G01*
X126350000Y-127300000D01*
G75*
G02*
X126600000Y-127550000I0J-250000D01*
G01*
X126600000Y-128450000D01*
G75*
G02*
X126350000Y-128700000I-250000J0D01*
G01*
X125650000Y-128700000D01*
G75*
G02*
X125400000Y-128450000I0J250000D01*
G01*
G37*
G04 #@! TD.AperFunction*
G04 #@! TA.AperFunction,SMDPad,CuDef*
G36*
G01*
X127400000Y-128450000D02*
X127400000Y-127550000D01*
G75*
G02*
X127650000Y-127300000I250000J0D01*
G01*
X128350000Y-127300000D01*
G75*
G02*
X128600000Y-127550000I0J-250000D01*
G01*
X128600000Y-128450000D01*
G75*
G02*
X128350000Y-128700000I-250000J0D01*
G01*
X127650000Y-128700000D01*
G75*
G02*
X127400000Y-128450000I0J250000D01*
G01*
G37*
G04 #@! TD.AperFunction*
G04 #@! TA.AperFunction,SMDPad,CuDef*
G36*
G01*
X126500000Y-125587500D02*
X125550000Y-125587500D01*
G75*
G02*
X125300000Y-125337500I0J250000D01*
G01*
X125300000Y-124662500D01*
G75*
G02*
X125550000Y-124412500I250000J0D01*
G01*
X126500000Y-124412500D01*
G75*
G02*
X126750000Y-124662500I0J-250000D01*
G01*
X126750000Y-125337500D01*
G75*
G02*
X126500000Y-125587500I-250000J0D01*
G01*
G37*
G04 #@! TD.AperFunction*
G04 #@! TA.AperFunction,SMDPad,CuDef*
G36*
G01*
X126500000Y-123512500D02*
X125550000Y-123512500D01*
G75*
G02*
X125300000Y-123262500I0J250000D01*
G01*
X125300000Y-122587500D01*
G75*
G02*
X125550000Y-122337500I250000J0D01*
G01*
X126500000Y-122337500D01*
G75*
G02*
X126750000Y-122587500I0J-250000D01*
G01*
X126750000Y-123262500D01*
G75*
G02*
X126500000Y-123512500I-250000J0D01*
G01*
G37*
G04 #@! TD.AperFunction*
G04 #@! TA.AperFunction,SMDPad,CuDef*
G36*
G01*
X121325000Y-122200000D02*
X121325000Y-121900000D01*
G75*
G02*
X121475000Y-121750000I150000J0D01*
G01*
X122650000Y-121750000D01*
G75*
G02*
X122800000Y-121900000I0J-150000D01*
G01*
X122800000Y-122200000D01*
G75*
G02*
X122650000Y-122350000I-150000J0D01*
G01*
X121475000Y-122350000D01*
G75*
G02*
X121325000Y-122200000I0J150000D01*
G01*
G37*
G04 #@! TD.AperFunction*
G04 #@! TA.AperFunction,SMDPad,CuDef*
G36*
G01*
X121325000Y-124100000D02*
X121325000Y-123800000D01*
G75*
G02*
X121475000Y-123650000I150000J0D01*
G01*
X122650000Y-123650000D01*
G75*
G02*
X122800000Y-123800000I0J-150000D01*
G01*
X122800000Y-124100000D01*
G75*
G02*
X122650000Y-124250000I-150000J0D01*
G01*
X121475000Y-124250000D01*
G75*
G02*
X121325000Y-124100000I0J150000D01*
G01*
G37*
G04 #@! TD.AperFunction*
G04 #@! TA.AperFunction,SMDPad,CuDef*
G36*
G01*
X123200000Y-123150000D02*
X123200000Y-122850000D01*
G75*
G02*
X123350000Y-122700000I150000J0D01*
G01*
X124525000Y-122700000D01*
G75*
G02*
X124675000Y-122850000I0J-150000D01*
G01*
X124675000Y-123150000D01*
G75*
G02*
X124525000Y-123300000I-150000J0D01*
G01*
X123350000Y-123300000D01*
G75*
G02*
X123200000Y-123150000I0J150000D01*
G01*
G37*
G04 #@! TD.AperFunction*
D18*
X154092500Y-65250000D03*
D19*
X157972500Y-65250000D03*
D20*
X82695000Y-115955000D03*
D21*
X82695000Y-121035000D03*
D18*
X116581250Y-85430000D03*
D19*
X116581250Y-62570000D03*
X131821250Y-85430000D03*
X131821250Y-62570000D03*
D11*
X129512754Y-110000000D03*
D12*
X129512754Y-117500000D03*
D22*
X154392500Y-84488629D03*
D15*
X159392500Y-84488629D03*
X164392500Y-84488629D03*
X169392500Y-84488629D03*
G04 #@! TA.AperFunction,SMDPad,CuDef*
G36*
G01*
X168550000Y-98400000D02*
X169450000Y-98400000D01*
G75*
G02*
X169700000Y-98650000I0J-250000D01*
G01*
X169700000Y-99350000D01*
G75*
G02*
X169450000Y-99600000I-250000J0D01*
G01*
X168550000Y-99600000D01*
G75*
G02*
X168300000Y-99350000I0J250000D01*
G01*
X168300000Y-98650000D01*
G75*
G02*
X168550000Y-98400000I250000J0D01*
G01*
G37*
G04 #@! TD.AperFunction*
G04 #@! TA.AperFunction,SMDPad,CuDef*
G36*
G01*
X168550000Y-100400000D02*
X169450000Y-100400000D01*
G75*
G02*
X169700000Y-100650000I0J-250000D01*
G01*
X169700000Y-101350000D01*
G75*
G02*
X169450000Y-101600000I-250000J0D01*
G01*
X168550000Y-101600000D01*
G75*
G02*
X168300000Y-101350000I0J250000D01*
G01*
X168300000Y-100650000D01*
G75*
G02*
X168550000Y-100400000I250000J0D01*
G01*
G37*
G04 #@! TD.AperFunction*
D11*
X102512754Y-103500000D03*
D12*
X102512754Y-96000000D03*
G04 #@! TA.AperFunction,SMDPad,CuDef*
G36*
G01*
X116475000Y-140452500D02*
X115525000Y-140452500D01*
G75*
G02*
X115275000Y-140202500I0J250000D01*
G01*
X115275000Y-139527500D01*
G75*
G02*
X115525000Y-139277500I250000J0D01*
G01*
X116475000Y-139277500D01*
G75*
G02*
X116725000Y-139527500I0J-250000D01*
G01*
X116725000Y-140202500D01*
G75*
G02*
X116475000Y-140452500I-250000J0D01*
G01*
G37*
G04 #@! TD.AperFunction*
G04 #@! TA.AperFunction,SMDPad,CuDef*
G36*
G01*
X116475000Y-138377500D02*
X115525000Y-138377500D01*
G75*
G02*
X115275000Y-138127500I0J250000D01*
G01*
X115275000Y-137452500D01*
G75*
G02*
X115525000Y-137202500I250000J0D01*
G01*
X116475000Y-137202500D01*
G75*
G02*
X116725000Y-137452500I0J-250000D01*
G01*
X116725000Y-138127500D01*
G75*
G02*
X116475000Y-138377500I-250000J0D01*
G01*
G37*
G04 #@! TD.AperFunction*
D19*
X92501250Y-79250000D03*
X92501250Y-56750000D03*
G04 #@! TA.AperFunction,SMDPad,CuDef*
G36*
G01*
X116600000Y-122550000D02*
X116600000Y-123450000D01*
G75*
G02*
X116350000Y-123700000I-250000J0D01*
G01*
X115650000Y-123700000D01*
G75*
G02*
X115400000Y-123450000I0J250000D01*
G01*
X115400000Y-122550000D01*
G75*
G02*
X115650000Y-122300000I250000J0D01*
G01*
X116350000Y-122300000D01*
G75*
G02*
X116600000Y-122550000I0J-250000D01*
G01*
G37*
G04 #@! TD.AperFunction*
G04 #@! TA.AperFunction,SMDPad,CuDef*
G36*
G01*
X114600000Y-122550000D02*
X114600000Y-123450000D01*
G75*
G02*
X114350000Y-123700000I-250000J0D01*
G01*
X113650000Y-123700000D01*
G75*
G02*
X113400000Y-123450000I0J250000D01*
G01*
X113400000Y-122550000D01*
G75*
G02*
X113650000Y-122300000I250000J0D01*
G01*
X114350000Y-122300000D01*
G75*
G02*
X114600000Y-122550000I0J-250000D01*
G01*
G37*
G04 #@! TD.AperFunction*
D16*
X135460000Y-128015000D03*
D17*
X135460000Y-143255000D03*
G04 #@! TA.AperFunction,SMDPad,CuDef*
G36*
G01*
X90615000Y-125265000D02*
X91565000Y-125265000D01*
G75*
G02*
X91815000Y-125515000I0J-250000D01*
G01*
X91815000Y-126190000D01*
G75*
G02*
X91565000Y-126440000I-250000J0D01*
G01*
X90615000Y-126440000D01*
G75*
G02*
X90365000Y-126190000I0J250000D01*
G01*
X90365000Y-125515000D01*
G75*
G02*
X90615000Y-125265000I250000J0D01*
G01*
G37*
G04 #@! TD.AperFunction*
G04 #@! TA.AperFunction,SMDPad,CuDef*
G36*
G01*
X90615000Y-127340000D02*
X91565000Y-127340000D01*
G75*
G02*
X91815000Y-127590000I0J-250000D01*
G01*
X91815000Y-128265000D01*
G75*
G02*
X91565000Y-128515000I-250000J0D01*
G01*
X90615000Y-128515000D01*
G75*
G02*
X90365000Y-128265000I0J250000D01*
G01*
X90365000Y-127590000D01*
G75*
G02*
X90615000Y-127340000I250000J0D01*
G01*
G37*
G04 #@! TD.AperFunction*
G04 #@! TA.AperFunction,SMDPad,CuDef*
G36*
G01*
X167450000Y-104750000D02*
X166550000Y-104750000D01*
G75*
G02*
X166300000Y-104500000I0J250000D01*
G01*
X166300000Y-103800000D01*
G75*
G02*
X166550000Y-103550000I250000J0D01*
G01*
X167450000Y-103550000D01*
G75*
G02*
X167700000Y-103800000I0J-250000D01*
G01*
X167700000Y-104500000D01*
G75*
G02*
X167450000Y-104750000I-250000J0D01*
G01*
G37*
G04 #@! TD.AperFunction*
G04 #@! TA.AperFunction,SMDPad,CuDef*
G36*
G01*
X167450000Y-102750000D02*
X166550000Y-102750000D01*
G75*
G02*
X166300000Y-102500000I0J250000D01*
G01*
X166300000Y-101800000D01*
G75*
G02*
X166550000Y-101550000I250000J0D01*
G01*
X167450000Y-101550000D01*
G75*
G02*
X167700000Y-101800000I0J-250000D01*
G01*
X167700000Y-102500000D01*
G75*
G02*
X167450000Y-102750000I-250000J0D01*
G01*
G37*
G04 #@! TD.AperFunction*
G04 #@! TA.AperFunction,SMDPad,CuDef*
G36*
G01*
X92640000Y-125290000D02*
X93540000Y-125290000D01*
G75*
G02*
X93790000Y-125540000I0J-250000D01*
G01*
X93790000Y-126240000D01*
G75*
G02*
X93540000Y-126490000I-250000J0D01*
G01*
X92640000Y-126490000D01*
G75*
G02*
X92390000Y-126240000I0J250000D01*
G01*
X92390000Y-125540000D01*
G75*
G02*
X92640000Y-125290000I250000J0D01*
G01*
G37*
G04 #@! TD.AperFunction*
G04 #@! TA.AperFunction,SMDPad,CuDef*
G36*
G01*
X92640000Y-127290000D02*
X93540000Y-127290000D01*
G75*
G02*
X93790000Y-127540000I0J-250000D01*
G01*
X93790000Y-128240000D01*
G75*
G02*
X93540000Y-128490000I-250000J0D01*
G01*
X92640000Y-128490000D01*
G75*
G02*
X92390000Y-128240000I0J250000D01*
G01*
X92390000Y-127540000D01*
G75*
G02*
X92640000Y-127290000I250000J0D01*
G01*
G37*
G04 #@! TD.AperFunction*
D23*
X87290000Y-131090000D03*
D24*
X87290000Y-133630000D03*
X87290000Y-136170000D03*
X87290000Y-138710000D03*
X94910000Y-138710000D03*
X94910000Y-136170000D03*
X94910000Y-133630000D03*
X94910000Y-131090000D03*
G04 #@! TA.AperFunction,SMDPad,CuDef*
G36*
G01*
X86615000Y-140765000D02*
X87565000Y-140765000D01*
G75*
G02*
X87815000Y-141015000I0J-250000D01*
G01*
X87815000Y-141690000D01*
G75*
G02*
X87565000Y-141940000I-250000J0D01*
G01*
X86615000Y-141940000D01*
G75*
G02*
X86365000Y-141690000I0J250000D01*
G01*
X86365000Y-141015000D01*
G75*
G02*
X86615000Y-140765000I250000J0D01*
G01*
G37*
G04 #@! TD.AperFunction*
G04 #@! TA.AperFunction,SMDPad,CuDef*
G36*
G01*
X86615000Y-142840000D02*
X87565000Y-142840000D01*
G75*
G02*
X87815000Y-143090000I0J-250000D01*
G01*
X87815000Y-143765000D01*
G75*
G02*
X87565000Y-144015000I-250000J0D01*
G01*
X86615000Y-144015000D01*
G75*
G02*
X86365000Y-143765000I0J250000D01*
G01*
X86365000Y-143090000D01*
G75*
G02*
X86615000Y-142840000I250000J0D01*
G01*
G37*
G04 #@! TD.AperFunction*
D25*
X94540000Y-149000000D03*
X92000000Y-149000000D03*
X89460000Y-149000000D03*
D16*
X165000000Y-89108629D03*
D17*
X165000000Y-73868629D03*
D11*
X147512754Y-110000000D03*
D12*
X147512754Y-117500000D03*
D11*
X165512754Y-110000000D03*
D12*
X165512754Y-117500000D03*
G04 #@! TA.AperFunction,SMDPad,CuDef*
G36*
G01*
X168550000Y-92550000D02*
X169450000Y-92550000D01*
G75*
G02*
X169700000Y-92800000I0J-250000D01*
G01*
X169700000Y-93500000D01*
G75*
G02*
X169450000Y-93750000I-250000J0D01*
G01*
X168550000Y-93750000D01*
G75*
G02*
X168300000Y-93500000I0J250000D01*
G01*
X168300000Y-92800000D01*
G75*
G02*
X168550000Y-92550000I250000J0D01*
G01*
G37*
G04 #@! TD.AperFunction*
G04 #@! TA.AperFunction,SMDPad,CuDef*
G36*
G01*
X168550000Y-94550000D02*
X169450000Y-94550000D01*
G75*
G02*
X169700000Y-94800000I0J-250000D01*
G01*
X169700000Y-95500000D01*
G75*
G02*
X169450000Y-95750000I-250000J0D01*
G01*
X168550000Y-95750000D01*
G75*
G02*
X168300000Y-95500000I0J250000D01*
G01*
X168300000Y-94800000D01*
G75*
G02*
X168550000Y-94550000I250000J0D01*
G01*
G37*
G04 #@! TD.AperFunction*
G04 #@! TA.AperFunction,SMDPad,CuDef*
G36*
G01*
X95565000Y-128515000D02*
X94615000Y-128515000D01*
G75*
G02*
X94365000Y-128265000I0J250000D01*
G01*
X94365000Y-127590000D01*
G75*
G02*
X94615000Y-127340000I250000J0D01*
G01*
X95565000Y-127340000D01*
G75*
G02*
X95815000Y-127590000I0J-250000D01*
G01*
X95815000Y-128265000D01*
G75*
G02*
X95565000Y-128515000I-250000J0D01*
G01*
G37*
G04 #@! TD.AperFunction*
G04 #@! TA.AperFunction,SMDPad,CuDef*
G36*
G01*
X95565000Y-126440000D02*
X94615000Y-126440000D01*
G75*
G02*
X94365000Y-126190000I0J250000D01*
G01*
X94365000Y-125515000D01*
G75*
G02*
X94615000Y-125265000I250000J0D01*
G01*
X95565000Y-125265000D01*
G75*
G02*
X95815000Y-125515000I0J-250000D01*
G01*
X95815000Y-126190000D01*
G75*
G02*
X95565000Y-126440000I-250000J0D01*
G01*
G37*
G04 #@! TD.AperFunction*
G04 #@! TA.AperFunction,SMDPad,CuDef*
G36*
G01*
X122200000Y-128612500D02*
X121900000Y-128612500D01*
G75*
G02*
X121750000Y-128462500I0J150000D01*
G01*
X121750000Y-127287500D01*
G75*
G02*
X121900000Y-127137500I150000J0D01*
G01*
X122200000Y-127137500D01*
G75*
G02*
X122350000Y-127287500I0J-150000D01*
G01*
X122350000Y-128462500D01*
G75*
G02*
X122200000Y-128612500I-150000J0D01*
G01*
G37*
G04 #@! TD.AperFunction*
G04 #@! TA.AperFunction,SMDPad,CuDef*
G36*
G01*
X124100000Y-128612500D02*
X123800000Y-128612500D01*
G75*
G02*
X123650000Y-128462500I0J150000D01*
G01*
X123650000Y-127287500D01*
G75*
G02*
X123800000Y-127137500I150000J0D01*
G01*
X124100000Y-127137500D01*
G75*
G02*
X124250000Y-127287500I0J-150000D01*
G01*
X124250000Y-128462500D01*
G75*
G02*
X124100000Y-128612500I-150000J0D01*
G01*
G37*
G04 #@! TD.AperFunction*
G04 #@! TA.AperFunction,SMDPad,CuDef*
G36*
G01*
X123150000Y-126737500D02*
X122850000Y-126737500D01*
G75*
G02*
X122700000Y-126587500I0J150000D01*
G01*
X122700000Y-125412500D01*
G75*
G02*
X122850000Y-125262500I150000J0D01*
G01*
X123150000Y-125262500D01*
G75*
G02*
X123300000Y-125412500I0J-150000D01*
G01*
X123300000Y-126587500D01*
G75*
G02*
X123150000Y-126737500I-150000J0D01*
G01*
G37*
G04 #@! TD.AperFunction*
G04 #@! TA.AperFunction,SMDPad,CuDef*
G36*
G01*
X95765000Y-144015000D02*
X94815000Y-144015000D01*
G75*
G02*
X94565000Y-143765000I0J250000D01*
G01*
X94565000Y-143090000D01*
G75*
G02*
X94815000Y-142840000I250000J0D01*
G01*
X95765000Y-142840000D01*
G75*
G02*
X96015000Y-143090000I0J-250000D01*
G01*
X96015000Y-143765000D01*
G75*
G02*
X95765000Y-144015000I-250000J0D01*
G01*
G37*
G04 #@! TD.AperFunction*
G04 #@! TA.AperFunction,SMDPad,CuDef*
G36*
G01*
X95765000Y-141940000D02*
X94815000Y-141940000D01*
G75*
G02*
X94565000Y-141690000I0J250000D01*
G01*
X94565000Y-141015000D01*
G75*
G02*
X94815000Y-140765000I250000J0D01*
G01*
X95765000Y-140765000D01*
G75*
G02*
X96015000Y-141015000I0J-250000D01*
G01*
X96015000Y-141690000D01*
G75*
G02*
X95765000Y-141940000I-250000J0D01*
G01*
G37*
G04 #@! TD.AperFunction*
G04 #@! TA.AperFunction,SMDPad,CuDef*
G36*
G01*
X145550000Y-76400000D02*
X146450000Y-76400000D01*
G75*
G02*
X146700000Y-76650000I0J-250000D01*
G01*
X146700000Y-77350000D01*
G75*
G02*
X146450000Y-77600000I-250000J0D01*
G01*
X145550000Y-77600000D01*
G75*
G02*
X145300000Y-77350000I0J250000D01*
G01*
X145300000Y-76650000D01*
G75*
G02*
X145550000Y-76400000I250000J0D01*
G01*
G37*
G04 #@! TD.AperFunction*
G04 #@! TA.AperFunction,SMDPad,CuDef*
G36*
G01*
X145550000Y-78400000D02*
X146450000Y-78400000D01*
G75*
G02*
X146700000Y-78650000I0J-250000D01*
G01*
X146700000Y-79350000D01*
G75*
G02*
X146450000Y-79600000I-250000J0D01*
G01*
X145550000Y-79600000D01*
G75*
G02*
X145300000Y-79350000I0J250000D01*
G01*
X145300000Y-78650000D01*
G75*
G02*
X145550000Y-78400000I250000J0D01*
G01*
G37*
G04 #@! TD.AperFunction*
G04 #@! TA.AperFunction,SMDPad,CuDef*
G36*
G01*
X86640000Y-125290000D02*
X87540000Y-125290000D01*
G75*
G02*
X87790000Y-125540000I0J-250000D01*
G01*
X87790000Y-126240000D01*
G75*
G02*
X87540000Y-126490000I-250000J0D01*
G01*
X86640000Y-126490000D01*
G75*
G02*
X86390000Y-126240000I0J250000D01*
G01*
X86390000Y-125540000D01*
G75*
G02*
X86640000Y-125290000I250000J0D01*
G01*
G37*
G04 #@! TD.AperFunction*
G04 #@! TA.AperFunction,SMDPad,CuDef*
G36*
G01*
X86640000Y-127290000D02*
X87540000Y-127290000D01*
G75*
G02*
X87790000Y-127540000I0J-250000D01*
G01*
X87790000Y-128240000D01*
G75*
G02*
X87540000Y-128490000I-250000J0D01*
G01*
X86640000Y-128490000D01*
G75*
G02*
X86390000Y-128240000I0J250000D01*
G01*
X86390000Y-127540000D01*
G75*
G02*
X86640000Y-127290000I250000J0D01*
G01*
G37*
G04 #@! TD.AperFunction*
G04 #@! TA.AperFunction,SMDPad,CuDef*
G36*
G01*
X108875000Y-127975000D02*
X108875000Y-127025000D01*
G75*
G02*
X109125000Y-126775000I250000J0D01*
G01*
X109800000Y-126775000D01*
G75*
G02*
X110050000Y-127025000I0J-250000D01*
G01*
X110050000Y-127975000D01*
G75*
G02*
X109800000Y-128225000I-250000J0D01*
G01*
X109125000Y-128225000D01*
G75*
G02*
X108875000Y-127975000I0J250000D01*
G01*
G37*
G04 #@! TD.AperFunction*
G04 #@! TA.AperFunction,SMDPad,CuDef*
G36*
G01*
X110950000Y-127975000D02*
X110950000Y-127025000D01*
G75*
G02*
X111200000Y-126775000I250000J0D01*
G01*
X111875000Y-126775000D01*
G75*
G02*
X112125000Y-127025000I0J-250000D01*
G01*
X112125000Y-127975000D01*
G75*
G02*
X111875000Y-128225000I-250000J0D01*
G01*
X111200000Y-128225000D01*
G75*
G02*
X110950000Y-127975000I0J250000D01*
G01*
G37*
G04 #@! TD.AperFunction*
G04 #@! TA.AperFunction,SMDPad,CuDef*
G36*
G01*
X116600000Y-124550000D02*
X116600000Y-125450000D01*
G75*
G02*
X116350000Y-125700000I-250000J0D01*
G01*
X115650000Y-125700000D01*
G75*
G02*
X115400000Y-125450000I0J250000D01*
G01*
X115400000Y-124550000D01*
G75*
G02*
X115650000Y-124300000I250000J0D01*
G01*
X116350000Y-124300000D01*
G75*
G02*
X116600000Y-124550000I0J-250000D01*
G01*
G37*
G04 #@! TD.AperFunction*
G04 #@! TA.AperFunction,SMDPad,CuDef*
G36*
G01*
X114600000Y-124550000D02*
X114600000Y-125450000D01*
G75*
G02*
X114350000Y-125700000I-250000J0D01*
G01*
X113650000Y-125700000D01*
G75*
G02*
X113400000Y-125450000I0J250000D01*
G01*
X113400000Y-124550000D01*
G75*
G02*
X113650000Y-124300000I250000J0D01*
G01*
X114350000Y-124300000D01*
G75*
G02*
X114600000Y-124550000I0J-250000D01*
G01*
G37*
G04 #@! TD.AperFunction*
G04 #@! TA.AperFunction,SMDPad,CuDef*
G36*
G01*
X93540000Y-143990000D02*
X92640000Y-143990000D01*
G75*
G02*
X92390000Y-143740000I0J250000D01*
G01*
X92390000Y-143040000D01*
G75*
G02*
X92640000Y-142790000I250000J0D01*
G01*
X93540000Y-142790000D01*
G75*
G02*
X93790000Y-143040000I0J-250000D01*
G01*
X93790000Y-143740000D01*
G75*
G02*
X93540000Y-143990000I-250000J0D01*
G01*
G37*
G04 #@! TD.AperFunction*
G04 #@! TA.AperFunction,SMDPad,CuDef*
G36*
G01*
X93540000Y-141990000D02*
X92640000Y-141990000D01*
G75*
G02*
X92390000Y-141740000I0J250000D01*
G01*
X92390000Y-141040000D01*
G75*
G02*
X92640000Y-140790000I250000J0D01*
G01*
X93540000Y-140790000D01*
G75*
G02*
X93790000Y-141040000I0J-250000D01*
G01*
X93790000Y-141740000D01*
G75*
G02*
X93540000Y-141990000I-250000J0D01*
G01*
G37*
G04 #@! TD.AperFunction*
G04 #@! TA.AperFunction,SMDPad,CuDef*
G36*
G01*
X120600000Y-124550000D02*
X120600000Y-125450000D01*
G75*
G02*
X120350000Y-125700000I-250000J0D01*
G01*
X119650000Y-125700000D01*
G75*
G02*
X119400000Y-125450000I0J250000D01*
G01*
X119400000Y-124550000D01*
G75*
G02*
X119650000Y-124300000I250000J0D01*
G01*
X120350000Y-124300000D01*
G75*
G02*
X120600000Y-124550000I0J-250000D01*
G01*
G37*
G04 #@! TD.AperFunction*
G04 #@! TA.AperFunction,SMDPad,CuDef*
G36*
G01*
X118600000Y-124550000D02*
X118600000Y-125450000D01*
G75*
G02*
X118350000Y-125700000I-250000J0D01*
G01*
X117650000Y-125700000D01*
G75*
G02*
X117400000Y-125450000I0J250000D01*
G01*
X117400000Y-124550000D01*
G75*
G02*
X117650000Y-124300000I250000J0D01*
G01*
X118350000Y-124300000D01*
G75*
G02*
X118600000Y-124550000I0J-250000D01*
G01*
G37*
G04 #@! TD.AperFunction*
G04 #@! TA.AperFunction,ComponentPad*
G36*
G01*
X99135000Y-122590000D02*
X100825000Y-122590000D01*
G75*
G02*
X101075000Y-122840000I0J-250000D01*
G01*
X101075000Y-124080000D01*
G75*
G02*
X100825000Y-124330000I-250000J0D01*
G01*
X99135000Y-124330000D01*
G75*
G02*
X98885000Y-124080000I0J250000D01*
G01*
X98885000Y-122840000D01*
G75*
G02*
X99135000Y-122590000I250000J0D01*
G01*
G37*
G04 #@! TD.AperFunction*
D26*
X99980000Y-126000000D03*
X99980000Y-128540000D03*
G04 #@! TA.AperFunction,SMDPad,CuDef*
G36*
G01*
X145550000Y-70400000D02*
X146450000Y-70400000D01*
G75*
G02*
X146700000Y-70650000I0J-250000D01*
G01*
X146700000Y-71350000D01*
G75*
G02*
X146450000Y-71600000I-250000J0D01*
G01*
X145550000Y-71600000D01*
G75*
G02*
X145300000Y-71350000I0J250000D01*
G01*
X145300000Y-70650000D01*
G75*
G02*
X145550000Y-70400000I250000J0D01*
G01*
G37*
G04 #@! TD.AperFunction*
G04 #@! TA.AperFunction,SMDPad,CuDef*
G36*
G01*
X145550000Y-72400000D02*
X146450000Y-72400000D01*
G75*
G02*
X146700000Y-72650000I0J-250000D01*
G01*
X146700000Y-73350000D01*
G75*
G02*
X146450000Y-73600000I-250000J0D01*
G01*
X145550000Y-73600000D01*
G75*
G02*
X145300000Y-73350000I0J250000D01*
G01*
X145300000Y-72650000D01*
G75*
G02*
X145550000Y-72400000I250000J0D01*
G01*
G37*
G04 #@! TD.AperFunction*
D27*
X110500000Y-123500000D03*
X105500000Y-123500000D03*
G04 #@! TA.AperFunction,SMDPad,CuDef*
G36*
G01*
X122010000Y-137265000D02*
X122910000Y-137265000D01*
G75*
G02*
X123160000Y-137515000I0J-250000D01*
G01*
X123160000Y-138215000D01*
G75*
G02*
X122910000Y-138465000I-250000J0D01*
G01*
X122010000Y-138465000D01*
G75*
G02*
X121760000Y-138215000I0J250000D01*
G01*
X121760000Y-137515000D01*
G75*
G02*
X122010000Y-137265000I250000J0D01*
G01*
G37*
G04 #@! TD.AperFunction*
G04 #@! TA.AperFunction,SMDPad,CuDef*
G36*
G01*
X122010000Y-139265000D02*
X122910000Y-139265000D01*
G75*
G02*
X123160000Y-139515000I0J-250000D01*
G01*
X123160000Y-140215000D01*
G75*
G02*
X122910000Y-140465000I-250000J0D01*
G01*
X122010000Y-140465000D01*
G75*
G02*
X121760000Y-140215000I0J250000D01*
G01*
X121760000Y-139515000D01*
G75*
G02*
X122010000Y-139265000I250000J0D01*
G01*
G37*
G04 #@! TD.AperFunction*
D11*
X156512754Y-103500000D03*
D12*
X156512754Y-96000000D03*
G04 #@! TA.AperFunction,SMDPad,CuDef*
G36*
G01*
X117550000Y-137265000D02*
X118450000Y-137265000D01*
G75*
G02*
X118700000Y-137515000I0J-250000D01*
G01*
X118700000Y-138215000D01*
G75*
G02*
X118450000Y-138465000I-250000J0D01*
G01*
X117550000Y-138465000D01*
G75*
G02*
X117300000Y-138215000I0J250000D01*
G01*
X117300000Y-137515000D01*
G75*
G02*
X117550000Y-137265000I250000J0D01*
G01*
G37*
G04 #@! TD.AperFunction*
G04 #@! TA.AperFunction,SMDPad,CuDef*
G36*
G01*
X117550000Y-139265000D02*
X118450000Y-139265000D01*
G75*
G02*
X118700000Y-139515000I0J-250000D01*
G01*
X118700000Y-140215000D01*
G75*
G02*
X118450000Y-140465000I-250000J0D01*
G01*
X117550000Y-140465000D01*
G75*
G02*
X117300000Y-140215000I0J250000D01*
G01*
X117300000Y-139515000D01*
G75*
G02*
X117550000Y-139265000I250000J0D01*
G01*
G37*
G04 #@! TD.AperFunction*
G04 #@! TA.AperFunction,SMDPad,CuDef*
G36*
G01*
X89540000Y-128490000D02*
X88640000Y-128490000D01*
G75*
G02*
X88390000Y-128240000I0J250000D01*
G01*
X88390000Y-127540000D01*
G75*
G02*
X88640000Y-127290000I250000J0D01*
G01*
X89540000Y-127290000D01*
G75*
G02*
X89790000Y-127540000I0J-250000D01*
G01*
X89790000Y-128240000D01*
G75*
G02*
X89540000Y-128490000I-250000J0D01*
G01*
G37*
G04 #@! TD.AperFunction*
G04 #@! TA.AperFunction,SMDPad,CuDef*
G36*
G01*
X89540000Y-126490000D02*
X88640000Y-126490000D01*
G75*
G02*
X88390000Y-126240000I0J250000D01*
G01*
X88390000Y-125540000D01*
G75*
G02*
X88640000Y-125290000I250000J0D01*
G01*
X89540000Y-125290000D01*
G75*
G02*
X89790000Y-125540000I0J-250000D01*
G01*
X89790000Y-126240000D01*
G75*
G02*
X89540000Y-126490000I-250000J0D01*
G01*
G37*
G04 #@! TD.AperFunction*
G04 #@! TA.AperFunction,SMDPad,CuDef*
G36*
G01*
X124010000Y-137265000D02*
X124910000Y-137265000D01*
G75*
G02*
X125160000Y-137515000I0J-250000D01*
G01*
X125160000Y-138215000D01*
G75*
G02*
X124910000Y-138465000I-250000J0D01*
G01*
X124010000Y-138465000D01*
G75*
G02*
X123760000Y-138215000I0J250000D01*
G01*
X123760000Y-137515000D01*
G75*
G02*
X124010000Y-137265000I250000J0D01*
G01*
G37*
G04 #@! TD.AperFunction*
G04 #@! TA.AperFunction,SMDPad,CuDef*
G36*
G01*
X124010000Y-139265000D02*
X124910000Y-139265000D01*
G75*
G02*
X125160000Y-139515000I0J-250000D01*
G01*
X125160000Y-140215000D01*
G75*
G02*
X124910000Y-140465000I-250000J0D01*
G01*
X124010000Y-140465000D01*
G75*
G02*
X123760000Y-140215000I0J250000D01*
G01*
X123760000Y-139515000D01*
G75*
G02*
X124010000Y-139265000I250000J0D01*
G01*
G37*
G04 #@! TD.AperFunction*
D15*
X101000000Y-86750000D03*
X101000000Y-79250000D03*
X107000000Y-86750000D03*
X107000000Y-79250000D03*
D11*
X138512754Y-103500000D03*
D12*
X138512754Y-96000000D03*
X140196250Y-64500000D03*
X140196250Y-79500000D03*
G04 #@! TA.AperFunction,SMDPad,CuDef*
G36*
G01*
X128010000Y-137265000D02*
X128910000Y-137265000D01*
G75*
G02*
X129160000Y-137515000I0J-250000D01*
G01*
X129160000Y-138215000D01*
G75*
G02*
X128910000Y-138465000I-250000J0D01*
G01*
X128010000Y-138465000D01*
G75*
G02*
X127760000Y-138215000I0J250000D01*
G01*
X127760000Y-137515000D01*
G75*
G02*
X128010000Y-137265000I250000J0D01*
G01*
G37*
G04 #@! TD.AperFunction*
G04 #@! TA.AperFunction,SMDPad,CuDef*
G36*
G01*
X128010000Y-139265000D02*
X128910000Y-139265000D01*
G75*
G02*
X129160000Y-139515000I0J-250000D01*
G01*
X129160000Y-140215000D01*
G75*
G02*
X128910000Y-140465000I-250000J0D01*
G01*
X128010000Y-140465000D01*
G75*
G02*
X127760000Y-140215000I0J250000D01*
G01*
X127760000Y-139515000D01*
G75*
G02*
X128010000Y-139265000I250000J0D01*
G01*
G37*
G04 #@! TD.AperFunction*
D16*
X159000000Y-73868629D03*
D17*
X159000000Y-89108629D03*
D20*
X169305000Y-142000000D03*
D21*
X169305000Y-137000000D03*
X169305000Y-132000000D03*
D20*
X81196250Y-69000000D03*
D21*
X81196250Y-74000000D03*
X81196250Y-79000000D03*
D15*
X136446250Y-85000000D03*
X143946250Y-85000000D03*
D23*
X81515000Y-136190000D03*
D24*
X84055000Y-136190000D03*
X84055000Y-126030000D03*
X81515000Y-126030000D03*
D11*
X93512754Y-110000000D03*
D12*
X93512754Y-117500000D03*
D16*
X171000000Y-89108629D03*
D17*
X171000000Y-73868629D03*
D13*
X170000000Y-63225000D03*
X172280419Y-62280419D03*
X173225000Y-60000000D03*
X167719581Y-57719581D03*
D14*
X170000000Y-60000000D03*
D13*
X172280419Y-57719581D03*
X167719581Y-62280419D03*
X166775000Y-60000000D03*
X170000000Y-56775000D03*
D16*
X157500000Y-123260000D03*
D17*
X157500000Y-138500000D03*
G04 #@! TA.AperFunction,SMDPad,CuDef*
G36*
G01*
X130450000Y-131100000D02*
X129550000Y-131100000D01*
G75*
G02*
X129300000Y-130850000I0J250000D01*
G01*
X129300000Y-130150000D01*
G75*
G02*
X129550000Y-129900000I250000J0D01*
G01*
X130450000Y-129900000D01*
G75*
G02*
X130700000Y-130150000I0J-250000D01*
G01*
X130700000Y-130850000D01*
G75*
G02*
X130450000Y-131100000I-250000J0D01*
G01*
G37*
G04 #@! TD.AperFunction*
G04 #@! TA.AperFunction,SMDPad,CuDef*
G36*
G01*
X130450000Y-129100000D02*
X129550000Y-129100000D01*
G75*
G02*
X129300000Y-128850000I0J250000D01*
G01*
X129300000Y-128150000D01*
G75*
G02*
X129550000Y-127900000I250000J0D01*
G01*
X130450000Y-127900000D01*
G75*
G02*
X130700000Y-128150000I0J-250000D01*
G01*
X130700000Y-128850000D01*
G75*
G02*
X130450000Y-129100000I-250000J0D01*
G01*
G37*
G04 #@! TD.AperFunction*
D13*
X166775000Y-150000000D03*
X173225000Y-150000000D03*
X167719581Y-152280419D03*
D14*
X170000000Y-150000000D03*
D13*
X167719581Y-147719581D03*
X172280419Y-152280419D03*
X170000000Y-153225000D03*
X170000000Y-146775000D03*
X172280419Y-147719581D03*
G04 #@! TA.AperFunction,SMDPad,CuDef*
G36*
G01*
X149640000Y-130585000D02*
X148740000Y-130585000D01*
G75*
G02*
X148490000Y-130335000I0J250000D01*
G01*
X148490000Y-129635000D01*
G75*
G02*
X148740000Y-129385000I250000J0D01*
G01*
X149640000Y-129385000D01*
G75*
G02*
X149890000Y-129635000I0J-250000D01*
G01*
X149890000Y-130335000D01*
G75*
G02*
X149640000Y-130585000I-250000J0D01*
G01*
G37*
G04 #@! TD.AperFunction*
G04 #@! TA.AperFunction,SMDPad,CuDef*
G36*
G01*
X149640000Y-128585000D02*
X148740000Y-128585000D01*
G75*
G02*
X148490000Y-128335000I0J250000D01*
G01*
X148490000Y-127635000D01*
G75*
G02*
X148740000Y-127385000I250000J0D01*
G01*
X149640000Y-127385000D01*
G75*
G02*
X149890000Y-127635000I0J-250000D01*
G01*
X149890000Y-128335000D01*
G75*
G02*
X149640000Y-128585000I-250000J0D01*
G01*
G37*
G04 #@! TD.AperFunction*
D11*
X84756377Y-103500000D03*
D12*
X84756377Y-96000000D03*
G04 #@! TA.AperFunction,SMDPad,CuDef*
G36*
G01*
X148550000Y-67400000D02*
X149450000Y-67400000D01*
G75*
G02*
X149700000Y-67650000I0J-250000D01*
G01*
X149700000Y-68350000D01*
G75*
G02*
X149450000Y-68600000I-250000J0D01*
G01*
X148550000Y-68600000D01*
G75*
G02*
X148300000Y-68350000I0J250000D01*
G01*
X148300000Y-67650000D01*
G75*
G02*
X148550000Y-67400000I250000J0D01*
G01*
G37*
G04 #@! TD.AperFunction*
G04 #@! TA.AperFunction,SMDPad,CuDef*
G36*
G01*
X148550000Y-69400000D02*
X149450000Y-69400000D01*
G75*
G02*
X149700000Y-69650000I0J-250000D01*
G01*
X149700000Y-70350000D01*
G75*
G02*
X149450000Y-70600000I-250000J0D01*
G01*
X148550000Y-70600000D01*
G75*
G02*
X148300000Y-70350000I0J250000D01*
G01*
X148300000Y-69650000D01*
G75*
G02*
X148550000Y-69400000I250000J0D01*
G01*
G37*
G04 #@! TD.AperFunction*
G04 #@! TA.AperFunction,SMDPad,CuDef*
G36*
G01*
X89540000Y-143990000D02*
X88640000Y-143990000D01*
G75*
G02*
X88390000Y-143740000I0J250000D01*
G01*
X88390000Y-143040000D01*
G75*
G02*
X88640000Y-142790000I250000J0D01*
G01*
X89540000Y-142790000D01*
G75*
G02*
X89790000Y-143040000I0J-250000D01*
G01*
X89790000Y-143740000D01*
G75*
G02*
X89540000Y-143990000I-250000J0D01*
G01*
G37*
G04 #@! TD.AperFunction*
G04 #@! TA.AperFunction,SMDPad,CuDef*
G36*
G01*
X89540000Y-141990000D02*
X88640000Y-141990000D01*
G75*
G02*
X88390000Y-141740000I0J250000D01*
G01*
X88390000Y-141040000D01*
G75*
G02*
X88640000Y-140790000I250000J0D01*
G01*
X89540000Y-140790000D01*
G75*
G02*
X89790000Y-141040000I0J-250000D01*
G01*
X89790000Y-141740000D01*
G75*
G02*
X89540000Y-141990000I-250000J0D01*
G01*
G37*
G04 #@! TD.AperFunction*
D13*
X77719581Y-57719581D03*
D14*
X80000000Y-60000000D03*
D13*
X77719581Y-62280419D03*
X80000000Y-63225000D03*
X82280419Y-62280419D03*
X83225000Y-60000000D03*
X76775000Y-60000000D03*
X80000000Y-56775000D03*
X82280419Y-57719581D03*
G04 #@! TA.AperFunction,SMDPad,CuDef*
G36*
G01*
X148550000Y-73400000D02*
X149450000Y-73400000D01*
G75*
G02*
X149700000Y-73650000I0J-250000D01*
G01*
X149700000Y-74350000D01*
G75*
G02*
X149450000Y-74600000I-250000J0D01*
G01*
X148550000Y-74600000D01*
G75*
G02*
X148300000Y-74350000I0J250000D01*
G01*
X148300000Y-73650000D01*
G75*
G02*
X148550000Y-73400000I250000J0D01*
G01*
G37*
G04 #@! TD.AperFunction*
G04 #@! TA.AperFunction,SMDPad,CuDef*
G36*
G01*
X148550000Y-75400000D02*
X149450000Y-75400000D01*
G75*
G02*
X149700000Y-75650000I0J-250000D01*
G01*
X149700000Y-76350000D01*
G75*
G02*
X149450000Y-76600000I-250000J0D01*
G01*
X148550000Y-76600000D01*
G75*
G02*
X148300000Y-76350000I0J250000D01*
G01*
X148300000Y-75650000D01*
G75*
G02*
X148550000Y-75400000I250000J0D01*
G01*
G37*
G04 #@! TD.AperFunction*
G04 #@! TA.AperFunction,SMDPad,CuDef*
G36*
G01*
X120600000Y-122550000D02*
X120600000Y-123450000D01*
G75*
G02*
X120350000Y-123700000I-250000J0D01*
G01*
X119650000Y-123700000D01*
G75*
G02*
X119400000Y-123450000I0J250000D01*
G01*
X119400000Y-122550000D01*
G75*
G02*
X119650000Y-122300000I250000J0D01*
G01*
X120350000Y-122300000D01*
G75*
G02*
X120600000Y-122550000I0J-250000D01*
G01*
G37*
G04 #@! TD.AperFunction*
G04 #@! TA.AperFunction,SMDPad,CuDef*
G36*
G01*
X118600000Y-122550000D02*
X118600000Y-123450000D01*
G75*
G02*
X118350000Y-123700000I-250000J0D01*
G01*
X117650000Y-123700000D01*
G75*
G02*
X117400000Y-123450000I0J250000D01*
G01*
X117400000Y-122550000D01*
G75*
G02*
X117650000Y-122300000I250000J0D01*
G01*
X118350000Y-122300000D01*
G75*
G02*
X118600000Y-122550000I0J-250000D01*
G01*
G37*
G04 #@! TD.AperFunction*
G04 #@! TA.AperFunction,SMDPad,CuDef*
G36*
G01*
X90640000Y-140790000D02*
X91540000Y-140790000D01*
G75*
G02*
X91790000Y-141040000I0J-250000D01*
G01*
X91790000Y-141740000D01*
G75*
G02*
X91540000Y-141990000I-250000J0D01*
G01*
X90640000Y-141990000D01*
G75*
G02*
X90390000Y-141740000I0J250000D01*
G01*
X90390000Y-141040000D01*
G75*
G02*
X90640000Y-140790000I250000J0D01*
G01*
G37*
G04 #@! TD.AperFunction*
G04 #@! TA.AperFunction,SMDPad,CuDef*
G36*
G01*
X90640000Y-142790000D02*
X91540000Y-142790000D01*
G75*
G02*
X91790000Y-143040000I0J-250000D01*
G01*
X91790000Y-143740000D01*
G75*
G02*
X91540000Y-143990000I-250000J0D01*
G01*
X90640000Y-143990000D01*
G75*
G02*
X90390000Y-143740000I0J250000D01*
G01*
X90390000Y-143040000D01*
G75*
G02*
X90640000Y-142790000I250000J0D01*
G01*
G37*
G04 #@! TD.AperFunction*
D28*
X101701250Y-63250000D03*
X99301250Y-70750000D03*
D12*
X108501250Y-58500000D03*
X108501250Y-73500000D03*
D29*
X138000000Y-132015000D03*
D30*
X135460000Y-132015000D03*
X132920000Y-132015000D03*
D29*
X160080000Y-132000000D03*
D30*
X157540000Y-132000000D03*
X155000000Y-132000000D03*
D22*
X105190000Y-131985000D03*
D31*
X100110000Y-131985000D03*
D29*
X127000000Y-132015000D03*
D30*
X124460000Y-132015000D03*
X121920000Y-132015000D03*
D29*
X149080000Y-132000000D03*
D30*
X146540000Y-132000000D03*
X144000000Y-132000000D03*
D22*
X116190000Y-131985000D03*
D31*
X111110000Y-131985000D03*
D32*
X145500000Y-110000000D03*
X136500000Y-110000000D03*
X144500000Y-110000000D03*
X143500000Y-110000000D03*
X137500000Y-110000000D03*
X133500000Y-110000000D03*
X138500000Y-110000000D03*
X139500000Y-110000000D03*
X132500000Y-110000000D03*
X141500000Y-110000000D03*
X142500000Y-110000000D03*
X134500000Y-110000000D03*
X131500000Y-110000000D03*
X135500000Y-110000000D03*
X140500000Y-110000000D03*
X100000000Y-139000000D03*
X99000000Y-139000000D03*
D33*
X122190000Y-142985000D03*
D32*
X87000000Y-128000000D03*
X111500000Y-127500000D03*
X116000000Y-137500000D03*
X87000000Y-143500000D03*
D33*
X121190000Y-142985000D03*
D32*
X98000000Y-139000000D03*
D33*
X124190000Y-142985000D03*
D32*
X95000000Y-126000000D03*
D33*
X125190000Y-142985000D03*
D32*
X166500000Y-93500000D03*
D33*
X123190000Y-142985000D03*
X126190000Y-142985000D03*
D32*
X110500000Y-123500000D03*
X120000000Y-124000000D03*
D34*
X146540000Y-132000000D02*
X146540000Y-129595000D01*
X146540000Y-129595000D02*
X144960000Y-128015000D01*
D35*
X161000000Y-94554314D02*
X161000000Y-98000000D01*
X169392500Y-84488629D02*
X169392500Y-89096129D01*
X165000000Y-90554314D02*
X161000000Y-94554314D01*
D36*
X165512754Y-105637246D02*
X165512754Y-110000000D01*
D34*
X144960000Y-128015000D02*
X135460000Y-128015000D01*
D35*
X161000000Y-98000000D02*
X156512754Y-102487246D01*
X165000000Y-89108629D02*
X169380000Y-89108629D01*
X169392500Y-89096129D02*
X169380000Y-89108629D01*
X156512754Y-102487246D02*
X156512754Y-103500000D01*
D36*
X167000000Y-104150000D02*
X165512754Y-105637246D01*
D35*
X165000000Y-89108629D02*
X165000000Y-90554314D01*
X169380000Y-89108629D02*
X171000000Y-89108629D01*
D34*
X135460000Y-132015000D02*
X135460000Y-128015000D01*
X127000000Y-143015000D02*
X128460000Y-141555000D01*
D35*
X154392500Y-89096129D02*
X154380000Y-89108629D01*
D34*
X120460000Y-139865000D02*
X128460000Y-139865000D01*
D37*
X94910000Y-140972500D02*
X95290000Y-141352500D01*
D35*
X153000000Y-89108629D02*
X154380000Y-89108629D01*
D38*
X160080000Y-135920000D02*
X160080000Y-132000000D01*
D35*
X156512754Y-89487246D02*
X156891371Y-89108629D01*
D38*
X155000000Y-136000000D02*
X155000000Y-132000000D01*
X157500000Y-138500000D02*
X155000000Y-136000000D01*
D35*
X154392500Y-84488629D02*
X154392500Y-89096129D01*
X156891371Y-89108629D02*
X159000000Y-89108629D01*
D37*
X166850000Y-93150000D02*
X166500000Y-93500000D01*
D35*
X156512754Y-96000000D02*
X156512754Y-89487246D01*
D34*
X128460000Y-141555000D02*
X128460000Y-139865000D01*
D35*
X154380000Y-89108629D02*
X156891371Y-89108629D01*
D37*
X94910000Y-138710000D02*
X94910000Y-140972500D01*
D38*
X157500000Y-138500000D02*
X160080000Y-135920000D01*
D37*
X169000000Y-93150000D02*
X166850000Y-93150000D01*
D34*
X121000000Y-143015000D02*
X127000000Y-143015000D01*
D37*
X91090000Y-125852500D02*
X93052500Y-125852500D01*
X93052500Y-125852500D02*
X93090000Y-125890000D01*
X93252500Y-141390000D02*
X95290000Y-143427500D01*
X91090000Y-134910000D02*
X85910000Y-134910000D01*
X91090000Y-133410000D02*
X91090000Y-134910000D01*
X91090000Y-134910000D02*
X91090000Y-141390000D01*
X85910000Y-134910000D02*
X81515000Y-130515000D01*
X93410000Y-131090000D02*
X91090000Y-133410000D01*
X93090000Y-141390000D02*
X93252500Y-141390000D01*
X94910000Y-131090000D02*
X93410000Y-131090000D01*
X91090000Y-141390000D02*
X93090000Y-141390000D01*
X81515000Y-130515000D02*
X81515000Y-126030000D01*
D36*
X94910000Y-133630000D02*
X97370000Y-133630000D01*
D34*
X94910000Y-133630000D02*
X97630000Y-133630000D01*
D36*
X97500000Y-124000000D02*
X95000000Y-121500000D01*
D34*
X98500000Y-134500000D02*
X104380000Y-134500000D01*
D38*
X105190000Y-133690000D02*
X105190000Y-131985000D01*
D36*
X97500000Y-126855000D02*
X97500000Y-124000000D01*
X84455000Y-115955000D02*
X82695000Y-115955000D01*
X96427500Y-127927500D02*
X95090000Y-127927500D01*
X97500000Y-133500000D02*
X97500000Y-129000000D01*
X96427500Y-127927500D02*
X97500000Y-126855000D01*
X105500000Y-127500000D02*
X105500000Y-123500000D01*
X95000000Y-121500000D02*
X90000000Y-121500000D01*
D38*
X107000000Y-139000000D02*
X107000000Y-135500000D01*
D34*
X104380000Y-134500000D02*
X105190000Y-133690000D01*
D38*
X107000000Y-135500000D02*
X105190000Y-133690000D01*
D36*
X105500000Y-127500000D02*
X105500000Y-131675000D01*
D34*
X97630000Y-133630000D02*
X98500000Y-134500000D01*
D36*
X90000000Y-121500000D02*
X84455000Y-115955000D01*
X97370000Y-133630000D02*
X97500000Y-133500000D01*
X97500000Y-129000000D02*
X96427500Y-127927500D01*
X105500000Y-131675000D02*
X105190000Y-131985000D01*
D37*
X113500000Y-128000000D02*
X121925000Y-128000000D01*
X121925000Y-128000000D02*
X122050000Y-127875000D01*
X109462500Y-128462500D02*
X110000000Y-129000000D01*
X110000000Y-129000000D02*
X112500000Y-129000000D01*
X109462500Y-127500000D02*
X109462500Y-128462500D01*
X107500000Y-127500000D02*
X109462500Y-127500000D01*
X112500000Y-129000000D02*
X113500000Y-128000000D01*
X124075000Y-128000000D02*
X123950000Y-127875000D01*
X126000000Y-128000000D02*
X124075000Y-128000000D01*
D36*
X168000000Y-101000000D02*
X169000000Y-101000000D01*
X167000000Y-102150000D02*
X167000000Y-102000000D01*
X167000000Y-102000000D02*
X168000000Y-101000000D01*
X167850000Y-99000000D02*
X167000000Y-98150000D01*
X169000000Y-99000000D02*
X167850000Y-99000000D01*
X168000000Y-95150000D02*
X169000000Y-95150000D01*
X167000000Y-96150000D02*
X168000000Y-95150000D01*
X147000000Y-71000000D02*
X146000000Y-71000000D01*
X149000000Y-70000000D02*
X148000000Y-70000000D01*
X148000000Y-70000000D02*
X147000000Y-71000000D01*
X147000000Y-73000000D02*
X146000000Y-73000000D01*
X148000000Y-74000000D02*
X147000000Y-73000000D01*
X149000000Y-74000000D02*
X148000000Y-74000000D01*
X147000000Y-77000000D02*
X148000000Y-76000000D01*
X146000000Y-77000000D02*
X147000000Y-77000000D01*
X148000000Y-76000000D02*
X149000000Y-76000000D01*
D37*
X89090000Y-143390000D02*
X91090000Y-143390000D01*
X84195000Y-125890000D02*
X84055000Y-126030000D01*
X87090000Y-125890000D02*
X84195000Y-125890000D01*
X89090000Y-125890000D02*
X87090000Y-125890000D01*
X116000000Y-125000000D02*
X116000000Y-123000000D01*
X118000000Y-125000000D02*
X118000000Y-123000000D01*
X118000000Y-125000000D02*
X116000000Y-123000000D01*
X93090000Y-143390000D02*
X93090000Y-145910000D01*
X93090000Y-145910000D02*
X92000000Y-147000000D01*
D34*
X89460000Y-149000000D02*
X92000000Y-149000000D01*
D37*
X92000000Y-147000000D02*
X92000000Y-149000000D01*
D35*
X127251250Y-90000000D02*
X131821250Y-85430000D01*
X111000000Y-75998750D02*
X111000000Y-88348750D01*
X108501250Y-73500000D02*
X111000000Y-75998750D01*
X101000000Y-79250000D02*
X107000000Y-79250000D01*
X101000000Y-72448750D02*
X99301250Y-70750000D01*
X102051250Y-73500000D02*
X101000000Y-72448750D01*
X112651250Y-90000000D02*
X127251250Y-90000000D01*
X101000000Y-79250000D02*
X101000000Y-72448750D01*
X108501250Y-73500000D02*
X102051250Y-73500000D01*
X111000000Y-88348750D02*
X112651250Y-90000000D01*
D36*
X143348125Y-81651875D02*
X143348125Y-82651875D01*
D35*
X165000000Y-71168629D02*
X163350000Y-69518629D01*
X140196250Y-79500000D02*
X143348125Y-82651875D01*
D36*
X146000000Y-79000000D02*
X143348125Y-81651875D01*
D35*
X143946250Y-83250000D02*
X143946250Y-85000000D01*
X153000000Y-73868629D02*
X153000000Y-76488629D01*
X159392500Y-82881129D02*
X159392500Y-84488629D01*
X154970000Y-69518629D02*
X153000000Y-71488629D01*
X143348125Y-82651875D02*
X143946250Y-83250000D01*
X163350000Y-69518629D02*
X154970000Y-69518629D01*
X165000000Y-73868629D02*
X165000000Y-71168629D01*
X153000000Y-76488629D02*
X154255686Y-77744314D01*
X131821250Y-71125000D02*
X140196250Y-79500000D01*
X131821250Y-62570000D02*
X131821250Y-71125000D01*
X153000000Y-71488629D02*
X153000000Y-73868629D01*
X154255686Y-77744314D02*
X159392500Y-82881129D01*
X147000000Y-85000000D02*
X154255686Y-77744314D01*
X143946250Y-85000000D02*
X147000000Y-85000000D01*
X88946250Y-86750000D02*
X101000000Y-86750000D01*
X81196250Y-79000000D02*
X88946250Y-86750000D01*
X107000000Y-86750000D02*
X101000000Y-86750000D01*
X92501250Y-56750000D02*
X94251250Y-58500000D01*
X116581250Y-72581250D02*
X116581250Y-85430000D01*
X101500000Y-58500000D02*
X108501250Y-58500000D01*
X108501250Y-58500000D02*
X108501250Y-64501250D01*
X101701250Y-58701250D02*
X101500000Y-58500000D01*
X108501250Y-64501250D02*
X116581250Y-72581250D01*
X101701250Y-63250000D02*
X101701250Y-58701250D01*
X94251250Y-58500000D02*
X101500000Y-58500000D01*
X149500000Y-64500000D02*
X152972500Y-64500000D01*
X152972500Y-64500000D02*
X153722500Y-65250000D01*
X120831250Y-58320000D02*
X135570000Y-58320000D01*
X116581250Y-62570000D02*
X120831250Y-58320000D01*
X135570000Y-58320000D02*
X136250000Y-59000000D01*
X136250000Y-60553750D02*
X140196250Y-64500000D01*
X140196250Y-64500000D02*
X149500000Y-64500000D01*
X136250000Y-59000000D02*
X136250000Y-60553750D01*
D36*
X149000000Y-65000000D02*
X149500000Y-64500000D01*
X149000000Y-68000000D02*
X149000000Y-65000000D01*
D35*
X171000000Y-73868629D02*
X171000000Y-71511775D01*
X171000000Y-71511775D02*
X164738225Y-65250000D01*
X171000000Y-76131370D02*
X168912741Y-78218629D01*
X164392500Y-84488629D02*
X164392500Y-78556129D01*
X164392500Y-78556129D02*
X164730000Y-78218629D01*
X164738225Y-65250000D02*
X158342500Y-65250000D01*
X161730000Y-78218629D02*
X159000000Y-75488629D01*
X171000000Y-73868629D02*
X171000000Y-76131370D01*
X164730000Y-78218629D02*
X161730000Y-78218629D01*
X159000000Y-75488629D02*
X159000000Y-73868629D01*
X168912741Y-78218629D02*
X164730000Y-78218629D01*
X92501250Y-75501250D02*
X92501250Y-79250000D01*
X86000000Y-69000000D02*
X92501250Y-75501250D01*
X81196250Y-69000000D02*
X86000000Y-69000000D01*
D37*
X130500000Y-122500000D02*
X154500000Y-122500000D01*
X129962500Y-123037500D02*
X130500000Y-122500000D01*
X155260000Y-123260000D02*
X157500000Y-123260000D01*
D38*
X169305000Y-132000000D02*
X160565000Y-123260000D01*
D37*
X129962500Y-123962500D02*
X129962500Y-123037500D01*
D38*
X157540000Y-132000000D02*
X157540000Y-123300000D01*
D37*
X154500000Y-122500000D02*
X155260000Y-123260000D01*
D34*
X144000000Y-133795000D02*
X146190000Y-135985000D01*
D38*
X157540000Y-123300000D02*
X157500000Y-123260000D01*
D37*
X127062500Y-123962500D02*
X129962500Y-123962500D01*
D34*
X152190000Y-133985000D02*
X152190000Y-129985000D01*
D38*
X160565000Y-123260000D02*
X157500000Y-123260000D01*
D34*
X152190000Y-129985000D02*
X154175000Y-128000000D01*
D37*
X126025000Y-122925000D02*
X127062500Y-123962500D01*
D34*
X154175000Y-128000000D02*
X157540000Y-128000000D01*
X150190000Y-135985000D02*
X152190000Y-133985000D01*
X146190000Y-135985000D02*
X150190000Y-135985000D01*
X144000000Y-132000000D02*
X144000000Y-133795000D01*
D35*
X138000000Y-140715000D02*
X138000000Y-135000000D01*
X166000000Y-142500000D02*
X148000000Y-142500000D01*
D34*
X138000000Y-135000000D02*
X132985000Y-135000000D01*
D35*
X148000000Y-142500000D02*
X140500000Y-135000000D01*
D34*
X132985000Y-135000000D02*
X132920000Y-134935000D01*
D35*
X166500000Y-142000000D02*
X166000000Y-142500000D01*
D34*
X124460000Y-132015000D02*
X124460000Y-133475000D01*
D35*
X169305000Y-142000000D02*
X166500000Y-142000000D01*
D34*
X138000000Y-132015000D02*
X138000000Y-135000000D01*
D35*
X135460000Y-143255000D02*
X138000000Y-140715000D01*
X140500000Y-135000000D02*
X138000000Y-135000000D01*
D34*
X125920000Y-134935000D02*
X132920000Y-134935000D01*
X132920000Y-132015000D02*
X132920000Y-134935000D01*
X124460000Y-133475000D02*
X125920000Y-134935000D01*
D37*
X128485000Y-132015000D02*
X130000000Y-130500000D01*
X127000000Y-132015000D02*
X128485000Y-132015000D01*
D36*
X149080000Y-132000000D02*
X149080000Y-130095000D01*
X149080000Y-130095000D02*
X149190000Y-129985000D01*
D37*
X87290000Y-138710000D02*
X87290000Y-141152500D01*
X87290000Y-141152500D02*
X87090000Y-141352500D01*
X89052500Y-141352500D02*
X89090000Y-141390000D01*
X87090000Y-141352500D02*
X89052500Y-141352500D01*
X89090000Y-128790000D02*
X88790000Y-129090000D01*
X85790000Y-130090000D02*
X85790000Y-133090000D01*
X86790000Y-129090000D02*
X85790000Y-130090000D01*
X89090000Y-127890000D02*
X89090000Y-128790000D01*
X85790000Y-133090000D02*
X86330000Y-133630000D01*
X86330000Y-133630000D02*
X87290000Y-133630000D01*
X88790000Y-129090000D02*
X86790000Y-129090000D01*
X91090000Y-127927500D02*
X89127500Y-127927500D01*
X89127500Y-127927500D02*
X89090000Y-127890000D01*
X87000000Y-147000000D02*
X87000000Y-150000000D01*
X114635000Y-139865000D02*
X111000000Y-143500000D01*
X88500000Y-151500000D02*
X93500000Y-151500000D01*
X116000000Y-139865000D02*
X114635000Y-139865000D01*
X87290000Y-136170000D02*
X85500000Y-137960000D01*
X111000000Y-143500000D02*
X99000000Y-143500000D01*
X85500000Y-137960000D02*
X85500000Y-145500000D01*
X118000000Y-139865000D02*
X116000000Y-139865000D01*
X87000000Y-150000000D02*
X88500000Y-151500000D01*
X85500000Y-145500000D02*
X87000000Y-147000000D01*
X93500000Y-151500000D02*
X94540000Y-150460000D01*
X94540000Y-147960000D02*
X94540000Y-149000000D01*
X99000000Y-143500000D02*
X94540000Y-147960000D01*
X94540000Y-150460000D02*
X94540000Y-149000000D01*
D34*
X128460000Y-137865000D02*
X120460000Y-137865000D01*
X121920000Y-132015000D02*
X120460000Y-133475000D01*
D37*
X118000000Y-137865000D02*
X120460000Y-137865000D01*
D34*
X120460000Y-133475000D02*
X120460000Y-137865000D01*
D37*
X90790000Y-131090000D02*
X87290000Y-131090000D01*
X93660000Y-132340000D02*
X96160000Y-132340000D01*
X93090000Y-127890000D02*
X93090000Y-128790000D01*
X93090000Y-128790000D02*
X90790000Y-131090000D01*
X96420000Y-134920000D02*
X93420000Y-134920000D01*
X96500000Y-132000000D02*
X96500000Y-130500000D01*
X93000000Y-134500000D02*
X93000000Y-133000000D01*
X103500000Y-140010050D02*
X103500000Y-137500000D01*
X93420000Y-134920000D02*
X93000000Y-134500000D01*
X102000000Y-136000000D02*
X97500000Y-136000000D01*
X109000000Y-141500000D02*
X104989950Y-141500000D01*
X104989950Y-141500000D02*
X103500000Y-140010050D01*
X97500000Y-136000000D02*
X96420000Y-134920000D01*
X110000000Y-140500000D02*
X109000000Y-141500000D01*
X103500000Y-137500000D02*
X102000000Y-136000000D01*
X96500000Y-130500000D02*
X95500000Y-129500000D01*
X110000000Y-133095000D02*
X110000000Y-140500000D01*
X95500000Y-129500000D02*
X93800000Y-129500000D01*
X111110000Y-131985000D02*
X110000000Y-133095000D01*
X93800000Y-129500000D02*
X93090000Y-128790000D01*
X93000000Y-133000000D02*
X93660000Y-132340000D01*
X96160000Y-132340000D02*
X96500000Y-132000000D01*
D36*
X101500000Y-126000000D02*
X102500000Y-127000000D01*
X102500000Y-130000000D02*
X100515000Y-131985000D01*
X100515000Y-131985000D02*
X100110000Y-131985000D01*
X102500000Y-127000000D02*
X102500000Y-130000000D01*
X99980000Y-126000000D02*
X101500000Y-126000000D01*
D37*
X114000000Y-125000000D02*
X114000000Y-123000000D01*
X114000000Y-123000000D02*
X115500000Y-121500000D01*
X120500000Y-126500000D02*
X121000000Y-126000000D01*
X114000000Y-125000000D02*
X115500000Y-126500000D01*
X115500000Y-121500000D02*
X122000000Y-121500000D01*
X121000000Y-126000000D02*
X123000000Y-126000000D01*
X115500000Y-126500000D02*
X120500000Y-126500000D01*
X122000000Y-121500000D02*
X126562500Y-121500000D01*
X122087500Y-121587500D02*
X122000000Y-121500000D01*
X126562500Y-121500000D02*
X128025000Y-122962500D01*
X128087500Y-125587500D02*
X128500000Y-126000000D01*
X125037500Y-126037500D02*
X127462500Y-126037500D01*
X128087500Y-124912500D02*
X128087500Y-125587500D01*
X133000000Y-124000000D02*
X147000000Y-124000000D01*
X128087500Y-125412500D02*
X128087500Y-124912500D01*
X149190000Y-126190000D02*
X149190000Y-127985000D01*
X147000000Y-124000000D02*
X149190000Y-126190000D01*
X131000000Y-126000000D02*
X133000000Y-124000000D01*
X128500000Y-126000000D02*
X131000000Y-126000000D01*
X122062500Y-123950000D02*
X122950000Y-123950000D01*
X127462500Y-126037500D02*
X128087500Y-125412500D01*
X122950000Y-123950000D02*
X125037500Y-126037500D01*
X128000000Y-128500000D02*
X127350000Y-129150000D01*
X97000000Y-137000000D02*
X96170000Y-136170000D01*
X114000000Y-130000000D02*
X114000000Y-133000000D01*
X110000000Y-142500000D02*
X104000000Y-142500000D01*
X128000000Y-128000000D02*
X128000000Y-128500000D01*
X111500000Y-141000000D02*
X110000000Y-142500000D01*
X114850000Y-129150000D02*
X114000000Y-130000000D01*
X104000000Y-142500000D02*
X102000000Y-140500000D01*
X130000000Y-128500000D02*
X128500000Y-128500000D01*
X102000000Y-140500000D02*
X102000000Y-137500000D01*
X96170000Y-136170000D02*
X94910000Y-136170000D01*
X111500000Y-135500000D02*
X111500000Y-141000000D01*
X128500000Y-128500000D02*
X128000000Y-128000000D01*
X114000000Y-133000000D02*
X111500000Y-135500000D01*
X101500000Y-137000000D02*
X97000000Y-137000000D01*
X127350000Y-129150000D02*
X114850000Y-129150000D01*
X102000000Y-137500000D02*
X101500000Y-137000000D01*
X123937500Y-123000000D02*
X120000000Y-123000000D01*
X123937500Y-123437500D02*
X123937500Y-123000000D01*
X126025000Y-125000000D02*
X125500000Y-125000000D01*
X120000000Y-125000000D02*
X120000000Y-123000000D01*
X125500000Y-125000000D02*
X123937500Y-123437500D01*
G04 #@! TA.AperFunction,Conductor*
G36*
X161933893Y-101020213D02*
G01*
X162063088Y-101079214D01*
X162146154Y-101146154D01*
X167853846Y-106853846D01*
X167938962Y-106967547D01*
X167988596Y-107100622D01*
X168000000Y-107206692D01*
X168000000Y-112501000D01*
X167979787Y-112641585D01*
X167920786Y-112770780D01*
X167827776Y-112878119D01*
X167708292Y-112954906D01*
X167572015Y-112994921D01*
X167501000Y-113000000D01*
X90206692Y-113000000D01*
X90066107Y-112979787D01*
X89936912Y-112920786D01*
X89853846Y-112853846D01*
X82146154Y-105146154D01*
X82061038Y-105032453D01*
X82011404Y-104899378D01*
X82000000Y-104793308D01*
X82000000Y-101499000D01*
X82020213Y-101358415D01*
X82079214Y-101229220D01*
X82172224Y-101121881D01*
X82291708Y-101045094D01*
X82427985Y-101005079D01*
X82499000Y-101000000D01*
X161793308Y-101000000D01*
X161933893Y-101020213D01*
G37*
G04 #@! TD.AperFunction*
M02*
