M48
; FORMAT={-:-/ absolute / metric / decimal}
; #@! TF.GenerationSoftware,Kicad,Pcbnew,6.0.10+dfsg-1~bpo11+1
; #@! TF.FileFunction,Plated,1,2,PTH
FMAT,2
METRIC
; #@! TA.AperFunction,Plated,PTH,ViaDrill
T1C0.300
; #@! TA.AperFunction,Plated,PTH,ViaDrill
T2C0.600
; #@! TA.AperFunction,Plated,PTH,ComponentDrill
T3C0.600
; #@! TA.AperFunction,Plated,PTH,ComponentDrill
T4C0.800
; #@! TA.AperFunction,Plated,PTH,ComponentDrill
T5C1.000
; #@! TA.AperFunction,Plated,PTH,ComponentDrill
T6C1.100
; #@! TA.AperFunction,Plated,PTH,ComponentDrill
T7C1.190
; #@! TA.AperFunction,Plated,PTH,ComponentDrill
T8C1.200
; #@! TA.AperFunction,Plated,PTH,ComponentDrill
T9C1.300
; #@! TA.AperFunction,Plated,PTH,ComponentDrill
T10C1.500
; #@! TA.AperFunction,Plated,PTH,ComponentDrill
T11C1.600
; #@! TA.AperFunction,Plated,PTH,ComponentDrill
T12C1.750
; #@! TA.AperFunction,Plated,PTH,ComponentDrill
T13C4.300
%
G90
G05
T1
X87.0Y-128.0
X87.0Y-143.5
X95.0Y-126.0
X98.0Y-139.0
X99.0Y-139.0
X100.0Y-139.0
X110.5Y-123.5
X111.5Y-127.5
X116.0Y-137.5
X120.0Y-124.0
X131.5Y-110.0
X132.5Y-110.0
X133.5Y-110.0
X134.5Y-110.0
X135.5Y-110.0
X136.5Y-110.0
X137.5Y-110.0
X138.5Y-110.0
X139.5Y-110.0
X140.5Y-110.0
X141.5Y-110.0
X142.5Y-110.0
X143.5Y-110.0
X144.5Y-110.0
X145.5Y-110.0
X166.5Y-93.5
T2
X121.19Y-142.985
X122.19Y-142.985
X123.19Y-142.985
X124.19Y-142.985
X125.19Y-142.985
X126.19Y-142.985
T3
X76.775Y-60.0
X76.775Y-150.0
X77.72Y-57.72
X77.72Y-62.28
X77.72Y-147.72
X77.72Y-152.28
X80.0Y-56.775
X80.0Y-63.225
X80.0Y-146.775
X80.0Y-153.225
X82.28Y-57.72
X82.28Y-62.28
X82.28Y-147.72
X82.28Y-152.28
X83.225Y-60.0
X83.225Y-150.0
X166.775Y-60.0
X166.775Y-150.0
X167.72Y-57.72
X167.72Y-62.28
X167.72Y-147.72
X167.72Y-152.28
X170.0Y-56.775
X170.0Y-63.225
X170.0Y-146.775
X170.0Y-153.225
X172.28Y-57.72
X172.28Y-62.28
X172.28Y-147.72
X172.28Y-152.28
X173.225Y-60.0
X173.225Y-150.0
T4
X81.515Y-126.03
X81.515Y-136.19
X84.055Y-126.03
X84.055Y-136.19
X87.29Y-131.09
X87.29Y-133.63
X87.29Y-136.17
X87.29Y-138.71
X89.46Y-149.0
X92.0Y-149.0
X94.54Y-149.0
X94.91Y-131.09
X94.91Y-133.63
X94.91Y-136.17
X94.91Y-138.71
X99.301Y-70.75
X101.701Y-63.25
T5
X101.0Y-79.25
X101.0Y-86.75
X107.0Y-79.25
X107.0Y-86.75
X136.25Y-59.0
X136.446Y-85.0
X143.75Y-59.0
X143.946Y-85.0
X154.392Y-84.489
X159.392Y-84.489
X164.392Y-84.489
X169.392Y-84.489
T6
X100.11Y-131.985
X105.19Y-131.985
X111.11Y-131.985
X116.19Y-131.985
X121.92Y-132.015
X124.46Y-132.015
X127.0Y-132.015
X132.92Y-132.015
X135.46Y-132.015
X138.0Y-132.015
X144.0Y-132.0
X146.54Y-132.0
X149.08Y-132.0
X155.0Y-132.0
X157.54Y-132.0
X160.08Y-132.0
T7
X99.98Y-123.46
X99.98Y-126.0
X99.98Y-128.54
T8
X84.756Y-96.0
X84.756Y-103.5
X93.513Y-110.0
X93.513Y-117.5
X102.513Y-96.0
X102.513Y-103.5
X108.501Y-58.5
X108.501Y-73.5
X111.513Y-110.0
X111.513Y-117.5
X120.513Y-96.0
X120.513Y-103.5
X129.513Y-110.0
X129.513Y-117.5
X138.513Y-96.0
X138.513Y-103.5
X140.196Y-64.5
X140.196Y-79.5
X147.513Y-110.0
X147.513Y-117.5
X156.513Y-96.0
X156.513Y-103.5
X165.513Y-110.0
X165.513Y-117.5
T9
X81.196Y-69.0
X81.196Y-74.0
X81.196Y-79.0
X82.695Y-115.955
X82.695Y-121.035
X92.501Y-56.75
X92.501Y-79.25
X169.305Y-132.0
X169.305Y-137.0
X169.305Y-142.0
T10
X116.581Y-62.57
X116.581Y-85.43
X131.821Y-62.57
X131.821Y-85.43
T11
X135.46Y-128.015
X135.46Y-143.255
X153.0Y-73.869
X153.0Y-89.109
X157.5Y-123.26
X157.5Y-138.5
X159.0Y-73.869
X159.0Y-89.109
X165.0Y-73.869
X165.0Y-89.109
X171.0Y-73.869
X171.0Y-89.109
T12
X154.093Y-65.25
X157.972Y-65.25
T13
X80.0Y-60.0
X80.0Y-150.0
X170.0Y-60.0
X170.0Y-150.0
T0
M30
