%TF.GenerationSoftware,KiCad,Pcbnew,6.0.10+dfsg-1~bpo11+1*%
%TF.ProjectId,project,70726f6a-6563-4742-9e6b-696361645f70,1.0.p1*%
%TF.SameCoordinates,Original*%
%TF.FileFunction,Drillmap*%
%TF.FilePolarity,Positive*%
%FSLAX45Y45*%
G04 Gerber Fmt 4.5, Leading zero omitted, Abs format (unit mm)*
%MOMM*%
%LPD*%
G01*
G04 APERTURE LIST*
%ADD10C,0.100000*%
%ADD11C,0.200000*%
%ADD12C,0.030000*%
%ADD13C,0.060000*%
%ADD14C,0.080000*%
%ADD15C,0.110000*%
%ADD16C,0.119000*%
%ADD17C,0.120000*%
%ADD18C,0.130000*%
%ADD19C,0.150000*%
%ADD20C,0.160000*%
%ADD21C,0.175000*%
%ADD22C,0.430000*%
G04 APERTURE END LIST*
D10*
X8000000Y-5500000D02*
X17000000Y-5500000D01*
X17500000Y-6000000D02*
X17500000Y-15000000D01*
X17000000Y-15500000D02*
G75*
G03*
X17500000Y-15000000I0J500000D01*
G01*
X17000000Y-15500000D02*
X8000000Y-15500000D01*
X7500000Y-15000000D02*
G75*
G03*
X8000000Y-15500000I500000J0D01*
G01*
X8000000Y-5500000D02*
G75*
G03*
X7500000Y-6000000I0J-500000D01*
G01*
X17500000Y-6000000D02*
G75*
G03*
X17000000Y-5500000I-500000J0D01*
G01*
X7500000Y-15000000D02*
X7500000Y-6000000D01*
D11*
D12*
X8685000Y-12785000D02*
X8715000Y-12815000D01*
X8715000Y-12785000D02*
X8685000Y-12815000D01*
X8685000Y-14335000D02*
X8715000Y-14365000D01*
X8715000Y-14335000D02*
X8685000Y-14365000D01*
X9485000Y-12585000D02*
X9515000Y-12615000D01*
X9515000Y-12585000D02*
X9485000Y-12615000D01*
X9785000Y-13885000D02*
X9815000Y-13915000D01*
X9815000Y-13885000D02*
X9785000Y-13915000D01*
X9885000Y-13885000D02*
X9915000Y-13915000D01*
X9915000Y-13885000D02*
X9885000Y-13915000D01*
X9985000Y-13885000D02*
X10015000Y-13915000D01*
X10015000Y-13885000D02*
X9985000Y-13915000D01*
X11035000Y-12335000D02*
X11065000Y-12365000D01*
X11065000Y-12335000D02*
X11035000Y-12365000D01*
X11135000Y-12735000D02*
X11165000Y-12765000D01*
X11165000Y-12735000D02*
X11135000Y-12765000D01*
X11585000Y-13735000D02*
X11615000Y-13765000D01*
X11615000Y-13735000D02*
X11585000Y-13765000D01*
X11985000Y-12385000D02*
X12015000Y-12415000D01*
X12015000Y-12385000D02*
X11985000Y-12415000D01*
X13135000Y-10985000D02*
X13165000Y-11015000D01*
X13165000Y-10985000D02*
X13135000Y-11015000D01*
X13235000Y-10985000D02*
X13265000Y-11015000D01*
X13265000Y-10985000D02*
X13235000Y-11015000D01*
X13335000Y-10985000D02*
X13365000Y-11015000D01*
X13365000Y-10985000D02*
X13335000Y-11015000D01*
X13435000Y-10985000D02*
X13465000Y-11015000D01*
X13465000Y-10985000D02*
X13435000Y-11015000D01*
X13535000Y-10985000D02*
X13565000Y-11015000D01*
X13565000Y-10985000D02*
X13535000Y-11015000D01*
X13635000Y-10985000D02*
X13665000Y-11015000D01*
X13665000Y-10985000D02*
X13635000Y-11015000D01*
X13735000Y-10985000D02*
X13765000Y-11015000D01*
X13765000Y-10985000D02*
X13735000Y-11015000D01*
X13835000Y-10985000D02*
X13865000Y-11015000D01*
X13865000Y-10985000D02*
X13835000Y-11015000D01*
X13935000Y-10985000D02*
X13965000Y-11015000D01*
X13965000Y-10985000D02*
X13935000Y-11015000D01*
X14035000Y-10985000D02*
X14065000Y-11015000D01*
X14065000Y-10985000D02*
X14035000Y-11015000D01*
X14135000Y-10985000D02*
X14165000Y-11015000D01*
X14165000Y-10985000D02*
X14135000Y-11015000D01*
X14235000Y-10985000D02*
X14265000Y-11015000D01*
X14265000Y-10985000D02*
X14235000Y-11015000D01*
X14335000Y-10985000D02*
X14365000Y-11015000D01*
X14365000Y-10985000D02*
X14335000Y-11015000D01*
X14435000Y-10985000D02*
X14465000Y-11015000D01*
X14465000Y-10985000D02*
X14435000Y-11015000D01*
X14535000Y-10985000D02*
X14565000Y-11015000D01*
X14565000Y-10985000D02*
X14535000Y-11015000D01*
X16635000Y-9335000D02*
X16665000Y-9365000D01*
X16665000Y-9335000D02*
X16635000Y-9365000D01*
D13*
X12149000Y-14298500D02*
G75*
G03*
X12149000Y-14298500I-30000J0D01*
G01*
X12249000Y-14298500D02*
G75*
G03*
X12249000Y-14298500I-30000J0D01*
G01*
X12349000Y-14298500D02*
G75*
G03*
X12349000Y-14298500I-30000J0D01*
G01*
X12449000Y-14298500D02*
G75*
G03*
X12449000Y-14298500I-30000J0D01*
G01*
X12549000Y-14298500D02*
G75*
G03*
X12549000Y-14298500I-30000J0D01*
G01*
X12649000Y-14298500D02*
G75*
G03*
X12649000Y-14298500I-30000J0D01*
G01*
X7677500Y-5970000D02*
X7677500Y-6030000D01*
X7647500Y-6000000D02*
X7707500Y-6000000D01*
X7677500Y-14970000D02*
X7677500Y-15030000D01*
X7647500Y-15000000D02*
X7707500Y-15000000D01*
X7771958Y-5741958D02*
X7771958Y-5801958D01*
X7741958Y-5771958D02*
X7801958Y-5771958D01*
X7771958Y-6198042D02*
X7771958Y-6258042D01*
X7741958Y-6228042D02*
X7801958Y-6228042D01*
X7771958Y-14741958D02*
X7771958Y-14801958D01*
X7741958Y-14771958D02*
X7801958Y-14771958D01*
X7771958Y-15198042D02*
X7771958Y-15258042D01*
X7741958Y-15228042D02*
X7801958Y-15228042D01*
X8000000Y-5647500D02*
X8000000Y-5707500D01*
X7970000Y-5677500D02*
X8030000Y-5677500D01*
X8000000Y-6292500D02*
X8000000Y-6352500D01*
X7970000Y-6322500D02*
X8030000Y-6322500D01*
X8000000Y-14647500D02*
X8000000Y-14707500D01*
X7970000Y-14677500D02*
X8030000Y-14677500D01*
X8000000Y-15292500D02*
X8000000Y-15352500D01*
X7970000Y-15322500D02*
X8030000Y-15322500D01*
X8228042Y-5741958D02*
X8228042Y-5801958D01*
X8198042Y-5771958D02*
X8258042Y-5771958D01*
X8228042Y-6198042D02*
X8228042Y-6258042D01*
X8198042Y-6228042D02*
X8258042Y-6228042D01*
X8228042Y-14741958D02*
X8228042Y-14801958D01*
X8198042Y-14771958D02*
X8258042Y-14771958D01*
X8228042Y-15198042D02*
X8228042Y-15258042D01*
X8198042Y-15228042D02*
X8258042Y-15228042D01*
X8322500Y-5970000D02*
X8322500Y-6030000D01*
X8292500Y-6000000D02*
X8352500Y-6000000D01*
X8322500Y-14970000D02*
X8322500Y-15030000D01*
X8292500Y-15000000D02*
X8352500Y-15000000D01*
X16677500Y-5970000D02*
X16677500Y-6030000D01*
X16647500Y-6000000D02*
X16707500Y-6000000D01*
X16677500Y-14970000D02*
X16677500Y-15030000D01*
X16647500Y-15000000D02*
X16707500Y-15000000D01*
X16771958Y-5741958D02*
X16771958Y-5801958D01*
X16741958Y-5771958D02*
X16801958Y-5771958D01*
X16771958Y-6198042D02*
X16771958Y-6258042D01*
X16741958Y-6228042D02*
X16801958Y-6228042D01*
X16771958Y-14741958D02*
X16771958Y-14801958D01*
X16741958Y-14771958D02*
X16801958Y-14771958D01*
X16771958Y-15198042D02*
X16771958Y-15258042D01*
X16741958Y-15228042D02*
X16801958Y-15228042D01*
X17000000Y-5647500D02*
X17000000Y-5707500D01*
X16970000Y-5677500D02*
X17030000Y-5677500D01*
X17000000Y-6292500D02*
X17000000Y-6352500D01*
X16970000Y-6322500D02*
X17030000Y-6322500D01*
X17000000Y-14647500D02*
X17000000Y-14707500D01*
X16970000Y-14677500D02*
X17030000Y-14677500D01*
X17000000Y-15292500D02*
X17000000Y-15352500D01*
X16970000Y-15322500D02*
X17030000Y-15322500D01*
X17228042Y-5741958D02*
X17228042Y-5801958D01*
X17198042Y-5771958D02*
X17258042Y-5771958D01*
X17228042Y-6198042D02*
X17228042Y-6258042D01*
X17198042Y-6228042D02*
X17258042Y-6228042D01*
X17228042Y-14741958D02*
X17228042Y-14801958D01*
X17198042Y-14771958D02*
X17258042Y-14771958D01*
X17228042Y-15198042D02*
X17228042Y-15258042D01*
X17198042Y-15228042D02*
X17258042Y-15228042D01*
X17322500Y-5970000D02*
X17322500Y-6030000D01*
X17292500Y-6000000D02*
X17352500Y-6000000D01*
X17322500Y-14970000D02*
X17322500Y-15030000D01*
X17292500Y-15000000D02*
X17352500Y-15000000D01*
D14*
X8179784Y-12631284D02*
X8179784Y-12574715D01*
X8123215Y-12574715D01*
X8123215Y-12631284D01*
X8179784Y-12631284D01*
X8179784Y-13647284D02*
X8179784Y-13590715D01*
X8123215Y-13590715D01*
X8123215Y-13647284D01*
X8179784Y-13647284D01*
X8433785Y-12631284D02*
X8433785Y-12574715D01*
X8377215Y-12574715D01*
X8377215Y-12631284D01*
X8433785Y-12631284D01*
X8433785Y-13647284D02*
X8433785Y-13590715D01*
X8377215Y-13590715D01*
X8377215Y-13647284D01*
X8433785Y-13647284D01*
X8757285Y-13137284D02*
X8757285Y-13080715D01*
X8700716Y-13080715D01*
X8700716Y-13137284D01*
X8757285Y-13137284D01*
X8757285Y-13391284D02*
X8757285Y-13334715D01*
X8700716Y-13334715D01*
X8700716Y-13391284D01*
X8757285Y-13391284D01*
X8757285Y-13645284D02*
X8757285Y-13588715D01*
X8700716Y-13588715D01*
X8700716Y-13645284D01*
X8757285Y-13645284D01*
X8757285Y-13899284D02*
X8757285Y-13842715D01*
X8700716Y-13842715D01*
X8700716Y-13899284D01*
X8757285Y-13899284D01*
X8974285Y-14928284D02*
X8974285Y-14871715D01*
X8917716Y-14871715D01*
X8917716Y-14928284D01*
X8974285Y-14928284D01*
X9228285Y-14928284D02*
X9228285Y-14871715D01*
X9171716Y-14871715D01*
X9171716Y-14928284D01*
X9228285Y-14928284D01*
X9482285Y-14928284D02*
X9482285Y-14871715D01*
X9425716Y-14871715D01*
X9425716Y-14928284D01*
X9482285Y-14928284D01*
X9519285Y-13137284D02*
X9519285Y-13080715D01*
X9462716Y-13080715D01*
X9462716Y-13137284D01*
X9519285Y-13137284D01*
X9519285Y-13391284D02*
X9519285Y-13334715D01*
X9462716Y-13334715D01*
X9462716Y-13391284D01*
X9519285Y-13391284D01*
X9519285Y-13645284D02*
X9519285Y-13588715D01*
X9462716Y-13588715D01*
X9462716Y-13645284D01*
X9519285Y-13645284D01*
X9519285Y-13899284D02*
X9519285Y-13842715D01*
X9462716Y-13842715D01*
X9462716Y-13899284D01*
X9519285Y-13899284D01*
X9958410Y-7103284D02*
X9958410Y-7046715D01*
X9901841Y-7046715D01*
X9901841Y-7103284D01*
X9958410Y-7103284D01*
X10198410Y-6353284D02*
X10198410Y-6296715D01*
X10141841Y-6296715D01*
X10141841Y-6353284D01*
X10198410Y-6353284D01*
D10*
X10100000Y-7975000D02*
X10150000Y-7925000D01*
X10100000Y-7875000D01*
X10050000Y-7925000D01*
X10100000Y-7975000D01*
X10100000Y-8725000D02*
X10150000Y-8675000D01*
X10100000Y-8625000D01*
X10050000Y-8675000D01*
X10100000Y-8725000D01*
X10700000Y-7975000D02*
X10750000Y-7925000D01*
X10700000Y-7875000D01*
X10650000Y-7925000D01*
X10700000Y-7975000D01*
X10700000Y-8725000D02*
X10750000Y-8675000D01*
X10700000Y-8625000D01*
X10650000Y-8675000D01*
X10700000Y-8725000D01*
X13625000Y-5950000D02*
X13675000Y-5900000D01*
X13625000Y-5850000D01*
X13575000Y-5900000D01*
X13625000Y-5950000D01*
X13644625Y-8550000D02*
X13694625Y-8500000D01*
X13644625Y-8450000D01*
X13594625Y-8500000D01*
X13644625Y-8550000D01*
X14375000Y-5950000D02*
X14425000Y-5900000D01*
X14375000Y-5850000D01*
X14325000Y-5900000D01*
X14375000Y-5950000D01*
X14394625Y-8550000D02*
X14444625Y-8500000D01*
X14394625Y-8450000D01*
X14344625Y-8500000D01*
X14394625Y-8550000D01*
X15439250Y-8498863D02*
X15489250Y-8448863D01*
X15439250Y-8398863D01*
X15389250Y-8448863D01*
X15439250Y-8498863D01*
X15939250Y-8498863D02*
X15989250Y-8448863D01*
X15939250Y-8398863D01*
X15889250Y-8448863D01*
X15939250Y-8498863D01*
X16439250Y-8498863D02*
X16489250Y-8448863D01*
X16439250Y-8398863D01*
X16389250Y-8448863D01*
X16439250Y-8498863D01*
X16939250Y-8498863D02*
X16989250Y-8448863D01*
X16939250Y-8398863D01*
X16889250Y-8448863D01*
X16939250Y-8498863D01*
D15*
X9956000Y-13143500D02*
X10066000Y-13253500D01*
X10066000Y-13143500D02*
X9956000Y-13253500D01*
X10066000Y-13198500D02*
G75*
G03*
X10066000Y-13198500I-55000J0D01*
G01*
X10464000Y-13143500D02*
X10574000Y-13253500D01*
X10574000Y-13143500D02*
X10464000Y-13253500D01*
X10574000Y-13198500D02*
G75*
G03*
X10574000Y-13198500I-55000J0D01*
G01*
X11056000Y-13143500D02*
X11166000Y-13253500D01*
X11166000Y-13143500D02*
X11056000Y-13253500D01*
X11166000Y-13198500D02*
G75*
G03*
X11166000Y-13198500I-55000J0D01*
G01*
X11564000Y-13143500D02*
X11674000Y-13253500D01*
X11674000Y-13143500D02*
X11564000Y-13253500D01*
X11674000Y-13198500D02*
G75*
G03*
X11674000Y-13198500I-55000J0D01*
G01*
X12137000Y-13146500D02*
X12247000Y-13256500D01*
X12247000Y-13146500D02*
X12137000Y-13256500D01*
X12247000Y-13201500D02*
G75*
G03*
X12247000Y-13201500I-55000J0D01*
G01*
X12391000Y-13146500D02*
X12501000Y-13256500D01*
X12501000Y-13146500D02*
X12391000Y-13256500D01*
X12501000Y-13201500D02*
G75*
G03*
X12501000Y-13201500I-55000J0D01*
G01*
X12645000Y-13146500D02*
X12755000Y-13256500D01*
X12755000Y-13146500D02*
X12645000Y-13256500D01*
X12755000Y-13201500D02*
G75*
G03*
X12755000Y-13201500I-55000J0D01*
G01*
X13237000Y-13146500D02*
X13347000Y-13256500D01*
X13347000Y-13146500D02*
X13237000Y-13256500D01*
X13347000Y-13201500D02*
G75*
G03*
X13347000Y-13201500I-55000J0D01*
G01*
X13491000Y-13146500D02*
X13601000Y-13256500D01*
X13601000Y-13146500D02*
X13491000Y-13256500D01*
X13601000Y-13201500D02*
G75*
G03*
X13601000Y-13201500I-55000J0D01*
G01*
X13745000Y-13146500D02*
X13855000Y-13256500D01*
X13855000Y-13146500D02*
X13745000Y-13256500D01*
X13855000Y-13201500D02*
G75*
G03*
X13855000Y-13201500I-55000J0D01*
G01*
X14345000Y-13145000D02*
X14455000Y-13255000D01*
X14455000Y-13145000D02*
X14345000Y-13255000D01*
X14455000Y-13200000D02*
G75*
G03*
X14455000Y-13200000I-55000J0D01*
G01*
X14599000Y-13145000D02*
X14709000Y-13255000D01*
X14709000Y-13145000D02*
X14599000Y-13255000D01*
X14709000Y-13200000D02*
G75*
G03*
X14709000Y-13200000I-55000J0D01*
G01*
X14853000Y-13145000D02*
X14963000Y-13255000D01*
X14963000Y-13145000D02*
X14853000Y-13255000D01*
X14963000Y-13200000D02*
G75*
G03*
X14963000Y-13200000I-55000J0D01*
G01*
X15445000Y-13145000D02*
X15555000Y-13255000D01*
X15555000Y-13145000D02*
X15445000Y-13255000D01*
X15555000Y-13200000D02*
G75*
G03*
X15555000Y-13200000I-55000J0D01*
G01*
X15699000Y-13145000D02*
X15809000Y-13255000D01*
X15809000Y-13145000D02*
X15699000Y-13255000D01*
X15809000Y-13200000D02*
G75*
G03*
X15809000Y-13200000I-55000J0D01*
G01*
X15953000Y-13145000D02*
X16063000Y-13255000D01*
X16063000Y-13145000D02*
X15953000Y-13255000D01*
X16063000Y-13200000D02*
G75*
G03*
X16063000Y-13200000I-55000J0D01*
G01*
D16*
X9938500Y-12286500D02*
X10057500Y-12405500D01*
X10057500Y-12286500D02*
X9938500Y-12405500D01*
X9998000Y-12286500D02*
X9998000Y-12405500D01*
X9938500Y-12346000D02*
X10057500Y-12346000D01*
X9938500Y-12540500D02*
X10057500Y-12659500D01*
X10057500Y-12540500D02*
X9938500Y-12659500D01*
X9998000Y-12540500D02*
X9998000Y-12659500D01*
X9938500Y-12600000D02*
X10057500Y-12600000D01*
X9938500Y-12794500D02*
X10057500Y-12913500D01*
X10057500Y-12794500D02*
X9938500Y-12913500D01*
X9998000Y-12794500D02*
X9998000Y-12913500D01*
X9938500Y-12854000D02*
X10057500Y-12854000D01*
D17*
X8415638Y-9540000D02*
X8535638Y-9660000D01*
X8535638Y-9540000D02*
X8415638Y-9660000D01*
X8518065Y-9642427D02*
X8518065Y-9557573D01*
X8433211Y-9557573D01*
X8433211Y-9642427D01*
X8518065Y-9642427D01*
X8415638Y-10290000D02*
X8535638Y-10410000D01*
X8535638Y-10290000D02*
X8415638Y-10410000D01*
X8518065Y-10392427D02*
X8518065Y-10307573D01*
X8433211Y-10307573D01*
X8433211Y-10392427D01*
X8518065Y-10392427D01*
X9291275Y-10940000D02*
X9411275Y-11060000D01*
X9411275Y-10940000D02*
X9291275Y-11060000D01*
X9393702Y-11042427D02*
X9393702Y-10957573D01*
X9308849Y-10957573D01*
X9308849Y-11042427D01*
X9393702Y-11042427D01*
X9291275Y-11690000D02*
X9411275Y-11810000D01*
X9411275Y-11690000D02*
X9291275Y-11810000D01*
X9393702Y-11792427D02*
X9393702Y-11707573D01*
X9308849Y-11707573D01*
X9308849Y-11792427D01*
X9393702Y-11792427D01*
X10191275Y-9540000D02*
X10311275Y-9660000D01*
X10311275Y-9540000D02*
X10191275Y-9660000D01*
X10293702Y-9642427D02*
X10293702Y-9557573D01*
X10208849Y-9557573D01*
X10208849Y-9642427D01*
X10293702Y-9642427D01*
X10191275Y-10290000D02*
X10311275Y-10410000D01*
X10311275Y-10290000D02*
X10191275Y-10410000D01*
X10293702Y-10392427D02*
X10293702Y-10307573D01*
X10208849Y-10307573D01*
X10208849Y-10392427D01*
X10293702Y-10392427D01*
X10790125Y-5790000D02*
X10910125Y-5910000D01*
X10910125Y-5790000D02*
X10790125Y-5910000D01*
X10892552Y-5892427D02*
X10892552Y-5807573D01*
X10807698Y-5807573D01*
X10807698Y-5892427D01*
X10892552Y-5892427D01*
X10790125Y-7290000D02*
X10910125Y-7410000D01*
X10910125Y-7290000D02*
X10790125Y-7410000D01*
X10892552Y-7392427D02*
X10892552Y-7307573D01*
X10807698Y-7307573D01*
X10807698Y-7392427D01*
X10892552Y-7392427D01*
X11091275Y-10940000D02*
X11211275Y-11060000D01*
X11211275Y-10940000D02*
X11091275Y-11060000D01*
X11193702Y-11042427D02*
X11193702Y-10957573D01*
X11108849Y-10957573D01*
X11108849Y-11042427D01*
X11193702Y-11042427D01*
X11091275Y-11690000D02*
X11211275Y-11810000D01*
X11211275Y-11690000D02*
X11091275Y-11810000D01*
X11193702Y-11792427D02*
X11193702Y-11707573D01*
X11108849Y-11707573D01*
X11108849Y-11792427D01*
X11193702Y-11792427D01*
X11991275Y-9540000D02*
X12111275Y-9660000D01*
X12111275Y-9540000D02*
X11991275Y-9660000D01*
X12093702Y-9642427D02*
X12093702Y-9557573D01*
X12008849Y-9557573D01*
X12008849Y-9642427D01*
X12093702Y-9642427D01*
X11991275Y-10290000D02*
X12111275Y-10410000D01*
X12111275Y-10290000D02*
X11991275Y-10410000D01*
X12093702Y-10392427D02*
X12093702Y-10307573D01*
X12008849Y-10307573D01*
X12008849Y-10392427D01*
X12093702Y-10392427D01*
X12891275Y-10940000D02*
X13011275Y-11060000D01*
X13011275Y-10940000D02*
X12891275Y-11060000D01*
X12993702Y-11042427D02*
X12993702Y-10957573D01*
X12908849Y-10957573D01*
X12908849Y-11042427D01*
X12993702Y-11042427D01*
X12891275Y-11690000D02*
X13011275Y-11810000D01*
X13011275Y-11690000D02*
X12891275Y-11810000D01*
X12993702Y-11792427D02*
X12993702Y-11707573D01*
X12908849Y-11707573D01*
X12908849Y-11792427D01*
X12993702Y-11792427D01*
X13791275Y-9540000D02*
X13911275Y-9660000D01*
X13911275Y-9540000D02*
X13791275Y-9660000D01*
X13893702Y-9642427D02*
X13893702Y-9557573D01*
X13808849Y-9557573D01*
X13808849Y-9642427D01*
X13893702Y-9642427D01*
X13791275Y-10290000D02*
X13911275Y-10410000D01*
X13911275Y-10290000D02*
X13791275Y-10410000D01*
X13893702Y-10392427D02*
X13893702Y-10307573D01*
X13808849Y-10307573D01*
X13808849Y-10392427D01*
X13893702Y-10392427D01*
X13959625Y-6390000D02*
X14079625Y-6510000D01*
X14079625Y-6390000D02*
X13959625Y-6510000D01*
X14062052Y-6492427D02*
X14062052Y-6407573D01*
X13977198Y-6407573D01*
X13977198Y-6492427D01*
X14062052Y-6492427D01*
X13959625Y-7890000D02*
X14079625Y-8010000D01*
X14079625Y-7890000D02*
X13959625Y-8010000D01*
X14062052Y-7992427D02*
X14062052Y-7907573D01*
X13977198Y-7907573D01*
X13977198Y-7992427D01*
X14062052Y-7992427D01*
X14691275Y-10940000D02*
X14811275Y-11060000D01*
X14811275Y-10940000D02*
X14691275Y-11060000D01*
X14793702Y-11042427D02*
X14793702Y-10957573D01*
X14708849Y-10957573D01*
X14708849Y-11042427D01*
X14793702Y-11042427D01*
X14691275Y-11690000D02*
X14811275Y-11810000D01*
X14811275Y-11690000D02*
X14691275Y-11810000D01*
X14793702Y-11792427D02*
X14793702Y-11707573D01*
X14708849Y-11707573D01*
X14708849Y-11792427D01*
X14793702Y-11792427D01*
X15591275Y-9540000D02*
X15711275Y-9660000D01*
X15711275Y-9540000D02*
X15591275Y-9660000D01*
X15693702Y-9642427D02*
X15693702Y-9557573D01*
X15608849Y-9557573D01*
X15608849Y-9642427D01*
X15693702Y-9642427D01*
X15591275Y-10290000D02*
X15711275Y-10410000D01*
X15711275Y-10290000D02*
X15591275Y-10410000D01*
X15693702Y-10392427D02*
X15693702Y-10307573D01*
X15608849Y-10307573D01*
X15608849Y-10392427D01*
X15693702Y-10392427D01*
X16491275Y-10940000D02*
X16611275Y-11060000D01*
X16611275Y-10940000D02*
X16491275Y-11060000D01*
X16593702Y-11042427D02*
X16593702Y-10957573D01*
X16508849Y-10957573D01*
X16508849Y-11042427D01*
X16593702Y-11042427D01*
X16491275Y-11690000D02*
X16611275Y-11810000D01*
X16611275Y-11690000D02*
X16491275Y-11810000D01*
X16593702Y-11792427D02*
X16593702Y-11707573D01*
X16508849Y-11707573D01*
X16508849Y-11792427D01*
X16593702Y-11792427D01*
D18*
X8054625Y-6835000D02*
X8184625Y-6965000D01*
X8184625Y-6835000D02*
X8054625Y-6965000D01*
X8119625Y-6965000D02*
X8184625Y-6900000D01*
X8119625Y-6835000D01*
X8054625Y-6900000D01*
X8119625Y-6965000D01*
X8054625Y-7335000D02*
X8184625Y-7465000D01*
X8184625Y-7335000D02*
X8054625Y-7465000D01*
X8119625Y-7465000D02*
X8184625Y-7400000D01*
X8119625Y-7335000D01*
X8054625Y-7400000D01*
X8119625Y-7465000D01*
X8054625Y-7835000D02*
X8184625Y-7965000D01*
X8184625Y-7835000D02*
X8054625Y-7965000D01*
X8119625Y-7965000D02*
X8184625Y-7900000D01*
X8119625Y-7835000D01*
X8054625Y-7900000D01*
X8119625Y-7965000D01*
X8204500Y-11530500D02*
X8334500Y-11660500D01*
X8334500Y-11530500D02*
X8204500Y-11660500D01*
X8269500Y-11660500D02*
X8334500Y-11595500D01*
X8269500Y-11530500D01*
X8204500Y-11595500D01*
X8269500Y-11660500D01*
X8204500Y-12038500D02*
X8334500Y-12168500D01*
X8334500Y-12038500D02*
X8204500Y-12168500D01*
X8269500Y-12168500D02*
X8334500Y-12103500D01*
X8269500Y-12038500D01*
X8204500Y-12103500D01*
X8269500Y-12168500D01*
X9185125Y-5610000D02*
X9315125Y-5740000D01*
X9315125Y-5610000D02*
X9185125Y-5740000D01*
X9250125Y-5740000D02*
X9315125Y-5675000D01*
X9250125Y-5610000D01*
X9185125Y-5675000D01*
X9250125Y-5740000D01*
X9185125Y-7860000D02*
X9315125Y-7990000D01*
X9315125Y-7860000D02*
X9185125Y-7990000D01*
X9250125Y-7990000D02*
X9315125Y-7925000D01*
X9250125Y-7860000D01*
X9185125Y-7925000D01*
X9250125Y-7990000D01*
X16865500Y-13135000D02*
X16995500Y-13265000D01*
X16995500Y-13135000D02*
X16865500Y-13265000D01*
X16930500Y-13265000D02*
X16995500Y-13200000D01*
X16930500Y-13135000D01*
X16865500Y-13200000D01*
X16930500Y-13265000D01*
X16865500Y-13635000D02*
X16995500Y-13765000D01*
X16995500Y-13635000D02*
X16865500Y-13765000D01*
X16930500Y-13765000D02*
X16995500Y-13700000D01*
X16930500Y-13635000D01*
X16865500Y-13700000D01*
X16930500Y-13765000D01*
X16865500Y-14135000D02*
X16995500Y-14265000D01*
X16995500Y-14135000D02*
X16865500Y-14265000D01*
X16930500Y-14265000D02*
X16995500Y-14200000D01*
X16930500Y-14135000D01*
X16865500Y-14200000D01*
X16930500Y-14265000D01*
D19*
X11658125Y-6182000D02*
X11658125Y-6332000D01*
X11583125Y-6257000D02*
X11733125Y-6257000D01*
X11733125Y-6257000D02*
G75*
G03*
X11733125Y-6257000I-75000J0D01*
G01*
X11658125Y-8468000D02*
X11658125Y-8618000D01*
X11583125Y-8543000D02*
X11733125Y-8543000D01*
X11733125Y-8543000D02*
G75*
G03*
X11733125Y-8543000I-75000J0D01*
G01*
X13182125Y-6182000D02*
X13182125Y-6332000D01*
X13107125Y-6257000D02*
X13257125Y-6257000D01*
X13257125Y-6257000D02*
G75*
G03*
X13257125Y-6257000I-75000J0D01*
G01*
X13182125Y-8468000D02*
X13182125Y-8618000D01*
X13107125Y-8543000D02*
X13257125Y-8543000D01*
X13257125Y-8543000D02*
G75*
G03*
X13257125Y-8543000I-75000J0D01*
G01*
D20*
X13602569Y-12858069D02*
X13602569Y-12744931D01*
X13489431Y-12744931D01*
X13489431Y-12858069D01*
X13602569Y-12858069D01*
X13626000Y-12801500D02*
G75*
G03*
X13626000Y-12801500I-80000J0D01*
G01*
X13602569Y-14382069D02*
X13602569Y-14268931D01*
X13489431Y-14268931D01*
X13489431Y-14382069D01*
X13602569Y-14382069D01*
X13626000Y-14325500D02*
G75*
G03*
X13626000Y-14325500I-80000J0D01*
G01*
X15356569Y-7443432D02*
X15356569Y-7330294D01*
X15243431Y-7330294D01*
X15243431Y-7443432D01*
X15356569Y-7443432D01*
X15380000Y-7386863D02*
G75*
G03*
X15380000Y-7386863I-80000J0D01*
G01*
X15356569Y-8967432D02*
X15356569Y-8854294D01*
X15243431Y-8854294D01*
X15243431Y-8967432D01*
X15356569Y-8967432D01*
X15380000Y-8910863D02*
G75*
G03*
X15380000Y-8910863I-80000J0D01*
G01*
X15806569Y-12382569D02*
X15806569Y-12269431D01*
X15693431Y-12269431D01*
X15693431Y-12382569D01*
X15806569Y-12382569D01*
X15830000Y-12326000D02*
G75*
G03*
X15830000Y-12326000I-80000J0D01*
G01*
X15806569Y-13906569D02*
X15806569Y-13793431D01*
X15693431Y-13793431D01*
X15693431Y-13906569D01*
X15806569Y-13906569D01*
X15830000Y-13850000D02*
G75*
G03*
X15830000Y-13850000I-80000J0D01*
G01*
X15956569Y-7443432D02*
X15956569Y-7330294D01*
X15843431Y-7330294D01*
X15843431Y-7443432D01*
X15956569Y-7443432D01*
X15980000Y-7386863D02*
G75*
G03*
X15980000Y-7386863I-80000J0D01*
G01*
X15956569Y-8967432D02*
X15956569Y-8854294D01*
X15843431Y-8854294D01*
X15843431Y-8967432D01*
X15956569Y-8967432D01*
X15980000Y-8910863D02*
G75*
G03*
X15980000Y-8910863I-80000J0D01*
G01*
X16556569Y-7443432D02*
X16556569Y-7330294D01*
X16443431Y-7330294D01*
X16443431Y-7443432D01*
X16556569Y-7443432D01*
X16580000Y-7386863D02*
G75*
G03*
X16580000Y-7386863I-80000J0D01*
G01*
X16556569Y-8967432D02*
X16556569Y-8854294D01*
X16443431Y-8854294D01*
X16443431Y-8967432D01*
X16556569Y-8967432D01*
X16580000Y-8910863D02*
G75*
G03*
X16580000Y-8910863I-80000J0D01*
G01*
X17156569Y-7443432D02*
X17156569Y-7330294D01*
X17043431Y-7330294D01*
X17043431Y-7443432D01*
X17156569Y-7443432D01*
X17180000Y-7386863D02*
G75*
G03*
X17180000Y-7386863I-80000J0D01*
G01*
X17156569Y-8967432D02*
X17156569Y-8854294D01*
X17043431Y-8854294D01*
X17043431Y-8967432D01*
X17156569Y-8967432D01*
X17180000Y-8910863D02*
G75*
G03*
X17180000Y-8910863I-80000J0D01*
G01*
D21*
X15409250Y-6612500D02*
X15496750Y-6525000D01*
X15409250Y-6437500D01*
X15321750Y-6525000D01*
X15409250Y-6612500D01*
X15496750Y-6525000D02*
G75*
G03*
X15496750Y-6525000I-87500J0D01*
G01*
X15797250Y-6612500D02*
X15884750Y-6525000D01*
X15797250Y-6437500D01*
X15709750Y-6525000D01*
X15797250Y-6612500D01*
X15884750Y-6525000D02*
G75*
G03*
X15884750Y-6525000I-87500J0D01*
G01*
D22*
X8000000Y-5785000D02*
X8000000Y-6215000D01*
X7785000Y-6000000D02*
X8215000Y-6000000D01*
X8152029Y-6152029D02*
X8152029Y-5847971D01*
X7847971Y-5847971D01*
X7847971Y-6152029D01*
X8152029Y-6152029D01*
X8000000Y-14785000D02*
X8000000Y-15215000D01*
X7785000Y-15000000D02*
X8215000Y-15000000D01*
X8152029Y-15152029D02*
X8152029Y-14847971D01*
X7847971Y-14847971D01*
X7847971Y-15152029D01*
X8152029Y-15152029D01*
X17000000Y-5785000D02*
X17000000Y-6215000D01*
X16785000Y-6000000D02*
X17215000Y-6000000D01*
X17152029Y-6152029D02*
X17152029Y-5847971D01*
X16847971Y-5847971D01*
X16847971Y-6152029D01*
X17152029Y-6152029D01*
X17000000Y-14785000D02*
X17000000Y-15215000D01*
X16785000Y-15000000D02*
X17215000Y-15000000D01*
X17152029Y-15152029D02*
X17152029Y-14847971D01*
X16847971Y-14847971D01*
X16847971Y-15152029D01*
X17152029Y-15152029D01*
D11*
X7752619Y-15815476D02*
X7752619Y-15615476D01*
X7800238Y-15615476D01*
X7828809Y-15625000D01*
X7847857Y-15644048D01*
X7857381Y-15663095D01*
X7866905Y-15701190D01*
X7866905Y-15729762D01*
X7857381Y-15767857D01*
X7847857Y-15786905D01*
X7828809Y-15805952D01*
X7800238Y-15815476D01*
X7752619Y-15815476D01*
X7952619Y-15815476D02*
X7952619Y-15682143D01*
X7952619Y-15720238D02*
X7962143Y-15701190D01*
X7971667Y-15691667D01*
X7990714Y-15682143D01*
X8009762Y-15682143D01*
X8076428Y-15815476D02*
X8076428Y-15682143D01*
X8076428Y-15615476D02*
X8066905Y-15625000D01*
X8076428Y-15634524D01*
X8085952Y-15625000D01*
X8076428Y-15615476D01*
X8076428Y-15634524D01*
X8200238Y-15815476D02*
X8181190Y-15805952D01*
X8171667Y-15786905D01*
X8171667Y-15615476D01*
X8305000Y-15815476D02*
X8285952Y-15805952D01*
X8276428Y-15786905D01*
X8276428Y-15615476D01*
X8533571Y-15815476D02*
X8533571Y-15615476D01*
X8600238Y-15758333D01*
X8666905Y-15615476D01*
X8666905Y-15815476D01*
X8847857Y-15815476D02*
X8847857Y-15710714D01*
X8838333Y-15691667D01*
X8819286Y-15682143D01*
X8781190Y-15682143D01*
X8762143Y-15691667D01*
X8847857Y-15805952D02*
X8828810Y-15815476D01*
X8781190Y-15815476D01*
X8762143Y-15805952D01*
X8752619Y-15786905D01*
X8752619Y-15767857D01*
X8762143Y-15748809D01*
X8781190Y-15739286D01*
X8828810Y-15739286D01*
X8847857Y-15729762D01*
X8943095Y-15682143D02*
X8943095Y-15882143D01*
X8943095Y-15691667D02*
X8962143Y-15682143D01*
X9000238Y-15682143D01*
X9019286Y-15691667D01*
X9028810Y-15701190D01*
X9038333Y-15720238D01*
X9038333Y-15777381D01*
X9028810Y-15796428D01*
X9019286Y-15805952D01*
X9000238Y-15815476D01*
X8962143Y-15815476D01*
X8943095Y-15805952D01*
X9124048Y-15796428D02*
X9133571Y-15805952D01*
X9124048Y-15815476D01*
X9114524Y-15805952D01*
X9124048Y-15796428D01*
X9124048Y-15815476D01*
X9124048Y-15691667D02*
X9133571Y-15701190D01*
X9124048Y-15710714D01*
X9114524Y-15701190D01*
X9124048Y-15691667D01*
X9124048Y-15710714D01*
D12*
X7465000Y-16130000D02*
X7495000Y-16160000D01*
X7495000Y-16130000D02*
X7465000Y-16160000D01*
D11*
X7790714Y-16035476D02*
X7809762Y-16035476D01*
X7828809Y-16045000D01*
X7838333Y-16054524D01*
X7847857Y-16073571D01*
X7857381Y-16111667D01*
X7857381Y-16159286D01*
X7847857Y-16197381D01*
X7838333Y-16216428D01*
X7828809Y-16225952D01*
X7809762Y-16235476D01*
X7790714Y-16235476D01*
X7771667Y-16225952D01*
X7762143Y-16216428D01*
X7752619Y-16197381D01*
X7743095Y-16159286D01*
X7743095Y-16111667D01*
X7752619Y-16073571D01*
X7762143Y-16054524D01*
X7771667Y-16045000D01*
X7790714Y-16035476D01*
X7943095Y-16216428D02*
X7952619Y-16225952D01*
X7943095Y-16235476D01*
X7933571Y-16225952D01*
X7943095Y-16216428D01*
X7943095Y-16235476D01*
X8019286Y-16035476D02*
X8143095Y-16035476D01*
X8076428Y-16111667D01*
X8105000Y-16111667D01*
X8124048Y-16121190D01*
X8133571Y-16130714D01*
X8143095Y-16149762D01*
X8143095Y-16197381D01*
X8133571Y-16216428D01*
X8124048Y-16225952D01*
X8105000Y-16235476D01*
X8047857Y-16235476D01*
X8028809Y-16225952D01*
X8019286Y-16216428D01*
X8266905Y-16035476D02*
X8285952Y-16035476D01*
X8305000Y-16045000D01*
X8314524Y-16054524D01*
X8324048Y-16073571D01*
X8333571Y-16111667D01*
X8333571Y-16159286D01*
X8324048Y-16197381D01*
X8314524Y-16216428D01*
X8305000Y-16225952D01*
X8285952Y-16235476D01*
X8266905Y-16235476D01*
X8247857Y-16225952D01*
X8238333Y-16216428D01*
X8228809Y-16197381D01*
X8219286Y-16159286D01*
X8219286Y-16111667D01*
X8228809Y-16073571D01*
X8238333Y-16054524D01*
X8247857Y-16045000D01*
X8266905Y-16035476D01*
X8457381Y-16035476D02*
X8476429Y-16035476D01*
X8495476Y-16045000D01*
X8505000Y-16054524D01*
X8514524Y-16073571D01*
X8524048Y-16111667D01*
X8524048Y-16159286D01*
X8514524Y-16197381D01*
X8505000Y-16216428D01*
X8495476Y-16225952D01*
X8476429Y-16235476D01*
X8457381Y-16235476D01*
X8438333Y-16225952D01*
X8428810Y-16216428D01*
X8419286Y-16197381D01*
X8409762Y-16159286D01*
X8409762Y-16111667D01*
X8419286Y-16073571D01*
X8428810Y-16054524D01*
X8438333Y-16045000D01*
X8457381Y-16035476D01*
X8609762Y-16235476D02*
X8609762Y-16102143D01*
X8609762Y-16121190D02*
X8619286Y-16111667D01*
X8638333Y-16102143D01*
X8666905Y-16102143D01*
X8685952Y-16111667D01*
X8695476Y-16130714D01*
X8695476Y-16235476D01*
X8695476Y-16130714D02*
X8705000Y-16111667D01*
X8724048Y-16102143D01*
X8752619Y-16102143D01*
X8771667Y-16111667D01*
X8781190Y-16130714D01*
X8781190Y-16235476D01*
X8876429Y-16235476D02*
X8876429Y-16102143D01*
X8876429Y-16121190D02*
X8885952Y-16111667D01*
X8905000Y-16102143D01*
X8933571Y-16102143D01*
X8952619Y-16111667D01*
X8962143Y-16130714D01*
X8962143Y-16235476D01*
X8962143Y-16130714D02*
X8971667Y-16111667D01*
X8990714Y-16102143D01*
X9019286Y-16102143D01*
X9038333Y-16111667D01*
X9047857Y-16130714D01*
X9047857Y-16235476D01*
X9438333Y-16025952D02*
X9266905Y-16283095D01*
X9695476Y-16035476D02*
X9714524Y-16035476D01*
X9733571Y-16045000D01*
X9743095Y-16054524D01*
X9752619Y-16073571D01*
X9762143Y-16111667D01*
X9762143Y-16159286D01*
X9752619Y-16197381D01*
X9743095Y-16216428D01*
X9733571Y-16225952D01*
X9714524Y-16235476D01*
X9695476Y-16235476D01*
X9676429Y-16225952D01*
X9666905Y-16216428D01*
X9657381Y-16197381D01*
X9647857Y-16159286D01*
X9647857Y-16111667D01*
X9657381Y-16073571D01*
X9666905Y-16054524D01*
X9676429Y-16045000D01*
X9695476Y-16035476D01*
X9847857Y-16216428D02*
X9857381Y-16225952D01*
X9847857Y-16235476D01*
X9838333Y-16225952D01*
X9847857Y-16216428D01*
X9847857Y-16235476D01*
X9981190Y-16035476D02*
X10000238Y-16035476D01*
X10019286Y-16045000D01*
X10028810Y-16054524D01*
X10038333Y-16073571D01*
X10047857Y-16111667D01*
X10047857Y-16159286D01*
X10038333Y-16197381D01*
X10028810Y-16216428D01*
X10019286Y-16225952D01*
X10000238Y-16235476D01*
X9981190Y-16235476D01*
X9962143Y-16225952D01*
X9952619Y-16216428D01*
X9943095Y-16197381D01*
X9933571Y-16159286D01*
X9933571Y-16111667D01*
X9943095Y-16073571D01*
X9952619Y-16054524D01*
X9962143Y-16045000D01*
X9981190Y-16035476D01*
X10238333Y-16235476D02*
X10124048Y-16235476D01*
X10181190Y-16235476D02*
X10181190Y-16035476D01*
X10162143Y-16064048D01*
X10143095Y-16083095D01*
X10124048Y-16092619D01*
X10428810Y-16235476D02*
X10314524Y-16235476D01*
X10371667Y-16235476D02*
X10371667Y-16035476D01*
X10352619Y-16064048D01*
X10333571Y-16083095D01*
X10314524Y-16092619D01*
X10543095Y-16121190D02*
X10524048Y-16111667D01*
X10514524Y-16102143D01*
X10505000Y-16083095D01*
X10505000Y-16073571D01*
X10514524Y-16054524D01*
X10524048Y-16045000D01*
X10543095Y-16035476D01*
X10581190Y-16035476D01*
X10600238Y-16045000D01*
X10609762Y-16054524D01*
X10619286Y-16073571D01*
X10619286Y-16083095D01*
X10609762Y-16102143D01*
X10600238Y-16111667D01*
X10581190Y-16121190D01*
X10543095Y-16121190D01*
X10524048Y-16130714D01*
X10514524Y-16140238D01*
X10505000Y-16159286D01*
X10505000Y-16197381D01*
X10514524Y-16216428D01*
X10524048Y-16225952D01*
X10543095Y-16235476D01*
X10581190Y-16235476D01*
X10600238Y-16225952D01*
X10609762Y-16216428D01*
X10619286Y-16197381D01*
X10619286Y-16159286D01*
X10609762Y-16140238D01*
X10600238Y-16130714D01*
X10581190Y-16121190D01*
X10695476Y-16035476D02*
X10695476Y-16073571D01*
X10771667Y-16035476D02*
X10771667Y-16073571D01*
X11066905Y-16311667D02*
X11057381Y-16302143D01*
X11038333Y-16273571D01*
X11028810Y-16254524D01*
X11019286Y-16225952D01*
X11009762Y-16178333D01*
X11009762Y-16140238D01*
X11019286Y-16092619D01*
X11028810Y-16064048D01*
X11038333Y-16045000D01*
X11057381Y-16016428D01*
X11066905Y-16006905D01*
X11133571Y-16054524D02*
X11143095Y-16045000D01*
X11162143Y-16035476D01*
X11209762Y-16035476D01*
X11228809Y-16045000D01*
X11238333Y-16054524D01*
X11247857Y-16073571D01*
X11247857Y-16092619D01*
X11238333Y-16121190D01*
X11124048Y-16235476D01*
X11247857Y-16235476D01*
X11419286Y-16035476D02*
X11381190Y-16035476D01*
X11362143Y-16045000D01*
X11352619Y-16054524D01*
X11333571Y-16083095D01*
X11324048Y-16121190D01*
X11324048Y-16197381D01*
X11333571Y-16216428D01*
X11343095Y-16225952D01*
X11362143Y-16235476D01*
X11400238Y-16235476D01*
X11419286Y-16225952D01*
X11428809Y-16216428D01*
X11438333Y-16197381D01*
X11438333Y-16149762D01*
X11428809Y-16130714D01*
X11419286Y-16121190D01*
X11400238Y-16111667D01*
X11362143Y-16111667D01*
X11343095Y-16121190D01*
X11333571Y-16130714D01*
X11324048Y-16149762D01*
X11676428Y-16235476D02*
X11676428Y-16035476D01*
X11762143Y-16235476D02*
X11762143Y-16130714D01*
X11752619Y-16111667D01*
X11733571Y-16102143D01*
X11705000Y-16102143D01*
X11685952Y-16111667D01*
X11676428Y-16121190D01*
X11885952Y-16235476D02*
X11866905Y-16225952D01*
X11857381Y-16216428D01*
X11847857Y-16197381D01*
X11847857Y-16140238D01*
X11857381Y-16121190D01*
X11866905Y-16111667D01*
X11885952Y-16102143D01*
X11914524Y-16102143D01*
X11933571Y-16111667D01*
X11943095Y-16121190D01*
X11952619Y-16140238D01*
X11952619Y-16197381D01*
X11943095Y-16216428D01*
X11933571Y-16225952D01*
X11914524Y-16235476D01*
X11885952Y-16235476D01*
X12066905Y-16235476D02*
X12047857Y-16225952D01*
X12038333Y-16206905D01*
X12038333Y-16035476D01*
X12219286Y-16225952D02*
X12200238Y-16235476D01*
X12162143Y-16235476D01*
X12143095Y-16225952D01*
X12133571Y-16206905D01*
X12133571Y-16130714D01*
X12143095Y-16111667D01*
X12162143Y-16102143D01*
X12200238Y-16102143D01*
X12219286Y-16111667D01*
X12228809Y-16130714D01*
X12228809Y-16149762D01*
X12133571Y-16168809D01*
X12305000Y-16225952D02*
X12324048Y-16235476D01*
X12362143Y-16235476D01*
X12381190Y-16225952D01*
X12390714Y-16206905D01*
X12390714Y-16197381D01*
X12381190Y-16178333D01*
X12362143Y-16168809D01*
X12333571Y-16168809D01*
X12314524Y-16159286D01*
X12305000Y-16140238D01*
X12305000Y-16130714D01*
X12314524Y-16111667D01*
X12333571Y-16102143D01*
X12362143Y-16102143D01*
X12381190Y-16111667D01*
X12457381Y-16311667D02*
X12466905Y-16302143D01*
X12485952Y-16273571D01*
X12495476Y-16254524D01*
X12505000Y-16225952D01*
X12514524Y-16178333D01*
X12514524Y-16140238D01*
X12505000Y-16092619D01*
X12495476Y-16064048D01*
X12485952Y-16045000D01*
X12466905Y-16016428D01*
X12457381Y-16006905D01*
D13*
X7495000Y-16409000D02*
G75*
G03*
X7495000Y-16409000I-30000J0D01*
G01*
D11*
X7790714Y-16299476D02*
X7809762Y-16299476D01*
X7828809Y-16309000D01*
X7838333Y-16318524D01*
X7847857Y-16337571D01*
X7857381Y-16375667D01*
X7857381Y-16423286D01*
X7847857Y-16461381D01*
X7838333Y-16480428D01*
X7828809Y-16489952D01*
X7809762Y-16499476D01*
X7790714Y-16499476D01*
X7771667Y-16489952D01*
X7762143Y-16480428D01*
X7752619Y-16461381D01*
X7743095Y-16423286D01*
X7743095Y-16375667D01*
X7752619Y-16337571D01*
X7762143Y-16318524D01*
X7771667Y-16309000D01*
X7790714Y-16299476D01*
X7943095Y-16480428D02*
X7952619Y-16489952D01*
X7943095Y-16499476D01*
X7933571Y-16489952D01*
X7943095Y-16480428D01*
X7943095Y-16499476D01*
X8124048Y-16299476D02*
X8085952Y-16299476D01*
X8066905Y-16309000D01*
X8057381Y-16318524D01*
X8038333Y-16347095D01*
X8028809Y-16385190D01*
X8028809Y-16461381D01*
X8038333Y-16480428D01*
X8047857Y-16489952D01*
X8066905Y-16499476D01*
X8105000Y-16499476D01*
X8124048Y-16489952D01*
X8133571Y-16480428D01*
X8143095Y-16461381D01*
X8143095Y-16413762D01*
X8133571Y-16394714D01*
X8124048Y-16385190D01*
X8105000Y-16375667D01*
X8066905Y-16375667D01*
X8047857Y-16385190D01*
X8038333Y-16394714D01*
X8028809Y-16413762D01*
X8266905Y-16299476D02*
X8285952Y-16299476D01*
X8305000Y-16309000D01*
X8314524Y-16318524D01*
X8324048Y-16337571D01*
X8333571Y-16375667D01*
X8333571Y-16423286D01*
X8324048Y-16461381D01*
X8314524Y-16480428D01*
X8305000Y-16489952D01*
X8285952Y-16499476D01*
X8266905Y-16499476D01*
X8247857Y-16489952D01*
X8238333Y-16480428D01*
X8228809Y-16461381D01*
X8219286Y-16423286D01*
X8219286Y-16375667D01*
X8228809Y-16337571D01*
X8238333Y-16318524D01*
X8247857Y-16309000D01*
X8266905Y-16299476D01*
X8457381Y-16299476D02*
X8476429Y-16299476D01*
X8495476Y-16309000D01*
X8505000Y-16318524D01*
X8514524Y-16337571D01*
X8524048Y-16375667D01*
X8524048Y-16423286D01*
X8514524Y-16461381D01*
X8505000Y-16480428D01*
X8495476Y-16489952D01*
X8476429Y-16499476D01*
X8457381Y-16499476D01*
X8438333Y-16489952D01*
X8428810Y-16480428D01*
X8419286Y-16461381D01*
X8409762Y-16423286D01*
X8409762Y-16375667D01*
X8419286Y-16337571D01*
X8428810Y-16318524D01*
X8438333Y-16309000D01*
X8457381Y-16299476D01*
X8609762Y-16499476D02*
X8609762Y-16366143D01*
X8609762Y-16385190D02*
X8619286Y-16375667D01*
X8638333Y-16366143D01*
X8666905Y-16366143D01*
X8685952Y-16375667D01*
X8695476Y-16394714D01*
X8695476Y-16499476D01*
X8695476Y-16394714D02*
X8705000Y-16375667D01*
X8724048Y-16366143D01*
X8752619Y-16366143D01*
X8771667Y-16375667D01*
X8781190Y-16394714D01*
X8781190Y-16499476D01*
X8876429Y-16499476D02*
X8876429Y-16366143D01*
X8876429Y-16385190D02*
X8885952Y-16375667D01*
X8905000Y-16366143D01*
X8933571Y-16366143D01*
X8952619Y-16375667D01*
X8962143Y-16394714D01*
X8962143Y-16499476D01*
X8962143Y-16394714D02*
X8971667Y-16375667D01*
X8990714Y-16366143D01*
X9019286Y-16366143D01*
X9038333Y-16375667D01*
X9047857Y-16394714D01*
X9047857Y-16499476D01*
X9438333Y-16289952D02*
X9266905Y-16547095D01*
X9695476Y-16299476D02*
X9714524Y-16299476D01*
X9733571Y-16309000D01*
X9743095Y-16318524D01*
X9752619Y-16337571D01*
X9762143Y-16375667D01*
X9762143Y-16423286D01*
X9752619Y-16461381D01*
X9743095Y-16480428D01*
X9733571Y-16489952D01*
X9714524Y-16499476D01*
X9695476Y-16499476D01*
X9676429Y-16489952D01*
X9666905Y-16480428D01*
X9657381Y-16461381D01*
X9647857Y-16423286D01*
X9647857Y-16375667D01*
X9657381Y-16337571D01*
X9666905Y-16318524D01*
X9676429Y-16309000D01*
X9695476Y-16299476D01*
X9847857Y-16480428D02*
X9857381Y-16489952D01*
X9847857Y-16499476D01*
X9838333Y-16489952D01*
X9847857Y-16480428D01*
X9847857Y-16499476D01*
X9981190Y-16299476D02*
X10000238Y-16299476D01*
X10019286Y-16309000D01*
X10028810Y-16318524D01*
X10038333Y-16337571D01*
X10047857Y-16375667D01*
X10047857Y-16423286D01*
X10038333Y-16461381D01*
X10028810Y-16480428D01*
X10019286Y-16489952D01*
X10000238Y-16499476D01*
X9981190Y-16499476D01*
X9962143Y-16489952D01*
X9952619Y-16480428D01*
X9943095Y-16461381D01*
X9933571Y-16423286D01*
X9933571Y-16375667D01*
X9943095Y-16337571D01*
X9952619Y-16318524D01*
X9962143Y-16309000D01*
X9981190Y-16299476D01*
X10124048Y-16318524D02*
X10133571Y-16309000D01*
X10152619Y-16299476D01*
X10200238Y-16299476D01*
X10219286Y-16309000D01*
X10228810Y-16318524D01*
X10238333Y-16337571D01*
X10238333Y-16356619D01*
X10228810Y-16385190D01*
X10114524Y-16499476D01*
X10238333Y-16499476D01*
X10305000Y-16299476D02*
X10428810Y-16299476D01*
X10362143Y-16375667D01*
X10390714Y-16375667D01*
X10409762Y-16385190D01*
X10419286Y-16394714D01*
X10428810Y-16413762D01*
X10428810Y-16461381D01*
X10419286Y-16480428D01*
X10409762Y-16489952D01*
X10390714Y-16499476D01*
X10333571Y-16499476D01*
X10314524Y-16489952D01*
X10305000Y-16480428D01*
X10600238Y-16299476D02*
X10562143Y-16299476D01*
X10543095Y-16309000D01*
X10533571Y-16318524D01*
X10514524Y-16347095D01*
X10505000Y-16385190D01*
X10505000Y-16461381D01*
X10514524Y-16480428D01*
X10524048Y-16489952D01*
X10543095Y-16499476D01*
X10581190Y-16499476D01*
X10600238Y-16489952D01*
X10609762Y-16480428D01*
X10619286Y-16461381D01*
X10619286Y-16413762D01*
X10609762Y-16394714D01*
X10600238Y-16385190D01*
X10581190Y-16375667D01*
X10543095Y-16375667D01*
X10524048Y-16385190D01*
X10514524Y-16394714D01*
X10505000Y-16413762D01*
X10695476Y-16299476D02*
X10695476Y-16337571D01*
X10771667Y-16299476D02*
X10771667Y-16337571D01*
X11066905Y-16575667D02*
X11057381Y-16566143D01*
X11038333Y-16537571D01*
X11028810Y-16518524D01*
X11019286Y-16489952D01*
X11009762Y-16442333D01*
X11009762Y-16404238D01*
X11019286Y-16356619D01*
X11028810Y-16328048D01*
X11038333Y-16309000D01*
X11057381Y-16280428D01*
X11066905Y-16270905D01*
X11228809Y-16299476D02*
X11190714Y-16299476D01*
X11171667Y-16309000D01*
X11162143Y-16318524D01*
X11143095Y-16347095D01*
X11133571Y-16385190D01*
X11133571Y-16461381D01*
X11143095Y-16480428D01*
X11152619Y-16489952D01*
X11171667Y-16499476D01*
X11209762Y-16499476D01*
X11228809Y-16489952D01*
X11238333Y-16480428D01*
X11247857Y-16461381D01*
X11247857Y-16413762D01*
X11238333Y-16394714D01*
X11228809Y-16385190D01*
X11209762Y-16375667D01*
X11171667Y-16375667D01*
X11152619Y-16385190D01*
X11143095Y-16394714D01*
X11133571Y-16413762D01*
X11485952Y-16499476D02*
X11485952Y-16299476D01*
X11571667Y-16499476D02*
X11571667Y-16394714D01*
X11562143Y-16375667D01*
X11543095Y-16366143D01*
X11514524Y-16366143D01*
X11495476Y-16375667D01*
X11485952Y-16385190D01*
X11695476Y-16499476D02*
X11676428Y-16489952D01*
X11666905Y-16480428D01*
X11657381Y-16461381D01*
X11657381Y-16404238D01*
X11666905Y-16385190D01*
X11676428Y-16375667D01*
X11695476Y-16366143D01*
X11724048Y-16366143D01*
X11743095Y-16375667D01*
X11752619Y-16385190D01*
X11762143Y-16404238D01*
X11762143Y-16461381D01*
X11752619Y-16480428D01*
X11743095Y-16489952D01*
X11724048Y-16499476D01*
X11695476Y-16499476D01*
X11876428Y-16499476D02*
X11857381Y-16489952D01*
X11847857Y-16470905D01*
X11847857Y-16299476D01*
X12028809Y-16489952D02*
X12009762Y-16499476D01*
X11971667Y-16499476D01*
X11952619Y-16489952D01*
X11943095Y-16470905D01*
X11943095Y-16394714D01*
X11952619Y-16375667D01*
X11971667Y-16366143D01*
X12009762Y-16366143D01*
X12028809Y-16375667D01*
X12038333Y-16394714D01*
X12038333Y-16413762D01*
X11943095Y-16432809D01*
X12114524Y-16489952D02*
X12133571Y-16499476D01*
X12171667Y-16499476D01*
X12190714Y-16489952D01*
X12200238Y-16470905D01*
X12200238Y-16461381D01*
X12190714Y-16442333D01*
X12171667Y-16432809D01*
X12143095Y-16432809D01*
X12124048Y-16423286D01*
X12114524Y-16404238D01*
X12114524Y-16394714D01*
X12124048Y-16375667D01*
X12143095Y-16366143D01*
X12171667Y-16366143D01*
X12190714Y-16375667D01*
X12266905Y-16575667D02*
X12276428Y-16566143D01*
X12295476Y-16537571D01*
X12305000Y-16518524D01*
X12314524Y-16489952D01*
X12324048Y-16442333D01*
X12324048Y-16404238D01*
X12314524Y-16356619D01*
X12305000Y-16328048D01*
X12295476Y-16309000D01*
X12276428Y-16280428D01*
X12266905Y-16270905D01*
D13*
X7465000Y-16643000D02*
X7465000Y-16703000D01*
X7435000Y-16673000D02*
X7495000Y-16673000D01*
D11*
X7790714Y-16563476D02*
X7809762Y-16563476D01*
X7828809Y-16573000D01*
X7838333Y-16582524D01*
X7847857Y-16601571D01*
X7857381Y-16639667D01*
X7857381Y-16687286D01*
X7847857Y-16725381D01*
X7838333Y-16744428D01*
X7828809Y-16753952D01*
X7809762Y-16763476D01*
X7790714Y-16763476D01*
X7771667Y-16753952D01*
X7762143Y-16744428D01*
X7752619Y-16725381D01*
X7743095Y-16687286D01*
X7743095Y-16639667D01*
X7752619Y-16601571D01*
X7762143Y-16582524D01*
X7771667Y-16573000D01*
X7790714Y-16563476D01*
X7943095Y-16744428D02*
X7952619Y-16753952D01*
X7943095Y-16763476D01*
X7933571Y-16753952D01*
X7943095Y-16744428D01*
X7943095Y-16763476D01*
X8124048Y-16563476D02*
X8085952Y-16563476D01*
X8066905Y-16573000D01*
X8057381Y-16582524D01*
X8038333Y-16611095D01*
X8028809Y-16649190D01*
X8028809Y-16725381D01*
X8038333Y-16744428D01*
X8047857Y-16753952D01*
X8066905Y-16763476D01*
X8105000Y-16763476D01*
X8124048Y-16753952D01*
X8133571Y-16744428D01*
X8143095Y-16725381D01*
X8143095Y-16677762D01*
X8133571Y-16658714D01*
X8124048Y-16649190D01*
X8105000Y-16639667D01*
X8066905Y-16639667D01*
X8047857Y-16649190D01*
X8038333Y-16658714D01*
X8028809Y-16677762D01*
X8266905Y-16563476D02*
X8285952Y-16563476D01*
X8305000Y-16573000D01*
X8314524Y-16582524D01*
X8324048Y-16601571D01*
X8333571Y-16639667D01*
X8333571Y-16687286D01*
X8324048Y-16725381D01*
X8314524Y-16744428D01*
X8305000Y-16753952D01*
X8285952Y-16763476D01*
X8266905Y-16763476D01*
X8247857Y-16753952D01*
X8238333Y-16744428D01*
X8228809Y-16725381D01*
X8219286Y-16687286D01*
X8219286Y-16639667D01*
X8228809Y-16601571D01*
X8238333Y-16582524D01*
X8247857Y-16573000D01*
X8266905Y-16563476D01*
X8457381Y-16563476D02*
X8476429Y-16563476D01*
X8495476Y-16573000D01*
X8505000Y-16582524D01*
X8514524Y-16601571D01*
X8524048Y-16639667D01*
X8524048Y-16687286D01*
X8514524Y-16725381D01*
X8505000Y-16744428D01*
X8495476Y-16753952D01*
X8476429Y-16763476D01*
X8457381Y-16763476D01*
X8438333Y-16753952D01*
X8428810Y-16744428D01*
X8419286Y-16725381D01*
X8409762Y-16687286D01*
X8409762Y-16639667D01*
X8419286Y-16601571D01*
X8428810Y-16582524D01*
X8438333Y-16573000D01*
X8457381Y-16563476D01*
X8609762Y-16763476D02*
X8609762Y-16630143D01*
X8609762Y-16649190D02*
X8619286Y-16639667D01*
X8638333Y-16630143D01*
X8666905Y-16630143D01*
X8685952Y-16639667D01*
X8695476Y-16658714D01*
X8695476Y-16763476D01*
X8695476Y-16658714D02*
X8705000Y-16639667D01*
X8724048Y-16630143D01*
X8752619Y-16630143D01*
X8771667Y-16639667D01*
X8781190Y-16658714D01*
X8781190Y-16763476D01*
X8876429Y-16763476D02*
X8876429Y-16630143D01*
X8876429Y-16649190D02*
X8885952Y-16639667D01*
X8905000Y-16630143D01*
X8933571Y-16630143D01*
X8952619Y-16639667D01*
X8962143Y-16658714D01*
X8962143Y-16763476D01*
X8962143Y-16658714D02*
X8971667Y-16639667D01*
X8990714Y-16630143D01*
X9019286Y-16630143D01*
X9038333Y-16639667D01*
X9047857Y-16658714D01*
X9047857Y-16763476D01*
X9438333Y-16553952D02*
X9266905Y-16811095D01*
X9695476Y-16563476D02*
X9714524Y-16563476D01*
X9733571Y-16573000D01*
X9743095Y-16582524D01*
X9752619Y-16601571D01*
X9762143Y-16639667D01*
X9762143Y-16687286D01*
X9752619Y-16725381D01*
X9743095Y-16744428D01*
X9733571Y-16753952D01*
X9714524Y-16763476D01*
X9695476Y-16763476D01*
X9676429Y-16753952D01*
X9666905Y-16744428D01*
X9657381Y-16725381D01*
X9647857Y-16687286D01*
X9647857Y-16639667D01*
X9657381Y-16601571D01*
X9666905Y-16582524D01*
X9676429Y-16573000D01*
X9695476Y-16563476D01*
X9847857Y-16744428D02*
X9857381Y-16753952D01*
X9847857Y-16763476D01*
X9838333Y-16753952D01*
X9847857Y-16744428D01*
X9847857Y-16763476D01*
X9981190Y-16563476D02*
X10000238Y-16563476D01*
X10019286Y-16573000D01*
X10028810Y-16582524D01*
X10038333Y-16601571D01*
X10047857Y-16639667D01*
X10047857Y-16687286D01*
X10038333Y-16725381D01*
X10028810Y-16744428D01*
X10019286Y-16753952D01*
X10000238Y-16763476D01*
X9981190Y-16763476D01*
X9962143Y-16753952D01*
X9952619Y-16744428D01*
X9943095Y-16725381D01*
X9933571Y-16687286D01*
X9933571Y-16639667D01*
X9943095Y-16601571D01*
X9952619Y-16582524D01*
X9962143Y-16573000D01*
X9981190Y-16563476D01*
X10124048Y-16582524D02*
X10133571Y-16573000D01*
X10152619Y-16563476D01*
X10200238Y-16563476D01*
X10219286Y-16573000D01*
X10228810Y-16582524D01*
X10238333Y-16601571D01*
X10238333Y-16620619D01*
X10228810Y-16649190D01*
X10114524Y-16763476D01*
X10238333Y-16763476D01*
X10305000Y-16563476D02*
X10428810Y-16563476D01*
X10362143Y-16639667D01*
X10390714Y-16639667D01*
X10409762Y-16649190D01*
X10419286Y-16658714D01*
X10428810Y-16677762D01*
X10428810Y-16725381D01*
X10419286Y-16744428D01*
X10409762Y-16753952D01*
X10390714Y-16763476D01*
X10333571Y-16763476D01*
X10314524Y-16753952D01*
X10305000Y-16744428D01*
X10600238Y-16563476D02*
X10562143Y-16563476D01*
X10543095Y-16573000D01*
X10533571Y-16582524D01*
X10514524Y-16611095D01*
X10505000Y-16649190D01*
X10505000Y-16725381D01*
X10514524Y-16744428D01*
X10524048Y-16753952D01*
X10543095Y-16763476D01*
X10581190Y-16763476D01*
X10600238Y-16753952D01*
X10609762Y-16744428D01*
X10619286Y-16725381D01*
X10619286Y-16677762D01*
X10609762Y-16658714D01*
X10600238Y-16649190D01*
X10581190Y-16639667D01*
X10543095Y-16639667D01*
X10524048Y-16649190D01*
X10514524Y-16658714D01*
X10505000Y-16677762D01*
X10695476Y-16563476D02*
X10695476Y-16601571D01*
X10771667Y-16563476D02*
X10771667Y-16601571D01*
X11066905Y-16839667D02*
X11057381Y-16830143D01*
X11038333Y-16801571D01*
X11028810Y-16782524D01*
X11019286Y-16753952D01*
X11009762Y-16706333D01*
X11009762Y-16668238D01*
X11019286Y-16620619D01*
X11028810Y-16592048D01*
X11038333Y-16573000D01*
X11057381Y-16544428D01*
X11066905Y-16534905D01*
X11124048Y-16563476D02*
X11247857Y-16563476D01*
X11181190Y-16639667D01*
X11209762Y-16639667D01*
X11228809Y-16649190D01*
X11238333Y-16658714D01*
X11247857Y-16677762D01*
X11247857Y-16725381D01*
X11238333Y-16744428D01*
X11228809Y-16753952D01*
X11209762Y-16763476D01*
X11152619Y-16763476D01*
X11133571Y-16753952D01*
X11124048Y-16744428D01*
X11324048Y-16582524D02*
X11333571Y-16573000D01*
X11352619Y-16563476D01*
X11400238Y-16563476D01*
X11419286Y-16573000D01*
X11428809Y-16582524D01*
X11438333Y-16601571D01*
X11438333Y-16620619D01*
X11428809Y-16649190D01*
X11314524Y-16763476D01*
X11438333Y-16763476D01*
X11676428Y-16763476D02*
X11676428Y-16563476D01*
X11762143Y-16763476D02*
X11762143Y-16658714D01*
X11752619Y-16639667D01*
X11733571Y-16630143D01*
X11705000Y-16630143D01*
X11685952Y-16639667D01*
X11676428Y-16649190D01*
X11885952Y-16763476D02*
X11866905Y-16753952D01*
X11857381Y-16744428D01*
X11847857Y-16725381D01*
X11847857Y-16668238D01*
X11857381Y-16649190D01*
X11866905Y-16639667D01*
X11885952Y-16630143D01*
X11914524Y-16630143D01*
X11933571Y-16639667D01*
X11943095Y-16649190D01*
X11952619Y-16668238D01*
X11952619Y-16725381D01*
X11943095Y-16744428D01*
X11933571Y-16753952D01*
X11914524Y-16763476D01*
X11885952Y-16763476D01*
X12066905Y-16763476D02*
X12047857Y-16753952D01*
X12038333Y-16734905D01*
X12038333Y-16563476D01*
X12219286Y-16753952D02*
X12200238Y-16763476D01*
X12162143Y-16763476D01*
X12143095Y-16753952D01*
X12133571Y-16734905D01*
X12133571Y-16658714D01*
X12143095Y-16639667D01*
X12162143Y-16630143D01*
X12200238Y-16630143D01*
X12219286Y-16639667D01*
X12228809Y-16658714D01*
X12228809Y-16677762D01*
X12133571Y-16696809D01*
X12305000Y-16753952D02*
X12324048Y-16763476D01*
X12362143Y-16763476D01*
X12381190Y-16753952D01*
X12390714Y-16734905D01*
X12390714Y-16725381D01*
X12381190Y-16706333D01*
X12362143Y-16696809D01*
X12333571Y-16696809D01*
X12314524Y-16687286D01*
X12305000Y-16668238D01*
X12305000Y-16658714D01*
X12314524Y-16639667D01*
X12333571Y-16630143D01*
X12362143Y-16630143D01*
X12381190Y-16639667D01*
X12457381Y-16839667D02*
X12466905Y-16830143D01*
X12485952Y-16801571D01*
X12495476Y-16782524D01*
X12505000Y-16753952D01*
X12514524Y-16706333D01*
X12514524Y-16668238D01*
X12505000Y-16620619D01*
X12495476Y-16592048D01*
X12485952Y-16573000D01*
X12466905Y-16544428D01*
X12457381Y-16534905D01*
D14*
X7483284Y-16965285D02*
X7483284Y-16908716D01*
X7426715Y-16908716D01*
X7426715Y-16965285D01*
X7483284Y-16965285D01*
D11*
X7790714Y-16827476D02*
X7809762Y-16827476D01*
X7828809Y-16837000D01*
X7838333Y-16846524D01*
X7847857Y-16865571D01*
X7857381Y-16903667D01*
X7857381Y-16951286D01*
X7847857Y-16989381D01*
X7838333Y-17008429D01*
X7828809Y-17017952D01*
X7809762Y-17027476D01*
X7790714Y-17027476D01*
X7771667Y-17017952D01*
X7762143Y-17008429D01*
X7752619Y-16989381D01*
X7743095Y-16951286D01*
X7743095Y-16903667D01*
X7752619Y-16865571D01*
X7762143Y-16846524D01*
X7771667Y-16837000D01*
X7790714Y-16827476D01*
X7943095Y-17008429D02*
X7952619Y-17017952D01*
X7943095Y-17027476D01*
X7933571Y-17017952D01*
X7943095Y-17008429D01*
X7943095Y-17027476D01*
X8066905Y-16913190D02*
X8047857Y-16903667D01*
X8038333Y-16894143D01*
X8028809Y-16875095D01*
X8028809Y-16865571D01*
X8038333Y-16846524D01*
X8047857Y-16837000D01*
X8066905Y-16827476D01*
X8105000Y-16827476D01*
X8124048Y-16837000D01*
X8133571Y-16846524D01*
X8143095Y-16865571D01*
X8143095Y-16875095D01*
X8133571Y-16894143D01*
X8124048Y-16903667D01*
X8105000Y-16913190D01*
X8066905Y-16913190D01*
X8047857Y-16922714D01*
X8038333Y-16932238D01*
X8028809Y-16951286D01*
X8028809Y-16989381D01*
X8038333Y-17008429D01*
X8047857Y-17017952D01*
X8066905Y-17027476D01*
X8105000Y-17027476D01*
X8124048Y-17017952D01*
X8133571Y-17008429D01*
X8143095Y-16989381D01*
X8143095Y-16951286D01*
X8133571Y-16932238D01*
X8124048Y-16922714D01*
X8105000Y-16913190D01*
X8266905Y-16827476D02*
X8285952Y-16827476D01*
X8305000Y-16837000D01*
X8314524Y-16846524D01*
X8324048Y-16865571D01*
X8333571Y-16903667D01*
X8333571Y-16951286D01*
X8324048Y-16989381D01*
X8314524Y-17008429D01*
X8305000Y-17017952D01*
X8285952Y-17027476D01*
X8266905Y-17027476D01*
X8247857Y-17017952D01*
X8238333Y-17008429D01*
X8228809Y-16989381D01*
X8219286Y-16951286D01*
X8219286Y-16903667D01*
X8228809Y-16865571D01*
X8238333Y-16846524D01*
X8247857Y-16837000D01*
X8266905Y-16827476D01*
X8457381Y-16827476D02*
X8476429Y-16827476D01*
X8495476Y-16837000D01*
X8505000Y-16846524D01*
X8514524Y-16865571D01*
X8524048Y-16903667D01*
X8524048Y-16951286D01*
X8514524Y-16989381D01*
X8505000Y-17008429D01*
X8495476Y-17017952D01*
X8476429Y-17027476D01*
X8457381Y-17027476D01*
X8438333Y-17017952D01*
X8428810Y-17008429D01*
X8419286Y-16989381D01*
X8409762Y-16951286D01*
X8409762Y-16903667D01*
X8419286Y-16865571D01*
X8428810Y-16846524D01*
X8438333Y-16837000D01*
X8457381Y-16827476D01*
X8609762Y-17027476D02*
X8609762Y-16894143D01*
X8609762Y-16913190D02*
X8619286Y-16903667D01*
X8638333Y-16894143D01*
X8666905Y-16894143D01*
X8685952Y-16903667D01*
X8695476Y-16922714D01*
X8695476Y-17027476D01*
X8695476Y-16922714D02*
X8705000Y-16903667D01*
X8724048Y-16894143D01*
X8752619Y-16894143D01*
X8771667Y-16903667D01*
X8781190Y-16922714D01*
X8781190Y-17027476D01*
X8876429Y-17027476D02*
X8876429Y-16894143D01*
X8876429Y-16913190D02*
X8885952Y-16903667D01*
X8905000Y-16894143D01*
X8933571Y-16894143D01*
X8952619Y-16903667D01*
X8962143Y-16922714D01*
X8962143Y-17027476D01*
X8962143Y-16922714D02*
X8971667Y-16903667D01*
X8990714Y-16894143D01*
X9019286Y-16894143D01*
X9038333Y-16903667D01*
X9047857Y-16922714D01*
X9047857Y-17027476D01*
X9438333Y-16817952D02*
X9266905Y-17075095D01*
X9695476Y-16827476D02*
X9714524Y-16827476D01*
X9733571Y-16837000D01*
X9743095Y-16846524D01*
X9752619Y-16865571D01*
X9762143Y-16903667D01*
X9762143Y-16951286D01*
X9752619Y-16989381D01*
X9743095Y-17008429D01*
X9733571Y-17017952D01*
X9714524Y-17027476D01*
X9695476Y-17027476D01*
X9676429Y-17017952D01*
X9666905Y-17008429D01*
X9657381Y-16989381D01*
X9647857Y-16951286D01*
X9647857Y-16903667D01*
X9657381Y-16865571D01*
X9666905Y-16846524D01*
X9676429Y-16837000D01*
X9695476Y-16827476D01*
X9847857Y-17008429D02*
X9857381Y-17017952D01*
X9847857Y-17027476D01*
X9838333Y-17017952D01*
X9847857Y-17008429D01*
X9847857Y-17027476D01*
X9981190Y-16827476D02*
X10000238Y-16827476D01*
X10019286Y-16837000D01*
X10028810Y-16846524D01*
X10038333Y-16865571D01*
X10047857Y-16903667D01*
X10047857Y-16951286D01*
X10038333Y-16989381D01*
X10028810Y-17008429D01*
X10019286Y-17017952D01*
X10000238Y-17027476D01*
X9981190Y-17027476D01*
X9962143Y-17017952D01*
X9952619Y-17008429D01*
X9943095Y-16989381D01*
X9933571Y-16951286D01*
X9933571Y-16903667D01*
X9943095Y-16865571D01*
X9952619Y-16846524D01*
X9962143Y-16837000D01*
X9981190Y-16827476D01*
X10114524Y-16827476D02*
X10238333Y-16827476D01*
X10171667Y-16903667D01*
X10200238Y-16903667D01*
X10219286Y-16913190D01*
X10228810Y-16922714D01*
X10238333Y-16941762D01*
X10238333Y-16989381D01*
X10228810Y-17008429D01*
X10219286Y-17017952D01*
X10200238Y-17027476D01*
X10143095Y-17027476D01*
X10124048Y-17017952D01*
X10114524Y-17008429D01*
X10428810Y-17027476D02*
X10314524Y-17027476D01*
X10371667Y-17027476D02*
X10371667Y-16827476D01*
X10352619Y-16856048D01*
X10333571Y-16875095D01*
X10314524Y-16884619D01*
X10609762Y-16827476D02*
X10514524Y-16827476D01*
X10505000Y-16922714D01*
X10514524Y-16913190D01*
X10533571Y-16903667D01*
X10581190Y-16903667D01*
X10600238Y-16913190D01*
X10609762Y-16922714D01*
X10619286Y-16941762D01*
X10619286Y-16989381D01*
X10609762Y-17008429D01*
X10600238Y-17017952D01*
X10581190Y-17027476D01*
X10533571Y-17027476D01*
X10514524Y-17017952D01*
X10505000Y-17008429D01*
X10695476Y-16827476D02*
X10695476Y-16865571D01*
X10771667Y-16827476D02*
X10771667Y-16865571D01*
X11066905Y-17103667D02*
X11057381Y-17094143D01*
X11038333Y-17065571D01*
X11028810Y-17046524D01*
X11019286Y-17017952D01*
X11009762Y-16970333D01*
X11009762Y-16932238D01*
X11019286Y-16884619D01*
X11028810Y-16856048D01*
X11038333Y-16837000D01*
X11057381Y-16808429D01*
X11066905Y-16798905D01*
X11247857Y-17027476D02*
X11133571Y-17027476D01*
X11190714Y-17027476D02*
X11190714Y-16827476D01*
X11171667Y-16856048D01*
X11152619Y-16875095D01*
X11133571Y-16884619D01*
X11314524Y-16827476D02*
X11447857Y-16827476D01*
X11362143Y-17027476D01*
X11676428Y-17027476D02*
X11676428Y-16827476D01*
X11762143Y-17027476D02*
X11762143Y-16922714D01*
X11752619Y-16903667D01*
X11733571Y-16894143D01*
X11705000Y-16894143D01*
X11685952Y-16903667D01*
X11676428Y-16913190D01*
X11885952Y-17027476D02*
X11866905Y-17017952D01*
X11857381Y-17008429D01*
X11847857Y-16989381D01*
X11847857Y-16932238D01*
X11857381Y-16913190D01*
X11866905Y-16903667D01*
X11885952Y-16894143D01*
X11914524Y-16894143D01*
X11933571Y-16903667D01*
X11943095Y-16913190D01*
X11952619Y-16932238D01*
X11952619Y-16989381D01*
X11943095Y-17008429D01*
X11933571Y-17017952D01*
X11914524Y-17027476D01*
X11885952Y-17027476D01*
X12066905Y-17027476D02*
X12047857Y-17017952D01*
X12038333Y-16998905D01*
X12038333Y-16827476D01*
X12219286Y-17017952D02*
X12200238Y-17027476D01*
X12162143Y-17027476D01*
X12143095Y-17017952D01*
X12133571Y-16998905D01*
X12133571Y-16922714D01*
X12143095Y-16903667D01*
X12162143Y-16894143D01*
X12200238Y-16894143D01*
X12219286Y-16903667D01*
X12228809Y-16922714D01*
X12228809Y-16941762D01*
X12133571Y-16960810D01*
X12305000Y-17017952D02*
X12324048Y-17027476D01*
X12362143Y-17027476D01*
X12381190Y-17017952D01*
X12390714Y-16998905D01*
X12390714Y-16989381D01*
X12381190Y-16970333D01*
X12362143Y-16960810D01*
X12333571Y-16960810D01*
X12314524Y-16951286D01*
X12305000Y-16932238D01*
X12305000Y-16922714D01*
X12314524Y-16903667D01*
X12333571Y-16894143D01*
X12362143Y-16894143D01*
X12381190Y-16903667D01*
X12457381Y-17103667D02*
X12466905Y-17094143D01*
X12485952Y-17065571D01*
X12495476Y-17046524D01*
X12505000Y-17017952D01*
X12514524Y-16970333D01*
X12514524Y-16932238D01*
X12505000Y-16884619D01*
X12495476Y-16856048D01*
X12485952Y-16837000D01*
X12466905Y-16808429D01*
X12457381Y-16798905D01*
D10*
X7445000Y-17251000D02*
X7495000Y-17201000D01*
X7445000Y-17151000D01*
X7395000Y-17201000D01*
X7445000Y-17251000D01*
D11*
X7857381Y-17291476D02*
X7743095Y-17291476D01*
X7800238Y-17291476D02*
X7800238Y-17091476D01*
X7781190Y-17120048D01*
X7762143Y-17139095D01*
X7743095Y-17148619D01*
X7943095Y-17272429D02*
X7952619Y-17281952D01*
X7943095Y-17291476D01*
X7933571Y-17281952D01*
X7943095Y-17272429D01*
X7943095Y-17291476D01*
X8076428Y-17091476D02*
X8095476Y-17091476D01*
X8114524Y-17101000D01*
X8124048Y-17110524D01*
X8133571Y-17129571D01*
X8143095Y-17167667D01*
X8143095Y-17215286D01*
X8133571Y-17253381D01*
X8124048Y-17272429D01*
X8114524Y-17281952D01*
X8095476Y-17291476D01*
X8076428Y-17291476D01*
X8057381Y-17281952D01*
X8047857Y-17272429D01*
X8038333Y-17253381D01*
X8028809Y-17215286D01*
X8028809Y-17167667D01*
X8038333Y-17129571D01*
X8047857Y-17110524D01*
X8057381Y-17101000D01*
X8076428Y-17091476D01*
X8266905Y-17091476D02*
X8285952Y-17091476D01*
X8305000Y-17101000D01*
X8314524Y-17110524D01*
X8324048Y-17129571D01*
X8333571Y-17167667D01*
X8333571Y-17215286D01*
X8324048Y-17253381D01*
X8314524Y-17272429D01*
X8305000Y-17281952D01*
X8285952Y-17291476D01*
X8266905Y-17291476D01*
X8247857Y-17281952D01*
X8238333Y-17272429D01*
X8228809Y-17253381D01*
X8219286Y-17215286D01*
X8219286Y-17167667D01*
X8228809Y-17129571D01*
X8238333Y-17110524D01*
X8247857Y-17101000D01*
X8266905Y-17091476D01*
X8457381Y-17091476D02*
X8476429Y-17091476D01*
X8495476Y-17101000D01*
X8505000Y-17110524D01*
X8514524Y-17129571D01*
X8524048Y-17167667D01*
X8524048Y-17215286D01*
X8514524Y-17253381D01*
X8505000Y-17272429D01*
X8495476Y-17281952D01*
X8476429Y-17291476D01*
X8457381Y-17291476D01*
X8438333Y-17281952D01*
X8428810Y-17272429D01*
X8419286Y-17253381D01*
X8409762Y-17215286D01*
X8409762Y-17167667D01*
X8419286Y-17129571D01*
X8428810Y-17110524D01*
X8438333Y-17101000D01*
X8457381Y-17091476D01*
X8609762Y-17291476D02*
X8609762Y-17158143D01*
X8609762Y-17177190D02*
X8619286Y-17167667D01*
X8638333Y-17158143D01*
X8666905Y-17158143D01*
X8685952Y-17167667D01*
X8695476Y-17186714D01*
X8695476Y-17291476D01*
X8695476Y-17186714D02*
X8705000Y-17167667D01*
X8724048Y-17158143D01*
X8752619Y-17158143D01*
X8771667Y-17167667D01*
X8781190Y-17186714D01*
X8781190Y-17291476D01*
X8876429Y-17291476D02*
X8876429Y-17158143D01*
X8876429Y-17177190D02*
X8885952Y-17167667D01*
X8905000Y-17158143D01*
X8933571Y-17158143D01*
X8952619Y-17167667D01*
X8962143Y-17186714D01*
X8962143Y-17291476D01*
X8962143Y-17186714D02*
X8971667Y-17167667D01*
X8990714Y-17158143D01*
X9019286Y-17158143D01*
X9038333Y-17167667D01*
X9047857Y-17186714D01*
X9047857Y-17291476D01*
X9438333Y-17081952D02*
X9266905Y-17339095D01*
X9695476Y-17091476D02*
X9714524Y-17091476D01*
X9733571Y-17101000D01*
X9743095Y-17110524D01*
X9752619Y-17129571D01*
X9762143Y-17167667D01*
X9762143Y-17215286D01*
X9752619Y-17253381D01*
X9743095Y-17272429D01*
X9733571Y-17281952D01*
X9714524Y-17291476D01*
X9695476Y-17291476D01*
X9676429Y-17281952D01*
X9666905Y-17272429D01*
X9657381Y-17253381D01*
X9647857Y-17215286D01*
X9647857Y-17167667D01*
X9657381Y-17129571D01*
X9666905Y-17110524D01*
X9676429Y-17101000D01*
X9695476Y-17091476D01*
X9847857Y-17272429D02*
X9857381Y-17281952D01*
X9847857Y-17291476D01*
X9838333Y-17281952D01*
X9847857Y-17272429D01*
X9847857Y-17291476D01*
X9981190Y-17091476D02*
X10000238Y-17091476D01*
X10019286Y-17101000D01*
X10028810Y-17110524D01*
X10038333Y-17129571D01*
X10047857Y-17167667D01*
X10047857Y-17215286D01*
X10038333Y-17253381D01*
X10028810Y-17272429D01*
X10019286Y-17281952D01*
X10000238Y-17291476D01*
X9981190Y-17291476D01*
X9962143Y-17281952D01*
X9952619Y-17272429D01*
X9943095Y-17253381D01*
X9933571Y-17215286D01*
X9933571Y-17167667D01*
X9943095Y-17129571D01*
X9952619Y-17110524D01*
X9962143Y-17101000D01*
X9981190Y-17091476D01*
X10114524Y-17091476D02*
X10238333Y-17091476D01*
X10171667Y-17167667D01*
X10200238Y-17167667D01*
X10219286Y-17177190D01*
X10228810Y-17186714D01*
X10238333Y-17205762D01*
X10238333Y-17253381D01*
X10228810Y-17272429D01*
X10219286Y-17281952D01*
X10200238Y-17291476D01*
X10143095Y-17291476D01*
X10124048Y-17281952D01*
X10114524Y-17272429D01*
X10333571Y-17291476D02*
X10371667Y-17291476D01*
X10390714Y-17281952D01*
X10400238Y-17272429D01*
X10419286Y-17243857D01*
X10428810Y-17205762D01*
X10428810Y-17129571D01*
X10419286Y-17110524D01*
X10409762Y-17101000D01*
X10390714Y-17091476D01*
X10352619Y-17091476D01*
X10333571Y-17101000D01*
X10324048Y-17110524D01*
X10314524Y-17129571D01*
X10314524Y-17177190D01*
X10324048Y-17196238D01*
X10333571Y-17205762D01*
X10352619Y-17215286D01*
X10390714Y-17215286D01*
X10409762Y-17205762D01*
X10419286Y-17196238D01*
X10428810Y-17177190D01*
X10600238Y-17158143D02*
X10600238Y-17291476D01*
X10552619Y-17081952D02*
X10505000Y-17224810D01*
X10628810Y-17224810D01*
X10695476Y-17091476D02*
X10695476Y-17129571D01*
X10771667Y-17091476D02*
X10771667Y-17129571D01*
X11066905Y-17367667D02*
X11057381Y-17358143D01*
X11038333Y-17329571D01*
X11028810Y-17310524D01*
X11019286Y-17281952D01*
X11009762Y-17234333D01*
X11009762Y-17196238D01*
X11019286Y-17148619D01*
X11028810Y-17120048D01*
X11038333Y-17101000D01*
X11057381Y-17072429D01*
X11066905Y-17062905D01*
X11247857Y-17291476D02*
X11133571Y-17291476D01*
X11190714Y-17291476D02*
X11190714Y-17091476D01*
X11171667Y-17120048D01*
X11152619Y-17139095D01*
X11133571Y-17148619D01*
X11324048Y-17110524D02*
X11333571Y-17101000D01*
X11352619Y-17091476D01*
X11400238Y-17091476D01*
X11419286Y-17101000D01*
X11428809Y-17110524D01*
X11438333Y-17129571D01*
X11438333Y-17148619D01*
X11428809Y-17177190D01*
X11314524Y-17291476D01*
X11438333Y-17291476D01*
X11676428Y-17291476D02*
X11676428Y-17091476D01*
X11762143Y-17291476D02*
X11762143Y-17186714D01*
X11752619Y-17167667D01*
X11733571Y-17158143D01*
X11705000Y-17158143D01*
X11685952Y-17167667D01*
X11676428Y-17177190D01*
X11885952Y-17291476D02*
X11866905Y-17281952D01*
X11857381Y-17272429D01*
X11847857Y-17253381D01*
X11847857Y-17196238D01*
X11857381Y-17177190D01*
X11866905Y-17167667D01*
X11885952Y-17158143D01*
X11914524Y-17158143D01*
X11933571Y-17167667D01*
X11943095Y-17177190D01*
X11952619Y-17196238D01*
X11952619Y-17253381D01*
X11943095Y-17272429D01*
X11933571Y-17281952D01*
X11914524Y-17291476D01*
X11885952Y-17291476D01*
X12066905Y-17291476D02*
X12047857Y-17281952D01*
X12038333Y-17262905D01*
X12038333Y-17091476D01*
X12219286Y-17281952D02*
X12200238Y-17291476D01*
X12162143Y-17291476D01*
X12143095Y-17281952D01*
X12133571Y-17262905D01*
X12133571Y-17186714D01*
X12143095Y-17167667D01*
X12162143Y-17158143D01*
X12200238Y-17158143D01*
X12219286Y-17167667D01*
X12228809Y-17186714D01*
X12228809Y-17205762D01*
X12133571Y-17224810D01*
X12305000Y-17281952D02*
X12324048Y-17291476D01*
X12362143Y-17291476D01*
X12381190Y-17281952D01*
X12390714Y-17262905D01*
X12390714Y-17253381D01*
X12381190Y-17234333D01*
X12362143Y-17224810D01*
X12333571Y-17224810D01*
X12314524Y-17215286D01*
X12305000Y-17196238D01*
X12305000Y-17186714D01*
X12314524Y-17167667D01*
X12333571Y-17158143D01*
X12362143Y-17158143D01*
X12381190Y-17167667D01*
X12457381Y-17367667D02*
X12466905Y-17358143D01*
X12485952Y-17329571D01*
X12495476Y-17310524D01*
X12505000Y-17281952D01*
X12514524Y-17234333D01*
X12514524Y-17196238D01*
X12505000Y-17148619D01*
X12495476Y-17120048D01*
X12485952Y-17101000D01*
X12466905Y-17072429D01*
X12457381Y-17062905D01*
D15*
X7385000Y-17410000D02*
X7495000Y-17520000D01*
X7495000Y-17410000D02*
X7385000Y-17520000D01*
X7495000Y-17465000D02*
G75*
G03*
X7495000Y-17465000I-55000J0D01*
G01*
D11*
X7857381Y-17555476D02*
X7743095Y-17555476D01*
X7800238Y-17555476D02*
X7800238Y-17355476D01*
X7781190Y-17384048D01*
X7762143Y-17403095D01*
X7743095Y-17412619D01*
X7943095Y-17536429D02*
X7952619Y-17545952D01*
X7943095Y-17555476D01*
X7933571Y-17545952D01*
X7943095Y-17536429D01*
X7943095Y-17555476D01*
X8143095Y-17555476D02*
X8028809Y-17555476D01*
X8085952Y-17555476D02*
X8085952Y-17355476D01*
X8066905Y-17384048D01*
X8047857Y-17403095D01*
X8028809Y-17412619D01*
X8266905Y-17355476D02*
X8285952Y-17355476D01*
X8305000Y-17365000D01*
X8314524Y-17374524D01*
X8324048Y-17393571D01*
X8333571Y-17431667D01*
X8333571Y-17479286D01*
X8324048Y-17517381D01*
X8314524Y-17536429D01*
X8305000Y-17545952D01*
X8285952Y-17555476D01*
X8266905Y-17555476D01*
X8247857Y-17545952D01*
X8238333Y-17536429D01*
X8228809Y-17517381D01*
X8219286Y-17479286D01*
X8219286Y-17431667D01*
X8228809Y-17393571D01*
X8238333Y-17374524D01*
X8247857Y-17365000D01*
X8266905Y-17355476D01*
X8457381Y-17355476D02*
X8476429Y-17355476D01*
X8495476Y-17365000D01*
X8505000Y-17374524D01*
X8514524Y-17393571D01*
X8524048Y-17431667D01*
X8524048Y-17479286D01*
X8514524Y-17517381D01*
X8505000Y-17536429D01*
X8495476Y-17545952D01*
X8476429Y-17555476D01*
X8457381Y-17555476D01*
X8438333Y-17545952D01*
X8428810Y-17536429D01*
X8419286Y-17517381D01*
X8409762Y-17479286D01*
X8409762Y-17431667D01*
X8419286Y-17393571D01*
X8428810Y-17374524D01*
X8438333Y-17365000D01*
X8457381Y-17355476D01*
X8609762Y-17555476D02*
X8609762Y-17422143D01*
X8609762Y-17441190D02*
X8619286Y-17431667D01*
X8638333Y-17422143D01*
X8666905Y-17422143D01*
X8685952Y-17431667D01*
X8695476Y-17450714D01*
X8695476Y-17555476D01*
X8695476Y-17450714D02*
X8705000Y-17431667D01*
X8724048Y-17422143D01*
X8752619Y-17422143D01*
X8771667Y-17431667D01*
X8781190Y-17450714D01*
X8781190Y-17555476D01*
X8876429Y-17555476D02*
X8876429Y-17422143D01*
X8876429Y-17441190D02*
X8885952Y-17431667D01*
X8905000Y-17422143D01*
X8933571Y-17422143D01*
X8952619Y-17431667D01*
X8962143Y-17450714D01*
X8962143Y-17555476D01*
X8962143Y-17450714D02*
X8971667Y-17431667D01*
X8990714Y-17422143D01*
X9019286Y-17422143D01*
X9038333Y-17431667D01*
X9047857Y-17450714D01*
X9047857Y-17555476D01*
X9438333Y-17345952D02*
X9266905Y-17603095D01*
X9695476Y-17355476D02*
X9714524Y-17355476D01*
X9733571Y-17365000D01*
X9743095Y-17374524D01*
X9752619Y-17393571D01*
X9762143Y-17431667D01*
X9762143Y-17479286D01*
X9752619Y-17517381D01*
X9743095Y-17536429D01*
X9733571Y-17545952D01*
X9714524Y-17555476D01*
X9695476Y-17555476D01*
X9676429Y-17545952D01*
X9666905Y-17536429D01*
X9657381Y-17517381D01*
X9647857Y-17479286D01*
X9647857Y-17431667D01*
X9657381Y-17393571D01*
X9666905Y-17374524D01*
X9676429Y-17365000D01*
X9695476Y-17355476D01*
X9847857Y-17536429D02*
X9857381Y-17545952D01*
X9847857Y-17555476D01*
X9838333Y-17545952D01*
X9847857Y-17536429D01*
X9847857Y-17555476D01*
X9981190Y-17355476D02*
X10000238Y-17355476D01*
X10019286Y-17365000D01*
X10028810Y-17374524D01*
X10038333Y-17393571D01*
X10047857Y-17431667D01*
X10047857Y-17479286D01*
X10038333Y-17517381D01*
X10028810Y-17536429D01*
X10019286Y-17545952D01*
X10000238Y-17555476D01*
X9981190Y-17555476D01*
X9962143Y-17545952D01*
X9952619Y-17536429D01*
X9943095Y-17517381D01*
X9933571Y-17479286D01*
X9933571Y-17431667D01*
X9943095Y-17393571D01*
X9952619Y-17374524D01*
X9962143Y-17365000D01*
X9981190Y-17355476D01*
X10219286Y-17422143D02*
X10219286Y-17555476D01*
X10171667Y-17345952D02*
X10124048Y-17488810D01*
X10247857Y-17488810D01*
X10305000Y-17355476D02*
X10428810Y-17355476D01*
X10362143Y-17431667D01*
X10390714Y-17431667D01*
X10409762Y-17441190D01*
X10419286Y-17450714D01*
X10428810Y-17469762D01*
X10428810Y-17517381D01*
X10419286Y-17536429D01*
X10409762Y-17545952D01*
X10390714Y-17555476D01*
X10333571Y-17555476D01*
X10314524Y-17545952D01*
X10305000Y-17536429D01*
X10495476Y-17355476D02*
X10619286Y-17355476D01*
X10552619Y-17431667D01*
X10581190Y-17431667D01*
X10600238Y-17441190D01*
X10609762Y-17450714D01*
X10619286Y-17469762D01*
X10619286Y-17517381D01*
X10609762Y-17536429D01*
X10600238Y-17545952D01*
X10581190Y-17555476D01*
X10524048Y-17555476D01*
X10505000Y-17545952D01*
X10495476Y-17536429D01*
X10695476Y-17355476D02*
X10695476Y-17393571D01*
X10771667Y-17355476D02*
X10771667Y-17393571D01*
X11066905Y-17631667D02*
X11057381Y-17622143D01*
X11038333Y-17593571D01*
X11028810Y-17574524D01*
X11019286Y-17545952D01*
X11009762Y-17498333D01*
X11009762Y-17460238D01*
X11019286Y-17412619D01*
X11028810Y-17384048D01*
X11038333Y-17365000D01*
X11057381Y-17336429D01*
X11066905Y-17326905D01*
X11247857Y-17555476D02*
X11133571Y-17555476D01*
X11190714Y-17555476D02*
X11190714Y-17355476D01*
X11171667Y-17384048D01*
X11152619Y-17403095D01*
X11133571Y-17412619D01*
X11419286Y-17355476D02*
X11381190Y-17355476D01*
X11362143Y-17365000D01*
X11352619Y-17374524D01*
X11333571Y-17403095D01*
X11324048Y-17441190D01*
X11324048Y-17517381D01*
X11333571Y-17536429D01*
X11343095Y-17545952D01*
X11362143Y-17555476D01*
X11400238Y-17555476D01*
X11419286Y-17545952D01*
X11428809Y-17536429D01*
X11438333Y-17517381D01*
X11438333Y-17469762D01*
X11428809Y-17450714D01*
X11419286Y-17441190D01*
X11400238Y-17431667D01*
X11362143Y-17431667D01*
X11343095Y-17441190D01*
X11333571Y-17450714D01*
X11324048Y-17469762D01*
X11676428Y-17555476D02*
X11676428Y-17355476D01*
X11762143Y-17555476D02*
X11762143Y-17450714D01*
X11752619Y-17431667D01*
X11733571Y-17422143D01*
X11705000Y-17422143D01*
X11685952Y-17431667D01*
X11676428Y-17441190D01*
X11885952Y-17555476D02*
X11866905Y-17545952D01*
X11857381Y-17536429D01*
X11847857Y-17517381D01*
X11847857Y-17460238D01*
X11857381Y-17441190D01*
X11866905Y-17431667D01*
X11885952Y-17422143D01*
X11914524Y-17422143D01*
X11933571Y-17431667D01*
X11943095Y-17441190D01*
X11952619Y-17460238D01*
X11952619Y-17517381D01*
X11943095Y-17536429D01*
X11933571Y-17545952D01*
X11914524Y-17555476D01*
X11885952Y-17555476D01*
X12066905Y-17555476D02*
X12047857Y-17545952D01*
X12038333Y-17526905D01*
X12038333Y-17355476D01*
X12219286Y-17545952D02*
X12200238Y-17555476D01*
X12162143Y-17555476D01*
X12143095Y-17545952D01*
X12133571Y-17526905D01*
X12133571Y-17450714D01*
X12143095Y-17431667D01*
X12162143Y-17422143D01*
X12200238Y-17422143D01*
X12219286Y-17431667D01*
X12228809Y-17450714D01*
X12228809Y-17469762D01*
X12133571Y-17488810D01*
X12305000Y-17545952D02*
X12324048Y-17555476D01*
X12362143Y-17555476D01*
X12381190Y-17545952D01*
X12390714Y-17526905D01*
X12390714Y-17517381D01*
X12381190Y-17498333D01*
X12362143Y-17488810D01*
X12333571Y-17488810D01*
X12314524Y-17479286D01*
X12305000Y-17460238D01*
X12305000Y-17450714D01*
X12314524Y-17431667D01*
X12333571Y-17422143D01*
X12362143Y-17422143D01*
X12381190Y-17431667D01*
X12457381Y-17631667D02*
X12466905Y-17622143D01*
X12485952Y-17593571D01*
X12495476Y-17574524D01*
X12505000Y-17545952D01*
X12514524Y-17498333D01*
X12514524Y-17460238D01*
X12505000Y-17412619D01*
X12495476Y-17384048D01*
X12485952Y-17365000D01*
X12466905Y-17336429D01*
X12457381Y-17326905D01*
D16*
X7376000Y-17669500D02*
X7495000Y-17788500D01*
X7495000Y-17669500D02*
X7376000Y-17788500D01*
X7435500Y-17669500D02*
X7435500Y-17788500D01*
X7376000Y-17729000D02*
X7495000Y-17729000D01*
D11*
X7857381Y-17819476D02*
X7743095Y-17819476D01*
X7800238Y-17819476D02*
X7800238Y-17619476D01*
X7781190Y-17648048D01*
X7762143Y-17667095D01*
X7743095Y-17676619D01*
X7943095Y-17800429D02*
X7952619Y-17809952D01*
X7943095Y-17819476D01*
X7933571Y-17809952D01*
X7943095Y-17800429D01*
X7943095Y-17819476D01*
X8143095Y-17819476D02*
X8028809Y-17819476D01*
X8085952Y-17819476D02*
X8085952Y-17619476D01*
X8066905Y-17648048D01*
X8047857Y-17667095D01*
X8028809Y-17676619D01*
X8238333Y-17819476D02*
X8276428Y-17819476D01*
X8295476Y-17809952D01*
X8305000Y-17800429D01*
X8324048Y-17771857D01*
X8333571Y-17733762D01*
X8333571Y-17657571D01*
X8324048Y-17638524D01*
X8314524Y-17629000D01*
X8295476Y-17619476D01*
X8257381Y-17619476D01*
X8238333Y-17629000D01*
X8228809Y-17638524D01*
X8219286Y-17657571D01*
X8219286Y-17705190D01*
X8228809Y-17724238D01*
X8238333Y-17733762D01*
X8257381Y-17743286D01*
X8295476Y-17743286D01*
X8314524Y-17733762D01*
X8324048Y-17724238D01*
X8333571Y-17705190D01*
X8457381Y-17619476D02*
X8476429Y-17619476D01*
X8495476Y-17629000D01*
X8505000Y-17638524D01*
X8514524Y-17657571D01*
X8524048Y-17695667D01*
X8524048Y-17743286D01*
X8514524Y-17781381D01*
X8505000Y-17800429D01*
X8495476Y-17809952D01*
X8476429Y-17819476D01*
X8457381Y-17819476D01*
X8438333Y-17809952D01*
X8428810Y-17800429D01*
X8419286Y-17781381D01*
X8409762Y-17743286D01*
X8409762Y-17695667D01*
X8419286Y-17657571D01*
X8428810Y-17638524D01*
X8438333Y-17629000D01*
X8457381Y-17619476D01*
X8609762Y-17819476D02*
X8609762Y-17686143D01*
X8609762Y-17705190D02*
X8619286Y-17695667D01*
X8638333Y-17686143D01*
X8666905Y-17686143D01*
X8685952Y-17695667D01*
X8695476Y-17714714D01*
X8695476Y-17819476D01*
X8695476Y-17714714D02*
X8705000Y-17695667D01*
X8724048Y-17686143D01*
X8752619Y-17686143D01*
X8771667Y-17695667D01*
X8781190Y-17714714D01*
X8781190Y-17819476D01*
X8876429Y-17819476D02*
X8876429Y-17686143D01*
X8876429Y-17705190D02*
X8885952Y-17695667D01*
X8905000Y-17686143D01*
X8933571Y-17686143D01*
X8952619Y-17695667D01*
X8962143Y-17714714D01*
X8962143Y-17819476D01*
X8962143Y-17714714D02*
X8971667Y-17695667D01*
X8990714Y-17686143D01*
X9019286Y-17686143D01*
X9038333Y-17695667D01*
X9047857Y-17714714D01*
X9047857Y-17819476D01*
X9438333Y-17609952D02*
X9266905Y-17867095D01*
X9695476Y-17619476D02*
X9714524Y-17619476D01*
X9733571Y-17629000D01*
X9743095Y-17638524D01*
X9752619Y-17657571D01*
X9762143Y-17695667D01*
X9762143Y-17743286D01*
X9752619Y-17781381D01*
X9743095Y-17800429D01*
X9733571Y-17809952D01*
X9714524Y-17819476D01*
X9695476Y-17819476D01*
X9676429Y-17809952D01*
X9666905Y-17800429D01*
X9657381Y-17781381D01*
X9647857Y-17743286D01*
X9647857Y-17695667D01*
X9657381Y-17657571D01*
X9666905Y-17638524D01*
X9676429Y-17629000D01*
X9695476Y-17619476D01*
X9847857Y-17800429D02*
X9857381Y-17809952D01*
X9847857Y-17819476D01*
X9838333Y-17809952D01*
X9847857Y-17800429D01*
X9847857Y-17819476D01*
X9981190Y-17619476D02*
X10000238Y-17619476D01*
X10019286Y-17629000D01*
X10028810Y-17638524D01*
X10038333Y-17657571D01*
X10047857Y-17695667D01*
X10047857Y-17743286D01*
X10038333Y-17781381D01*
X10028810Y-17800429D01*
X10019286Y-17809952D01*
X10000238Y-17819476D01*
X9981190Y-17819476D01*
X9962143Y-17809952D01*
X9952619Y-17800429D01*
X9943095Y-17781381D01*
X9933571Y-17743286D01*
X9933571Y-17695667D01*
X9943095Y-17657571D01*
X9952619Y-17638524D01*
X9962143Y-17629000D01*
X9981190Y-17619476D01*
X10219286Y-17686143D02*
X10219286Y-17819476D01*
X10171667Y-17609952D02*
X10124048Y-17752810D01*
X10247857Y-17752810D01*
X10409762Y-17619476D02*
X10371667Y-17619476D01*
X10352619Y-17629000D01*
X10343095Y-17638524D01*
X10324048Y-17667095D01*
X10314524Y-17705190D01*
X10314524Y-17781381D01*
X10324048Y-17800429D01*
X10333571Y-17809952D01*
X10352619Y-17819476D01*
X10390714Y-17819476D01*
X10409762Y-17809952D01*
X10419286Y-17800429D01*
X10428810Y-17781381D01*
X10428810Y-17733762D01*
X10419286Y-17714714D01*
X10409762Y-17705190D01*
X10390714Y-17695667D01*
X10352619Y-17695667D01*
X10333571Y-17705190D01*
X10324048Y-17714714D01*
X10314524Y-17733762D01*
X10524048Y-17819476D02*
X10562143Y-17819476D01*
X10581190Y-17809952D01*
X10590714Y-17800429D01*
X10609762Y-17771857D01*
X10619286Y-17733762D01*
X10619286Y-17657571D01*
X10609762Y-17638524D01*
X10600238Y-17629000D01*
X10581190Y-17619476D01*
X10543095Y-17619476D01*
X10524048Y-17629000D01*
X10514524Y-17638524D01*
X10505000Y-17657571D01*
X10505000Y-17705190D01*
X10514524Y-17724238D01*
X10524048Y-17733762D01*
X10543095Y-17743286D01*
X10581190Y-17743286D01*
X10600238Y-17733762D01*
X10609762Y-17724238D01*
X10619286Y-17705190D01*
X10695476Y-17619476D02*
X10695476Y-17657571D01*
X10771667Y-17619476D02*
X10771667Y-17657571D01*
X11066905Y-17895667D02*
X11057381Y-17886143D01*
X11038333Y-17857571D01*
X11028810Y-17838524D01*
X11019286Y-17809952D01*
X11009762Y-17762333D01*
X11009762Y-17724238D01*
X11019286Y-17676619D01*
X11028810Y-17648048D01*
X11038333Y-17629000D01*
X11057381Y-17600429D01*
X11066905Y-17590905D01*
X11124048Y-17619476D02*
X11247857Y-17619476D01*
X11181190Y-17695667D01*
X11209762Y-17695667D01*
X11228809Y-17705190D01*
X11238333Y-17714714D01*
X11247857Y-17733762D01*
X11247857Y-17781381D01*
X11238333Y-17800429D01*
X11228809Y-17809952D01*
X11209762Y-17819476D01*
X11152619Y-17819476D01*
X11133571Y-17809952D01*
X11124048Y-17800429D01*
X11485952Y-17819476D02*
X11485952Y-17619476D01*
X11571667Y-17819476D02*
X11571667Y-17714714D01*
X11562143Y-17695667D01*
X11543095Y-17686143D01*
X11514524Y-17686143D01*
X11495476Y-17695667D01*
X11485952Y-17705190D01*
X11695476Y-17819476D02*
X11676428Y-17809952D01*
X11666905Y-17800429D01*
X11657381Y-17781381D01*
X11657381Y-17724238D01*
X11666905Y-17705190D01*
X11676428Y-17695667D01*
X11695476Y-17686143D01*
X11724048Y-17686143D01*
X11743095Y-17695667D01*
X11752619Y-17705190D01*
X11762143Y-17724238D01*
X11762143Y-17781381D01*
X11752619Y-17800429D01*
X11743095Y-17809952D01*
X11724048Y-17819476D01*
X11695476Y-17819476D01*
X11876428Y-17819476D02*
X11857381Y-17809952D01*
X11847857Y-17790905D01*
X11847857Y-17619476D01*
X12028809Y-17809952D02*
X12009762Y-17819476D01*
X11971667Y-17819476D01*
X11952619Y-17809952D01*
X11943095Y-17790905D01*
X11943095Y-17714714D01*
X11952619Y-17695667D01*
X11971667Y-17686143D01*
X12009762Y-17686143D01*
X12028809Y-17695667D01*
X12038333Y-17714714D01*
X12038333Y-17733762D01*
X11943095Y-17752810D01*
X12114524Y-17809952D02*
X12133571Y-17819476D01*
X12171667Y-17819476D01*
X12190714Y-17809952D01*
X12200238Y-17790905D01*
X12200238Y-17781381D01*
X12190714Y-17762333D01*
X12171667Y-17752810D01*
X12143095Y-17752810D01*
X12124048Y-17743286D01*
X12114524Y-17724238D01*
X12114524Y-17714714D01*
X12124048Y-17695667D01*
X12143095Y-17686143D01*
X12171667Y-17686143D01*
X12190714Y-17695667D01*
X12266905Y-17895667D02*
X12276428Y-17886143D01*
X12295476Y-17857571D01*
X12305000Y-17838524D01*
X12314524Y-17809952D01*
X12324048Y-17762333D01*
X12324048Y-17724238D01*
X12314524Y-17676619D01*
X12305000Y-17648048D01*
X12295476Y-17629000D01*
X12276428Y-17600429D01*
X12266905Y-17590905D01*
D17*
X7375000Y-17933000D02*
X7495000Y-18053000D01*
X7495000Y-17933000D02*
X7375000Y-18053000D01*
X7477427Y-18035427D02*
X7477427Y-17950573D01*
X7392573Y-17950573D01*
X7392573Y-18035427D01*
X7477427Y-18035427D01*
D11*
X7857381Y-18083476D02*
X7743095Y-18083476D01*
X7800238Y-18083476D02*
X7800238Y-17883476D01*
X7781190Y-17912048D01*
X7762143Y-17931095D01*
X7743095Y-17940619D01*
X7943095Y-18064429D02*
X7952619Y-18073952D01*
X7943095Y-18083476D01*
X7933571Y-18073952D01*
X7943095Y-18064429D01*
X7943095Y-18083476D01*
X8028809Y-17902524D02*
X8038333Y-17893000D01*
X8057381Y-17883476D01*
X8105000Y-17883476D01*
X8124048Y-17893000D01*
X8133571Y-17902524D01*
X8143095Y-17921571D01*
X8143095Y-17940619D01*
X8133571Y-17969190D01*
X8019286Y-18083476D01*
X8143095Y-18083476D01*
X8266905Y-17883476D02*
X8285952Y-17883476D01*
X8305000Y-17893000D01*
X8314524Y-17902524D01*
X8324048Y-17921571D01*
X8333571Y-17959667D01*
X8333571Y-18007286D01*
X8324048Y-18045381D01*
X8314524Y-18064429D01*
X8305000Y-18073952D01*
X8285952Y-18083476D01*
X8266905Y-18083476D01*
X8247857Y-18073952D01*
X8238333Y-18064429D01*
X8228809Y-18045381D01*
X8219286Y-18007286D01*
X8219286Y-17959667D01*
X8228809Y-17921571D01*
X8238333Y-17902524D01*
X8247857Y-17893000D01*
X8266905Y-17883476D01*
X8457381Y-17883476D02*
X8476429Y-17883476D01*
X8495476Y-17893000D01*
X8505000Y-17902524D01*
X8514524Y-17921571D01*
X8524048Y-17959667D01*
X8524048Y-18007286D01*
X8514524Y-18045381D01*
X8505000Y-18064429D01*
X8495476Y-18073952D01*
X8476429Y-18083476D01*
X8457381Y-18083476D01*
X8438333Y-18073952D01*
X8428810Y-18064429D01*
X8419286Y-18045381D01*
X8409762Y-18007286D01*
X8409762Y-17959667D01*
X8419286Y-17921571D01*
X8428810Y-17902524D01*
X8438333Y-17893000D01*
X8457381Y-17883476D01*
X8609762Y-18083476D02*
X8609762Y-17950143D01*
X8609762Y-17969190D02*
X8619286Y-17959667D01*
X8638333Y-17950143D01*
X8666905Y-17950143D01*
X8685952Y-17959667D01*
X8695476Y-17978714D01*
X8695476Y-18083476D01*
X8695476Y-17978714D02*
X8705000Y-17959667D01*
X8724048Y-17950143D01*
X8752619Y-17950143D01*
X8771667Y-17959667D01*
X8781190Y-17978714D01*
X8781190Y-18083476D01*
X8876429Y-18083476D02*
X8876429Y-17950143D01*
X8876429Y-17969190D02*
X8885952Y-17959667D01*
X8905000Y-17950143D01*
X8933571Y-17950143D01*
X8952619Y-17959667D01*
X8962143Y-17978714D01*
X8962143Y-18083476D01*
X8962143Y-17978714D02*
X8971667Y-17959667D01*
X8990714Y-17950143D01*
X9019286Y-17950143D01*
X9038333Y-17959667D01*
X9047857Y-17978714D01*
X9047857Y-18083476D01*
X9438333Y-17873952D02*
X9266905Y-18131095D01*
X9695476Y-17883476D02*
X9714524Y-17883476D01*
X9733571Y-17893000D01*
X9743095Y-17902524D01*
X9752619Y-17921571D01*
X9762143Y-17959667D01*
X9762143Y-18007286D01*
X9752619Y-18045381D01*
X9743095Y-18064429D01*
X9733571Y-18073952D01*
X9714524Y-18083476D01*
X9695476Y-18083476D01*
X9676429Y-18073952D01*
X9666905Y-18064429D01*
X9657381Y-18045381D01*
X9647857Y-18007286D01*
X9647857Y-17959667D01*
X9657381Y-17921571D01*
X9666905Y-17902524D01*
X9676429Y-17893000D01*
X9695476Y-17883476D01*
X9847857Y-18064429D02*
X9857381Y-18073952D01*
X9847857Y-18083476D01*
X9838333Y-18073952D01*
X9847857Y-18064429D01*
X9847857Y-18083476D01*
X9981190Y-17883476D02*
X10000238Y-17883476D01*
X10019286Y-17893000D01*
X10028810Y-17902524D01*
X10038333Y-17921571D01*
X10047857Y-17959667D01*
X10047857Y-18007286D01*
X10038333Y-18045381D01*
X10028810Y-18064429D01*
X10019286Y-18073952D01*
X10000238Y-18083476D01*
X9981190Y-18083476D01*
X9962143Y-18073952D01*
X9952619Y-18064429D01*
X9943095Y-18045381D01*
X9933571Y-18007286D01*
X9933571Y-17959667D01*
X9943095Y-17921571D01*
X9952619Y-17902524D01*
X9962143Y-17893000D01*
X9981190Y-17883476D01*
X10219286Y-17950143D02*
X10219286Y-18083476D01*
X10171667Y-17873952D02*
X10124048Y-18016810D01*
X10247857Y-18016810D01*
X10305000Y-17883476D02*
X10438333Y-17883476D01*
X10352619Y-18083476D01*
X10505000Y-17902524D02*
X10514524Y-17893000D01*
X10533571Y-17883476D01*
X10581190Y-17883476D01*
X10600238Y-17893000D01*
X10609762Y-17902524D01*
X10619286Y-17921571D01*
X10619286Y-17940619D01*
X10609762Y-17969190D01*
X10495476Y-18083476D01*
X10619286Y-18083476D01*
X10695476Y-17883476D02*
X10695476Y-17921571D01*
X10771667Y-17883476D02*
X10771667Y-17921571D01*
X11066905Y-18159667D02*
X11057381Y-18150143D01*
X11038333Y-18121571D01*
X11028810Y-18102524D01*
X11019286Y-18073952D01*
X11009762Y-18026333D01*
X11009762Y-17988238D01*
X11019286Y-17940619D01*
X11028810Y-17912048D01*
X11038333Y-17893000D01*
X11057381Y-17864429D01*
X11066905Y-17854905D01*
X11133571Y-17902524D02*
X11143095Y-17893000D01*
X11162143Y-17883476D01*
X11209762Y-17883476D01*
X11228809Y-17893000D01*
X11238333Y-17902524D01*
X11247857Y-17921571D01*
X11247857Y-17940619D01*
X11238333Y-17969190D01*
X11124048Y-18083476D01*
X11247857Y-18083476D01*
X11419286Y-17950143D02*
X11419286Y-18083476D01*
X11371667Y-17873952D02*
X11324048Y-18016810D01*
X11447857Y-18016810D01*
X11676428Y-18083476D02*
X11676428Y-17883476D01*
X11762143Y-18083476D02*
X11762143Y-17978714D01*
X11752619Y-17959667D01*
X11733571Y-17950143D01*
X11705000Y-17950143D01*
X11685952Y-17959667D01*
X11676428Y-17969190D01*
X11885952Y-18083476D02*
X11866905Y-18073952D01*
X11857381Y-18064429D01*
X11847857Y-18045381D01*
X11847857Y-17988238D01*
X11857381Y-17969190D01*
X11866905Y-17959667D01*
X11885952Y-17950143D01*
X11914524Y-17950143D01*
X11933571Y-17959667D01*
X11943095Y-17969190D01*
X11952619Y-17988238D01*
X11952619Y-18045381D01*
X11943095Y-18064429D01*
X11933571Y-18073952D01*
X11914524Y-18083476D01*
X11885952Y-18083476D01*
X12066905Y-18083476D02*
X12047857Y-18073952D01*
X12038333Y-18054905D01*
X12038333Y-17883476D01*
X12219286Y-18073952D02*
X12200238Y-18083476D01*
X12162143Y-18083476D01*
X12143095Y-18073952D01*
X12133571Y-18054905D01*
X12133571Y-17978714D01*
X12143095Y-17959667D01*
X12162143Y-17950143D01*
X12200238Y-17950143D01*
X12219286Y-17959667D01*
X12228809Y-17978714D01*
X12228809Y-17997762D01*
X12133571Y-18016810D01*
X12305000Y-18073952D02*
X12324048Y-18083476D01*
X12362143Y-18083476D01*
X12381190Y-18073952D01*
X12390714Y-18054905D01*
X12390714Y-18045381D01*
X12381190Y-18026333D01*
X12362143Y-18016810D01*
X12333571Y-18016810D01*
X12314524Y-18007286D01*
X12305000Y-17988238D01*
X12305000Y-17978714D01*
X12314524Y-17959667D01*
X12333571Y-17950143D01*
X12362143Y-17950143D01*
X12381190Y-17959667D01*
X12457381Y-18159667D02*
X12466905Y-18150143D01*
X12485952Y-18121571D01*
X12495476Y-18102524D01*
X12505000Y-18073952D01*
X12514524Y-18026333D01*
X12514524Y-17988238D01*
X12505000Y-17940619D01*
X12495476Y-17912048D01*
X12485952Y-17893000D01*
X12466905Y-17864429D01*
X12457381Y-17854905D01*
D18*
X7365000Y-18192000D02*
X7495000Y-18322000D01*
X7495000Y-18192000D02*
X7365000Y-18322000D01*
X7430000Y-18322000D02*
X7495000Y-18257000D01*
X7430000Y-18192000D01*
X7365000Y-18257000D01*
X7430000Y-18322000D01*
D11*
X7857381Y-18347476D02*
X7743095Y-18347476D01*
X7800238Y-18347476D02*
X7800238Y-18147476D01*
X7781190Y-18176048D01*
X7762143Y-18195095D01*
X7743095Y-18204619D01*
X7943095Y-18328429D02*
X7952619Y-18337952D01*
X7943095Y-18347476D01*
X7933571Y-18337952D01*
X7943095Y-18328429D01*
X7943095Y-18347476D01*
X8019286Y-18147476D02*
X8143095Y-18147476D01*
X8076428Y-18223667D01*
X8105000Y-18223667D01*
X8124048Y-18233190D01*
X8133571Y-18242714D01*
X8143095Y-18261762D01*
X8143095Y-18309381D01*
X8133571Y-18328429D01*
X8124048Y-18337952D01*
X8105000Y-18347476D01*
X8047857Y-18347476D01*
X8028809Y-18337952D01*
X8019286Y-18328429D01*
X8266905Y-18147476D02*
X8285952Y-18147476D01*
X8305000Y-18157000D01*
X8314524Y-18166524D01*
X8324048Y-18185571D01*
X8333571Y-18223667D01*
X8333571Y-18271286D01*
X8324048Y-18309381D01*
X8314524Y-18328429D01*
X8305000Y-18337952D01*
X8285952Y-18347476D01*
X8266905Y-18347476D01*
X8247857Y-18337952D01*
X8238333Y-18328429D01*
X8228809Y-18309381D01*
X8219286Y-18271286D01*
X8219286Y-18223667D01*
X8228809Y-18185571D01*
X8238333Y-18166524D01*
X8247857Y-18157000D01*
X8266905Y-18147476D01*
X8457381Y-18147476D02*
X8476429Y-18147476D01*
X8495476Y-18157000D01*
X8505000Y-18166524D01*
X8514524Y-18185571D01*
X8524048Y-18223667D01*
X8524048Y-18271286D01*
X8514524Y-18309381D01*
X8505000Y-18328429D01*
X8495476Y-18337952D01*
X8476429Y-18347476D01*
X8457381Y-18347476D01*
X8438333Y-18337952D01*
X8428810Y-18328429D01*
X8419286Y-18309381D01*
X8409762Y-18271286D01*
X8409762Y-18223667D01*
X8419286Y-18185571D01*
X8428810Y-18166524D01*
X8438333Y-18157000D01*
X8457381Y-18147476D01*
X8609762Y-18347476D02*
X8609762Y-18214143D01*
X8609762Y-18233190D02*
X8619286Y-18223667D01*
X8638333Y-18214143D01*
X8666905Y-18214143D01*
X8685952Y-18223667D01*
X8695476Y-18242714D01*
X8695476Y-18347476D01*
X8695476Y-18242714D02*
X8705000Y-18223667D01*
X8724048Y-18214143D01*
X8752619Y-18214143D01*
X8771667Y-18223667D01*
X8781190Y-18242714D01*
X8781190Y-18347476D01*
X8876429Y-18347476D02*
X8876429Y-18214143D01*
X8876429Y-18233190D02*
X8885952Y-18223667D01*
X8905000Y-18214143D01*
X8933571Y-18214143D01*
X8952619Y-18223667D01*
X8962143Y-18242714D01*
X8962143Y-18347476D01*
X8962143Y-18242714D02*
X8971667Y-18223667D01*
X8990714Y-18214143D01*
X9019286Y-18214143D01*
X9038333Y-18223667D01*
X9047857Y-18242714D01*
X9047857Y-18347476D01*
X9438333Y-18137952D02*
X9266905Y-18395095D01*
X9695476Y-18147476D02*
X9714524Y-18147476D01*
X9733571Y-18157000D01*
X9743095Y-18166524D01*
X9752619Y-18185571D01*
X9762143Y-18223667D01*
X9762143Y-18271286D01*
X9752619Y-18309381D01*
X9743095Y-18328429D01*
X9733571Y-18337952D01*
X9714524Y-18347476D01*
X9695476Y-18347476D01*
X9676429Y-18337952D01*
X9666905Y-18328429D01*
X9657381Y-18309381D01*
X9647857Y-18271286D01*
X9647857Y-18223667D01*
X9657381Y-18185571D01*
X9666905Y-18166524D01*
X9676429Y-18157000D01*
X9695476Y-18147476D01*
X9847857Y-18328429D02*
X9857381Y-18337952D01*
X9847857Y-18347476D01*
X9838333Y-18337952D01*
X9847857Y-18328429D01*
X9847857Y-18347476D01*
X9981190Y-18147476D02*
X10000238Y-18147476D01*
X10019286Y-18157000D01*
X10028810Y-18166524D01*
X10038333Y-18185571D01*
X10047857Y-18223667D01*
X10047857Y-18271286D01*
X10038333Y-18309381D01*
X10028810Y-18328429D01*
X10019286Y-18337952D01*
X10000238Y-18347476D01*
X9981190Y-18347476D01*
X9962143Y-18337952D01*
X9952619Y-18328429D01*
X9943095Y-18309381D01*
X9933571Y-18271286D01*
X9933571Y-18223667D01*
X9943095Y-18185571D01*
X9952619Y-18166524D01*
X9962143Y-18157000D01*
X9981190Y-18147476D01*
X10228810Y-18147476D02*
X10133571Y-18147476D01*
X10124048Y-18242714D01*
X10133571Y-18233190D01*
X10152619Y-18223667D01*
X10200238Y-18223667D01*
X10219286Y-18233190D01*
X10228810Y-18242714D01*
X10238333Y-18261762D01*
X10238333Y-18309381D01*
X10228810Y-18328429D01*
X10219286Y-18337952D01*
X10200238Y-18347476D01*
X10152619Y-18347476D01*
X10133571Y-18337952D01*
X10124048Y-18328429D01*
X10428810Y-18347476D02*
X10314524Y-18347476D01*
X10371667Y-18347476D02*
X10371667Y-18147476D01*
X10352619Y-18176048D01*
X10333571Y-18195095D01*
X10314524Y-18204619D01*
X10505000Y-18166524D02*
X10514524Y-18157000D01*
X10533571Y-18147476D01*
X10581190Y-18147476D01*
X10600238Y-18157000D01*
X10609762Y-18166524D01*
X10619286Y-18185571D01*
X10619286Y-18204619D01*
X10609762Y-18233190D01*
X10495476Y-18347476D01*
X10619286Y-18347476D01*
X10695476Y-18147476D02*
X10695476Y-18185571D01*
X10771667Y-18147476D02*
X10771667Y-18185571D01*
X11066905Y-18423667D02*
X11057381Y-18414143D01*
X11038333Y-18385571D01*
X11028810Y-18366524D01*
X11019286Y-18337952D01*
X11009762Y-18290333D01*
X11009762Y-18252238D01*
X11019286Y-18204619D01*
X11028810Y-18176048D01*
X11038333Y-18157000D01*
X11057381Y-18128429D01*
X11066905Y-18118905D01*
X11247857Y-18347476D02*
X11133571Y-18347476D01*
X11190714Y-18347476D02*
X11190714Y-18147476D01*
X11171667Y-18176048D01*
X11152619Y-18195095D01*
X11133571Y-18204619D01*
X11371667Y-18147476D02*
X11390714Y-18147476D01*
X11409762Y-18157000D01*
X11419286Y-18166524D01*
X11428809Y-18185571D01*
X11438333Y-18223667D01*
X11438333Y-18271286D01*
X11428809Y-18309381D01*
X11419286Y-18328429D01*
X11409762Y-18337952D01*
X11390714Y-18347476D01*
X11371667Y-18347476D01*
X11352619Y-18337952D01*
X11343095Y-18328429D01*
X11333571Y-18309381D01*
X11324048Y-18271286D01*
X11324048Y-18223667D01*
X11333571Y-18185571D01*
X11343095Y-18166524D01*
X11352619Y-18157000D01*
X11371667Y-18147476D01*
X11676428Y-18347476D02*
X11676428Y-18147476D01*
X11762143Y-18347476D02*
X11762143Y-18242714D01*
X11752619Y-18223667D01*
X11733571Y-18214143D01*
X11705000Y-18214143D01*
X11685952Y-18223667D01*
X11676428Y-18233190D01*
X11885952Y-18347476D02*
X11866905Y-18337952D01*
X11857381Y-18328429D01*
X11847857Y-18309381D01*
X11847857Y-18252238D01*
X11857381Y-18233190D01*
X11866905Y-18223667D01*
X11885952Y-18214143D01*
X11914524Y-18214143D01*
X11933571Y-18223667D01*
X11943095Y-18233190D01*
X11952619Y-18252238D01*
X11952619Y-18309381D01*
X11943095Y-18328429D01*
X11933571Y-18337952D01*
X11914524Y-18347476D01*
X11885952Y-18347476D01*
X12066905Y-18347476D02*
X12047857Y-18337952D01*
X12038333Y-18318905D01*
X12038333Y-18147476D01*
X12219286Y-18337952D02*
X12200238Y-18347476D01*
X12162143Y-18347476D01*
X12143095Y-18337952D01*
X12133571Y-18318905D01*
X12133571Y-18242714D01*
X12143095Y-18223667D01*
X12162143Y-18214143D01*
X12200238Y-18214143D01*
X12219286Y-18223667D01*
X12228809Y-18242714D01*
X12228809Y-18261762D01*
X12133571Y-18280810D01*
X12305000Y-18337952D02*
X12324048Y-18347476D01*
X12362143Y-18347476D01*
X12381190Y-18337952D01*
X12390714Y-18318905D01*
X12390714Y-18309381D01*
X12381190Y-18290333D01*
X12362143Y-18280810D01*
X12333571Y-18280810D01*
X12314524Y-18271286D01*
X12305000Y-18252238D01*
X12305000Y-18242714D01*
X12314524Y-18223667D01*
X12333571Y-18214143D01*
X12362143Y-18214143D01*
X12381190Y-18223667D01*
X12457381Y-18423667D02*
X12466905Y-18414143D01*
X12485952Y-18385571D01*
X12495476Y-18366524D01*
X12505000Y-18337952D01*
X12514524Y-18290333D01*
X12514524Y-18252238D01*
X12505000Y-18204619D01*
X12495476Y-18176048D01*
X12485952Y-18157000D01*
X12466905Y-18128429D01*
X12457381Y-18118905D01*
D19*
X7420000Y-18446000D02*
X7420000Y-18596000D01*
X7345000Y-18521000D02*
X7495000Y-18521000D01*
X7495000Y-18521000D02*
G75*
G03*
X7495000Y-18521000I-75000J0D01*
G01*
D11*
X7857381Y-18611476D02*
X7743095Y-18611476D01*
X7800238Y-18611476D02*
X7800238Y-18411476D01*
X7781190Y-18440048D01*
X7762143Y-18459095D01*
X7743095Y-18468619D01*
X7943095Y-18592429D02*
X7952619Y-18601952D01*
X7943095Y-18611476D01*
X7933571Y-18601952D01*
X7943095Y-18592429D01*
X7943095Y-18611476D01*
X8133571Y-18411476D02*
X8038333Y-18411476D01*
X8028809Y-18506714D01*
X8038333Y-18497190D01*
X8057381Y-18487667D01*
X8105000Y-18487667D01*
X8124048Y-18497190D01*
X8133571Y-18506714D01*
X8143095Y-18525762D01*
X8143095Y-18573381D01*
X8133571Y-18592429D01*
X8124048Y-18601952D01*
X8105000Y-18611476D01*
X8057381Y-18611476D01*
X8038333Y-18601952D01*
X8028809Y-18592429D01*
X8266905Y-18411476D02*
X8285952Y-18411476D01*
X8305000Y-18421000D01*
X8314524Y-18430524D01*
X8324048Y-18449571D01*
X8333571Y-18487667D01*
X8333571Y-18535286D01*
X8324048Y-18573381D01*
X8314524Y-18592429D01*
X8305000Y-18601952D01*
X8285952Y-18611476D01*
X8266905Y-18611476D01*
X8247857Y-18601952D01*
X8238333Y-18592429D01*
X8228809Y-18573381D01*
X8219286Y-18535286D01*
X8219286Y-18487667D01*
X8228809Y-18449571D01*
X8238333Y-18430524D01*
X8247857Y-18421000D01*
X8266905Y-18411476D01*
X8457381Y-18411476D02*
X8476429Y-18411476D01*
X8495476Y-18421000D01*
X8505000Y-18430524D01*
X8514524Y-18449571D01*
X8524048Y-18487667D01*
X8524048Y-18535286D01*
X8514524Y-18573381D01*
X8505000Y-18592429D01*
X8495476Y-18601952D01*
X8476429Y-18611476D01*
X8457381Y-18611476D01*
X8438333Y-18601952D01*
X8428810Y-18592429D01*
X8419286Y-18573381D01*
X8409762Y-18535286D01*
X8409762Y-18487667D01*
X8419286Y-18449571D01*
X8428810Y-18430524D01*
X8438333Y-18421000D01*
X8457381Y-18411476D01*
X8609762Y-18611476D02*
X8609762Y-18478143D01*
X8609762Y-18497190D02*
X8619286Y-18487667D01*
X8638333Y-18478143D01*
X8666905Y-18478143D01*
X8685952Y-18487667D01*
X8695476Y-18506714D01*
X8695476Y-18611476D01*
X8695476Y-18506714D02*
X8705000Y-18487667D01*
X8724048Y-18478143D01*
X8752619Y-18478143D01*
X8771667Y-18487667D01*
X8781190Y-18506714D01*
X8781190Y-18611476D01*
X8876429Y-18611476D02*
X8876429Y-18478143D01*
X8876429Y-18497190D02*
X8885952Y-18487667D01*
X8905000Y-18478143D01*
X8933571Y-18478143D01*
X8952619Y-18487667D01*
X8962143Y-18506714D01*
X8962143Y-18611476D01*
X8962143Y-18506714D02*
X8971667Y-18487667D01*
X8990714Y-18478143D01*
X9019286Y-18478143D01*
X9038333Y-18487667D01*
X9047857Y-18506714D01*
X9047857Y-18611476D01*
X9438333Y-18401952D02*
X9266905Y-18659095D01*
X9695476Y-18411476D02*
X9714524Y-18411476D01*
X9733571Y-18421000D01*
X9743095Y-18430524D01*
X9752619Y-18449571D01*
X9762143Y-18487667D01*
X9762143Y-18535286D01*
X9752619Y-18573381D01*
X9743095Y-18592429D01*
X9733571Y-18601952D01*
X9714524Y-18611476D01*
X9695476Y-18611476D01*
X9676429Y-18601952D01*
X9666905Y-18592429D01*
X9657381Y-18573381D01*
X9647857Y-18535286D01*
X9647857Y-18487667D01*
X9657381Y-18449571D01*
X9666905Y-18430524D01*
X9676429Y-18421000D01*
X9695476Y-18411476D01*
X9847857Y-18592429D02*
X9857381Y-18601952D01*
X9847857Y-18611476D01*
X9838333Y-18601952D01*
X9847857Y-18592429D01*
X9847857Y-18611476D01*
X9981190Y-18411476D02*
X10000238Y-18411476D01*
X10019286Y-18421000D01*
X10028810Y-18430524D01*
X10038333Y-18449571D01*
X10047857Y-18487667D01*
X10047857Y-18535286D01*
X10038333Y-18573381D01*
X10028810Y-18592429D01*
X10019286Y-18601952D01*
X10000238Y-18611476D01*
X9981190Y-18611476D01*
X9962143Y-18601952D01*
X9952619Y-18592429D01*
X9943095Y-18573381D01*
X9933571Y-18535286D01*
X9933571Y-18487667D01*
X9943095Y-18449571D01*
X9952619Y-18430524D01*
X9962143Y-18421000D01*
X9981190Y-18411476D01*
X10228810Y-18411476D02*
X10133571Y-18411476D01*
X10124048Y-18506714D01*
X10133571Y-18497190D01*
X10152619Y-18487667D01*
X10200238Y-18487667D01*
X10219286Y-18497190D01*
X10228810Y-18506714D01*
X10238333Y-18525762D01*
X10238333Y-18573381D01*
X10228810Y-18592429D01*
X10219286Y-18601952D01*
X10200238Y-18611476D01*
X10152619Y-18611476D01*
X10133571Y-18601952D01*
X10124048Y-18592429D01*
X10333571Y-18611476D02*
X10371667Y-18611476D01*
X10390714Y-18601952D01*
X10400238Y-18592429D01*
X10419286Y-18563857D01*
X10428810Y-18525762D01*
X10428810Y-18449571D01*
X10419286Y-18430524D01*
X10409762Y-18421000D01*
X10390714Y-18411476D01*
X10352619Y-18411476D01*
X10333571Y-18421000D01*
X10324048Y-18430524D01*
X10314524Y-18449571D01*
X10314524Y-18497190D01*
X10324048Y-18516238D01*
X10333571Y-18525762D01*
X10352619Y-18535286D01*
X10390714Y-18535286D01*
X10409762Y-18525762D01*
X10419286Y-18516238D01*
X10428810Y-18497190D01*
X10619286Y-18611476D02*
X10505000Y-18611476D01*
X10562143Y-18611476D02*
X10562143Y-18411476D01*
X10543095Y-18440048D01*
X10524048Y-18459095D01*
X10505000Y-18468619D01*
X10695476Y-18411476D02*
X10695476Y-18449571D01*
X10771667Y-18411476D02*
X10771667Y-18449571D01*
X11066905Y-18687667D02*
X11057381Y-18678143D01*
X11038333Y-18649571D01*
X11028810Y-18630524D01*
X11019286Y-18601952D01*
X11009762Y-18554333D01*
X11009762Y-18516238D01*
X11019286Y-18468619D01*
X11028810Y-18440048D01*
X11038333Y-18421000D01*
X11057381Y-18392429D01*
X11066905Y-18382905D01*
X11228809Y-18478143D02*
X11228809Y-18611476D01*
X11181190Y-18401952D02*
X11133571Y-18544810D01*
X11257381Y-18544810D01*
X11485952Y-18611476D02*
X11485952Y-18411476D01*
X11571667Y-18611476D02*
X11571667Y-18506714D01*
X11562143Y-18487667D01*
X11543095Y-18478143D01*
X11514524Y-18478143D01*
X11495476Y-18487667D01*
X11485952Y-18497190D01*
X11695476Y-18611476D02*
X11676428Y-18601952D01*
X11666905Y-18592429D01*
X11657381Y-18573381D01*
X11657381Y-18516238D01*
X11666905Y-18497190D01*
X11676428Y-18487667D01*
X11695476Y-18478143D01*
X11724048Y-18478143D01*
X11743095Y-18487667D01*
X11752619Y-18497190D01*
X11762143Y-18516238D01*
X11762143Y-18573381D01*
X11752619Y-18592429D01*
X11743095Y-18601952D01*
X11724048Y-18611476D01*
X11695476Y-18611476D01*
X11876428Y-18611476D02*
X11857381Y-18601952D01*
X11847857Y-18582905D01*
X11847857Y-18411476D01*
X12028809Y-18601952D02*
X12009762Y-18611476D01*
X11971667Y-18611476D01*
X11952619Y-18601952D01*
X11943095Y-18582905D01*
X11943095Y-18506714D01*
X11952619Y-18487667D01*
X11971667Y-18478143D01*
X12009762Y-18478143D01*
X12028809Y-18487667D01*
X12038333Y-18506714D01*
X12038333Y-18525762D01*
X11943095Y-18544810D01*
X12114524Y-18601952D02*
X12133571Y-18611476D01*
X12171667Y-18611476D01*
X12190714Y-18601952D01*
X12200238Y-18582905D01*
X12200238Y-18573381D01*
X12190714Y-18554333D01*
X12171667Y-18544810D01*
X12143095Y-18544810D01*
X12124048Y-18535286D01*
X12114524Y-18516238D01*
X12114524Y-18506714D01*
X12124048Y-18487667D01*
X12143095Y-18478143D01*
X12171667Y-18478143D01*
X12190714Y-18487667D01*
X12266905Y-18687667D02*
X12276428Y-18678143D01*
X12295476Y-18649571D01*
X12305000Y-18630524D01*
X12314524Y-18601952D01*
X12324048Y-18554333D01*
X12324048Y-18516238D01*
X12314524Y-18468619D01*
X12305000Y-18440048D01*
X12295476Y-18421000D01*
X12276428Y-18392429D01*
X12266905Y-18382905D01*
D20*
X7471569Y-18847569D02*
X7471569Y-18734431D01*
X7358431Y-18734431D01*
X7358431Y-18847569D01*
X7471569Y-18847569D01*
X7495000Y-18791000D02*
G75*
G03*
X7495000Y-18791000I-80000J0D01*
G01*
D11*
X7857381Y-18881476D02*
X7743095Y-18881476D01*
X7800238Y-18881476D02*
X7800238Y-18681476D01*
X7781190Y-18710048D01*
X7762143Y-18729095D01*
X7743095Y-18738619D01*
X7943095Y-18862429D02*
X7952619Y-18871952D01*
X7943095Y-18881476D01*
X7933571Y-18871952D01*
X7943095Y-18862429D01*
X7943095Y-18881476D01*
X8124048Y-18681476D02*
X8085952Y-18681476D01*
X8066905Y-18691000D01*
X8057381Y-18700524D01*
X8038333Y-18729095D01*
X8028809Y-18767190D01*
X8028809Y-18843381D01*
X8038333Y-18862429D01*
X8047857Y-18871952D01*
X8066905Y-18881476D01*
X8105000Y-18881476D01*
X8124048Y-18871952D01*
X8133571Y-18862429D01*
X8143095Y-18843381D01*
X8143095Y-18795762D01*
X8133571Y-18776714D01*
X8124048Y-18767190D01*
X8105000Y-18757667D01*
X8066905Y-18757667D01*
X8047857Y-18767190D01*
X8038333Y-18776714D01*
X8028809Y-18795762D01*
X8266905Y-18681476D02*
X8285952Y-18681476D01*
X8305000Y-18691000D01*
X8314524Y-18700524D01*
X8324048Y-18719571D01*
X8333571Y-18757667D01*
X8333571Y-18805286D01*
X8324048Y-18843381D01*
X8314524Y-18862429D01*
X8305000Y-18871952D01*
X8285952Y-18881476D01*
X8266905Y-18881476D01*
X8247857Y-18871952D01*
X8238333Y-18862429D01*
X8228809Y-18843381D01*
X8219286Y-18805286D01*
X8219286Y-18757667D01*
X8228809Y-18719571D01*
X8238333Y-18700524D01*
X8247857Y-18691000D01*
X8266905Y-18681476D01*
X8457381Y-18681476D02*
X8476429Y-18681476D01*
X8495476Y-18691000D01*
X8505000Y-18700524D01*
X8514524Y-18719571D01*
X8524048Y-18757667D01*
X8524048Y-18805286D01*
X8514524Y-18843381D01*
X8505000Y-18862429D01*
X8495476Y-18871952D01*
X8476429Y-18881476D01*
X8457381Y-18881476D01*
X8438333Y-18871952D01*
X8428810Y-18862429D01*
X8419286Y-18843381D01*
X8409762Y-18805286D01*
X8409762Y-18757667D01*
X8419286Y-18719571D01*
X8428810Y-18700524D01*
X8438333Y-18691000D01*
X8457381Y-18681476D01*
X8609762Y-18881476D02*
X8609762Y-18748143D01*
X8609762Y-18767190D02*
X8619286Y-18757667D01*
X8638333Y-18748143D01*
X8666905Y-18748143D01*
X8685952Y-18757667D01*
X8695476Y-18776714D01*
X8695476Y-18881476D01*
X8695476Y-18776714D02*
X8705000Y-18757667D01*
X8724048Y-18748143D01*
X8752619Y-18748143D01*
X8771667Y-18757667D01*
X8781190Y-18776714D01*
X8781190Y-18881476D01*
X8876429Y-18881476D02*
X8876429Y-18748143D01*
X8876429Y-18767190D02*
X8885952Y-18757667D01*
X8905000Y-18748143D01*
X8933571Y-18748143D01*
X8952619Y-18757667D01*
X8962143Y-18776714D01*
X8962143Y-18881476D01*
X8962143Y-18776714D02*
X8971667Y-18757667D01*
X8990714Y-18748143D01*
X9019286Y-18748143D01*
X9038333Y-18757667D01*
X9047857Y-18776714D01*
X9047857Y-18881476D01*
X9438333Y-18671952D02*
X9266905Y-18929095D01*
X9695476Y-18681476D02*
X9714524Y-18681476D01*
X9733571Y-18691000D01*
X9743095Y-18700524D01*
X9752619Y-18719571D01*
X9762143Y-18757667D01*
X9762143Y-18805286D01*
X9752619Y-18843381D01*
X9743095Y-18862429D01*
X9733571Y-18871952D01*
X9714524Y-18881476D01*
X9695476Y-18881476D01*
X9676429Y-18871952D01*
X9666905Y-18862429D01*
X9657381Y-18843381D01*
X9647857Y-18805286D01*
X9647857Y-18757667D01*
X9657381Y-18719571D01*
X9666905Y-18700524D01*
X9676429Y-18691000D01*
X9695476Y-18681476D01*
X9847857Y-18862429D02*
X9857381Y-18871952D01*
X9847857Y-18881476D01*
X9838333Y-18871952D01*
X9847857Y-18862429D01*
X9847857Y-18881476D01*
X9981190Y-18681476D02*
X10000238Y-18681476D01*
X10019286Y-18691000D01*
X10028810Y-18700524D01*
X10038333Y-18719571D01*
X10047857Y-18757667D01*
X10047857Y-18805286D01*
X10038333Y-18843381D01*
X10028810Y-18862429D01*
X10019286Y-18871952D01*
X10000238Y-18881476D01*
X9981190Y-18881476D01*
X9962143Y-18871952D01*
X9952619Y-18862429D01*
X9943095Y-18843381D01*
X9933571Y-18805286D01*
X9933571Y-18757667D01*
X9943095Y-18719571D01*
X9952619Y-18700524D01*
X9962143Y-18691000D01*
X9981190Y-18681476D01*
X10219286Y-18681476D02*
X10181190Y-18681476D01*
X10162143Y-18691000D01*
X10152619Y-18700524D01*
X10133571Y-18729095D01*
X10124048Y-18767190D01*
X10124048Y-18843381D01*
X10133571Y-18862429D01*
X10143095Y-18871952D01*
X10162143Y-18881476D01*
X10200238Y-18881476D01*
X10219286Y-18871952D01*
X10228810Y-18862429D01*
X10238333Y-18843381D01*
X10238333Y-18795762D01*
X10228810Y-18776714D01*
X10219286Y-18767190D01*
X10200238Y-18757667D01*
X10162143Y-18757667D01*
X10143095Y-18767190D01*
X10133571Y-18776714D01*
X10124048Y-18795762D01*
X10305000Y-18681476D02*
X10428810Y-18681476D01*
X10362143Y-18757667D01*
X10390714Y-18757667D01*
X10409762Y-18767190D01*
X10419286Y-18776714D01*
X10428810Y-18795762D01*
X10428810Y-18843381D01*
X10419286Y-18862429D01*
X10409762Y-18871952D01*
X10390714Y-18881476D01*
X10333571Y-18881476D01*
X10314524Y-18871952D01*
X10305000Y-18862429D01*
X10552619Y-18681476D02*
X10571667Y-18681476D01*
X10590714Y-18691000D01*
X10600238Y-18700524D01*
X10609762Y-18719571D01*
X10619286Y-18757667D01*
X10619286Y-18805286D01*
X10609762Y-18843381D01*
X10600238Y-18862429D01*
X10590714Y-18871952D01*
X10571667Y-18881476D01*
X10552619Y-18881476D01*
X10533571Y-18871952D01*
X10524048Y-18862429D01*
X10514524Y-18843381D01*
X10505000Y-18805286D01*
X10505000Y-18757667D01*
X10514524Y-18719571D01*
X10524048Y-18700524D01*
X10533571Y-18691000D01*
X10552619Y-18681476D01*
X10695476Y-18681476D02*
X10695476Y-18719571D01*
X10771667Y-18681476D02*
X10771667Y-18719571D01*
X11066905Y-18957667D02*
X11057381Y-18948143D01*
X11038333Y-18919571D01*
X11028810Y-18900524D01*
X11019286Y-18871952D01*
X11009762Y-18824333D01*
X11009762Y-18786238D01*
X11019286Y-18738619D01*
X11028810Y-18710048D01*
X11038333Y-18691000D01*
X11057381Y-18662429D01*
X11066905Y-18652905D01*
X11247857Y-18881476D02*
X11133571Y-18881476D01*
X11190714Y-18881476D02*
X11190714Y-18681476D01*
X11171667Y-18710048D01*
X11152619Y-18729095D01*
X11133571Y-18738619D01*
X11324048Y-18700524D02*
X11333571Y-18691000D01*
X11352619Y-18681476D01*
X11400238Y-18681476D01*
X11419286Y-18691000D01*
X11428809Y-18700524D01*
X11438333Y-18719571D01*
X11438333Y-18738619D01*
X11428809Y-18767190D01*
X11314524Y-18881476D01*
X11438333Y-18881476D01*
X11676428Y-18881476D02*
X11676428Y-18681476D01*
X11762143Y-18881476D02*
X11762143Y-18776714D01*
X11752619Y-18757667D01*
X11733571Y-18748143D01*
X11705000Y-18748143D01*
X11685952Y-18757667D01*
X11676428Y-18767190D01*
X11885952Y-18881476D02*
X11866905Y-18871952D01*
X11857381Y-18862429D01*
X11847857Y-18843381D01*
X11847857Y-18786238D01*
X11857381Y-18767190D01*
X11866905Y-18757667D01*
X11885952Y-18748143D01*
X11914524Y-18748143D01*
X11933571Y-18757667D01*
X11943095Y-18767190D01*
X11952619Y-18786238D01*
X11952619Y-18843381D01*
X11943095Y-18862429D01*
X11933571Y-18871952D01*
X11914524Y-18881476D01*
X11885952Y-18881476D01*
X12066905Y-18881476D02*
X12047857Y-18871952D01*
X12038333Y-18852905D01*
X12038333Y-18681476D01*
X12219286Y-18871952D02*
X12200238Y-18881476D01*
X12162143Y-18881476D01*
X12143095Y-18871952D01*
X12133571Y-18852905D01*
X12133571Y-18776714D01*
X12143095Y-18757667D01*
X12162143Y-18748143D01*
X12200238Y-18748143D01*
X12219286Y-18757667D01*
X12228809Y-18776714D01*
X12228809Y-18795762D01*
X12133571Y-18814810D01*
X12305000Y-18871952D02*
X12324048Y-18881476D01*
X12362143Y-18881476D01*
X12381190Y-18871952D01*
X12390714Y-18852905D01*
X12390714Y-18843381D01*
X12381190Y-18824333D01*
X12362143Y-18814810D01*
X12333571Y-18814810D01*
X12314524Y-18805286D01*
X12305000Y-18786238D01*
X12305000Y-18776714D01*
X12314524Y-18757667D01*
X12333571Y-18748143D01*
X12362143Y-18748143D01*
X12381190Y-18757667D01*
X12457381Y-18957667D02*
X12466905Y-18948143D01*
X12485952Y-18919571D01*
X12495476Y-18900524D01*
X12505000Y-18871952D01*
X12514524Y-18824333D01*
X12514524Y-18786238D01*
X12505000Y-18738619D01*
X12495476Y-18710048D01*
X12485952Y-18691000D01*
X12466905Y-18662429D01*
X12457381Y-18652905D01*
D21*
X7407500Y-19158500D02*
X7495000Y-19071000D01*
X7407500Y-18983500D01*
X7320000Y-19071000D01*
X7407500Y-19158500D01*
X7495000Y-19071000D02*
G75*
G03*
X7495000Y-19071000I-87500J0D01*
G01*
D11*
X7857381Y-19161476D02*
X7743095Y-19161476D01*
X7800238Y-19161476D02*
X7800238Y-18961476D01*
X7781190Y-18990048D01*
X7762143Y-19009095D01*
X7743095Y-19018619D01*
X7943095Y-19142429D02*
X7952619Y-19151952D01*
X7943095Y-19161476D01*
X7933571Y-19151952D01*
X7943095Y-19142429D01*
X7943095Y-19161476D01*
X8019286Y-18961476D02*
X8152619Y-18961476D01*
X8066905Y-19161476D01*
X8324048Y-18961476D02*
X8228809Y-18961476D01*
X8219286Y-19056714D01*
X8228809Y-19047190D01*
X8247857Y-19037667D01*
X8295476Y-19037667D01*
X8314524Y-19047190D01*
X8324048Y-19056714D01*
X8333571Y-19075762D01*
X8333571Y-19123381D01*
X8324048Y-19142429D01*
X8314524Y-19151952D01*
X8295476Y-19161476D01*
X8247857Y-19161476D01*
X8228809Y-19151952D01*
X8219286Y-19142429D01*
X8457381Y-18961476D02*
X8476429Y-18961476D01*
X8495476Y-18971000D01*
X8505000Y-18980524D01*
X8514524Y-18999571D01*
X8524048Y-19037667D01*
X8524048Y-19085286D01*
X8514524Y-19123381D01*
X8505000Y-19142429D01*
X8495476Y-19151952D01*
X8476429Y-19161476D01*
X8457381Y-19161476D01*
X8438333Y-19151952D01*
X8428810Y-19142429D01*
X8419286Y-19123381D01*
X8409762Y-19085286D01*
X8409762Y-19037667D01*
X8419286Y-18999571D01*
X8428810Y-18980524D01*
X8438333Y-18971000D01*
X8457381Y-18961476D01*
X8609762Y-19161476D02*
X8609762Y-19028143D01*
X8609762Y-19047190D02*
X8619286Y-19037667D01*
X8638333Y-19028143D01*
X8666905Y-19028143D01*
X8685952Y-19037667D01*
X8695476Y-19056714D01*
X8695476Y-19161476D01*
X8695476Y-19056714D02*
X8705000Y-19037667D01*
X8724048Y-19028143D01*
X8752619Y-19028143D01*
X8771667Y-19037667D01*
X8781190Y-19056714D01*
X8781190Y-19161476D01*
X8876429Y-19161476D02*
X8876429Y-19028143D01*
X8876429Y-19047190D02*
X8885952Y-19037667D01*
X8905000Y-19028143D01*
X8933571Y-19028143D01*
X8952619Y-19037667D01*
X8962143Y-19056714D01*
X8962143Y-19161476D01*
X8962143Y-19056714D02*
X8971667Y-19037667D01*
X8990714Y-19028143D01*
X9019286Y-19028143D01*
X9038333Y-19037667D01*
X9047857Y-19056714D01*
X9047857Y-19161476D01*
X9438333Y-18951952D02*
X9266905Y-19209095D01*
X9695476Y-18961476D02*
X9714524Y-18961476D01*
X9733571Y-18971000D01*
X9743095Y-18980524D01*
X9752619Y-18999571D01*
X9762143Y-19037667D01*
X9762143Y-19085286D01*
X9752619Y-19123381D01*
X9743095Y-19142429D01*
X9733571Y-19151952D01*
X9714524Y-19161476D01*
X9695476Y-19161476D01*
X9676429Y-19151952D01*
X9666905Y-19142429D01*
X9657381Y-19123381D01*
X9647857Y-19085286D01*
X9647857Y-19037667D01*
X9657381Y-18999571D01*
X9666905Y-18980524D01*
X9676429Y-18971000D01*
X9695476Y-18961476D01*
X9847857Y-19142429D02*
X9857381Y-19151952D01*
X9847857Y-19161476D01*
X9838333Y-19151952D01*
X9847857Y-19142429D01*
X9847857Y-19161476D01*
X9981190Y-18961476D02*
X10000238Y-18961476D01*
X10019286Y-18971000D01*
X10028810Y-18980524D01*
X10038333Y-18999571D01*
X10047857Y-19037667D01*
X10047857Y-19085286D01*
X10038333Y-19123381D01*
X10028810Y-19142429D01*
X10019286Y-19151952D01*
X10000238Y-19161476D01*
X9981190Y-19161476D01*
X9962143Y-19151952D01*
X9952619Y-19142429D01*
X9943095Y-19123381D01*
X9933571Y-19085286D01*
X9933571Y-19037667D01*
X9943095Y-18999571D01*
X9952619Y-18980524D01*
X9962143Y-18971000D01*
X9981190Y-18961476D01*
X10219286Y-18961476D02*
X10181190Y-18961476D01*
X10162143Y-18971000D01*
X10152619Y-18980524D01*
X10133571Y-19009095D01*
X10124048Y-19047190D01*
X10124048Y-19123381D01*
X10133571Y-19142429D01*
X10143095Y-19151952D01*
X10162143Y-19161476D01*
X10200238Y-19161476D01*
X10219286Y-19151952D01*
X10228810Y-19142429D01*
X10238333Y-19123381D01*
X10238333Y-19075762D01*
X10228810Y-19056714D01*
X10219286Y-19047190D01*
X10200238Y-19037667D01*
X10162143Y-19037667D01*
X10143095Y-19047190D01*
X10133571Y-19056714D01*
X10124048Y-19075762D01*
X10352619Y-19047190D02*
X10333571Y-19037667D01*
X10324048Y-19028143D01*
X10314524Y-19009095D01*
X10314524Y-18999571D01*
X10324048Y-18980524D01*
X10333571Y-18971000D01*
X10352619Y-18961476D01*
X10390714Y-18961476D01*
X10409762Y-18971000D01*
X10419286Y-18980524D01*
X10428810Y-18999571D01*
X10428810Y-19009095D01*
X10419286Y-19028143D01*
X10409762Y-19037667D01*
X10390714Y-19047190D01*
X10352619Y-19047190D01*
X10333571Y-19056714D01*
X10324048Y-19066238D01*
X10314524Y-19085286D01*
X10314524Y-19123381D01*
X10324048Y-19142429D01*
X10333571Y-19151952D01*
X10352619Y-19161476D01*
X10390714Y-19161476D01*
X10409762Y-19151952D01*
X10419286Y-19142429D01*
X10428810Y-19123381D01*
X10428810Y-19085286D01*
X10419286Y-19066238D01*
X10409762Y-19056714D01*
X10390714Y-19047190D01*
X10524048Y-19161476D02*
X10562143Y-19161476D01*
X10581190Y-19151952D01*
X10590714Y-19142429D01*
X10609762Y-19113857D01*
X10619286Y-19075762D01*
X10619286Y-18999571D01*
X10609762Y-18980524D01*
X10600238Y-18971000D01*
X10581190Y-18961476D01*
X10543095Y-18961476D01*
X10524048Y-18971000D01*
X10514524Y-18980524D01*
X10505000Y-18999571D01*
X10505000Y-19047190D01*
X10514524Y-19066238D01*
X10524048Y-19075762D01*
X10543095Y-19085286D01*
X10581190Y-19085286D01*
X10600238Y-19075762D01*
X10609762Y-19066238D01*
X10619286Y-19047190D01*
X10695476Y-18961476D02*
X10695476Y-18999571D01*
X10771667Y-18961476D02*
X10771667Y-18999571D01*
X11066905Y-19237667D02*
X11057381Y-19228143D01*
X11038333Y-19199571D01*
X11028810Y-19180524D01*
X11019286Y-19151952D01*
X11009762Y-19104333D01*
X11009762Y-19066238D01*
X11019286Y-19018619D01*
X11028810Y-18990048D01*
X11038333Y-18971000D01*
X11057381Y-18942429D01*
X11066905Y-18932905D01*
X11133571Y-18980524D02*
X11143095Y-18971000D01*
X11162143Y-18961476D01*
X11209762Y-18961476D01*
X11228809Y-18971000D01*
X11238333Y-18980524D01*
X11247857Y-18999571D01*
X11247857Y-19018619D01*
X11238333Y-19047190D01*
X11124048Y-19161476D01*
X11247857Y-19161476D01*
X11485952Y-19161476D02*
X11485952Y-18961476D01*
X11571667Y-19161476D02*
X11571667Y-19056714D01*
X11562143Y-19037667D01*
X11543095Y-19028143D01*
X11514524Y-19028143D01*
X11495476Y-19037667D01*
X11485952Y-19047190D01*
X11695476Y-19161476D02*
X11676428Y-19151952D01*
X11666905Y-19142429D01*
X11657381Y-19123381D01*
X11657381Y-19066238D01*
X11666905Y-19047190D01*
X11676428Y-19037667D01*
X11695476Y-19028143D01*
X11724048Y-19028143D01*
X11743095Y-19037667D01*
X11752619Y-19047190D01*
X11762143Y-19066238D01*
X11762143Y-19123381D01*
X11752619Y-19142429D01*
X11743095Y-19151952D01*
X11724048Y-19161476D01*
X11695476Y-19161476D01*
X11876428Y-19161476D02*
X11857381Y-19151952D01*
X11847857Y-19132905D01*
X11847857Y-18961476D01*
X12028809Y-19151952D02*
X12009762Y-19161476D01*
X11971667Y-19161476D01*
X11952619Y-19151952D01*
X11943095Y-19132905D01*
X11943095Y-19056714D01*
X11952619Y-19037667D01*
X11971667Y-19028143D01*
X12009762Y-19028143D01*
X12028809Y-19037667D01*
X12038333Y-19056714D01*
X12038333Y-19075762D01*
X11943095Y-19094810D01*
X12114524Y-19151952D02*
X12133571Y-19161476D01*
X12171667Y-19161476D01*
X12190714Y-19151952D01*
X12200238Y-19132905D01*
X12200238Y-19123381D01*
X12190714Y-19104333D01*
X12171667Y-19094810D01*
X12143095Y-19094810D01*
X12124048Y-19085286D01*
X12114524Y-19066238D01*
X12114524Y-19056714D01*
X12124048Y-19037667D01*
X12143095Y-19028143D01*
X12171667Y-19028143D01*
X12190714Y-19037667D01*
X12266905Y-19237667D02*
X12276428Y-19228143D01*
X12295476Y-19199571D01*
X12305000Y-19180524D01*
X12314524Y-19151952D01*
X12324048Y-19104333D01*
X12324048Y-19066238D01*
X12314524Y-19018619D01*
X12305000Y-18990048D01*
X12295476Y-18971000D01*
X12276428Y-18942429D01*
X12266905Y-18932905D01*
X7395000Y-19266000D02*
X7395000Y-19466000D01*
X7295000Y-19366000D02*
X7495000Y-19366000D01*
X7465711Y-19436711D02*
X7465711Y-19295289D01*
X7324289Y-19295289D01*
X7324289Y-19436711D01*
X7465711Y-19436711D01*
X7838333Y-19323143D02*
X7838333Y-19456476D01*
X7790714Y-19246952D02*
X7743095Y-19389810D01*
X7866905Y-19389810D01*
X7943095Y-19437429D02*
X7952619Y-19446952D01*
X7943095Y-19456476D01*
X7933571Y-19446952D01*
X7943095Y-19437429D01*
X7943095Y-19456476D01*
X8019286Y-19256476D02*
X8143095Y-19256476D01*
X8076428Y-19332667D01*
X8105000Y-19332667D01*
X8124048Y-19342190D01*
X8133571Y-19351714D01*
X8143095Y-19370762D01*
X8143095Y-19418381D01*
X8133571Y-19437429D01*
X8124048Y-19446952D01*
X8105000Y-19456476D01*
X8047857Y-19456476D01*
X8028809Y-19446952D01*
X8019286Y-19437429D01*
X8266905Y-19256476D02*
X8285952Y-19256476D01*
X8305000Y-19266000D01*
X8314524Y-19275524D01*
X8324048Y-19294571D01*
X8333571Y-19332667D01*
X8333571Y-19380286D01*
X8324048Y-19418381D01*
X8314524Y-19437429D01*
X8305000Y-19446952D01*
X8285952Y-19456476D01*
X8266905Y-19456476D01*
X8247857Y-19446952D01*
X8238333Y-19437429D01*
X8228809Y-19418381D01*
X8219286Y-19380286D01*
X8219286Y-19332667D01*
X8228809Y-19294571D01*
X8238333Y-19275524D01*
X8247857Y-19266000D01*
X8266905Y-19256476D01*
X8457381Y-19256476D02*
X8476429Y-19256476D01*
X8495476Y-19266000D01*
X8505000Y-19275524D01*
X8514524Y-19294571D01*
X8524048Y-19332667D01*
X8524048Y-19380286D01*
X8514524Y-19418381D01*
X8505000Y-19437429D01*
X8495476Y-19446952D01*
X8476429Y-19456476D01*
X8457381Y-19456476D01*
X8438333Y-19446952D01*
X8428810Y-19437429D01*
X8419286Y-19418381D01*
X8409762Y-19380286D01*
X8409762Y-19332667D01*
X8419286Y-19294571D01*
X8428810Y-19275524D01*
X8438333Y-19266000D01*
X8457381Y-19256476D01*
X8609762Y-19456476D02*
X8609762Y-19323143D01*
X8609762Y-19342190D02*
X8619286Y-19332667D01*
X8638333Y-19323143D01*
X8666905Y-19323143D01*
X8685952Y-19332667D01*
X8695476Y-19351714D01*
X8695476Y-19456476D01*
X8695476Y-19351714D02*
X8705000Y-19332667D01*
X8724048Y-19323143D01*
X8752619Y-19323143D01*
X8771667Y-19332667D01*
X8781190Y-19351714D01*
X8781190Y-19456476D01*
X8876429Y-19456476D02*
X8876429Y-19323143D01*
X8876429Y-19342190D02*
X8885952Y-19332667D01*
X8905000Y-19323143D01*
X8933571Y-19323143D01*
X8952619Y-19332667D01*
X8962143Y-19351714D01*
X8962143Y-19456476D01*
X8962143Y-19351714D02*
X8971667Y-19332667D01*
X8990714Y-19323143D01*
X9019286Y-19323143D01*
X9038333Y-19332667D01*
X9047857Y-19351714D01*
X9047857Y-19456476D01*
X9438333Y-19246952D02*
X9266905Y-19504095D01*
X9695476Y-19256476D02*
X9714524Y-19256476D01*
X9733571Y-19266000D01*
X9743095Y-19275524D01*
X9752619Y-19294571D01*
X9762143Y-19332667D01*
X9762143Y-19380286D01*
X9752619Y-19418381D01*
X9743095Y-19437429D01*
X9733571Y-19446952D01*
X9714524Y-19456476D01*
X9695476Y-19456476D01*
X9676429Y-19446952D01*
X9666905Y-19437429D01*
X9657381Y-19418381D01*
X9647857Y-19380286D01*
X9647857Y-19332667D01*
X9657381Y-19294571D01*
X9666905Y-19275524D01*
X9676429Y-19266000D01*
X9695476Y-19256476D01*
X9847857Y-19437429D02*
X9857381Y-19446952D01*
X9847857Y-19456476D01*
X9838333Y-19446952D01*
X9847857Y-19437429D01*
X9847857Y-19456476D01*
X10047857Y-19456476D02*
X9933571Y-19456476D01*
X9990714Y-19456476D02*
X9990714Y-19256476D01*
X9971667Y-19285048D01*
X9952619Y-19304095D01*
X9933571Y-19313619D01*
X10219286Y-19256476D02*
X10181190Y-19256476D01*
X10162143Y-19266000D01*
X10152619Y-19275524D01*
X10133571Y-19304095D01*
X10124048Y-19342190D01*
X10124048Y-19418381D01*
X10133571Y-19437429D01*
X10143095Y-19446952D01*
X10162143Y-19456476D01*
X10200238Y-19456476D01*
X10219286Y-19446952D01*
X10228810Y-19437429D01*
X10238333Y-19418381D01*
X10238333Y-19370762D01*
X10228810Y-19351714D01*
X10219286Y-19342190D01*
X10200238Y-19332667D01*
X10162143Y-19332667D01*
X10143095Y-19342190D01*
X10133571Y-19351714D01*
X10124048Y-19370762D01*
X10333571Y-19456476D02*
X10371667Y-19456476D01*
X10390714Y-19446952D01*
X10400238Y-19437429D01*
X10419286Y-19408857D01*
X10428810Y-19370762D01*
X10428810Y-19294571D01*
X10419286Y-19275524D01*
X10409762Y-19266000D01*
X10390714Y-19256476D01*
X10352619Y-19256476D01*
X10333571Y-19266000D01*
X10324048Y-19275524D01*
X10314524Y-19294571D01*
X10314524Y-19342190D01*
X10324048Y-19361238D01*
X10333571Y-19370762D01*
X10352619Y-19380286D01*
X10390714Y-19380286D01*
X10409762Y-19370762D01*
X10419286Y-19361238D01*
X10428810Y-19342190D01*
X10495476Y-19256476D02*
X10619286Y-19256476D01*
X10552619Y-19332667D01*
X10581190Y-19332667D01*
X10600238Y-19342190D01*
X10609762Y-19351714D01*
X10619286Y-19370762D01*
X10619286Y-19418381D01*
X10609762Y-19437429D01*
X10600238Y-19446952D01*
X10581190Y-19456476D01*
X10524048Y-19456476D01*
X10505000Y-19446952D01*
X10495476Y-19437429D01*
X10695476Y-19256476D02*
X10695476Y-19294571D01*
X10771667Y-19256476D02*
X10771667Y-19294571D01*
X11066905Y-19532667D02*
X11057381Y-19523143D01*
X11038333Y-19494571D01*
X11028810Y-19475524D01*
X11019286Y-19446952D01*
X11009762Y-19399333D01*
X11009762Y-19361238D01*
X11019286Y-19313619D01*
X11028810Y-19285048D01*
X11038333Y-19266000D01*
X11057381Y-19237429D01*
X11066905Y-19227905D01*
X11228809Y-19323143D02*
X11228809Y-19456476D01*
X11181190Y-19246952D02*
X11133571Y-19389810D01*
X11257381Y-19389810D01*
X11485952Y-19456476D02*
X11485952Y-19256476D01*
X11571667Y-19456476D02*
X11571667Y-19351714D01*
X11562143Y-19332667D01*
X11543095Y-19323143D01*
X11514524Y-19323143D01*
X11495476Y-19332667D01*
X11485952Y-19342190D01*
X11695476Y-19456476D02*
X11676428Y-19446952D01*
X11666905Y-19437429D01*
X11657381Y-19418381D01*
X11657381Y-19361238D01*
X11666905Y-19342190D01*
X11676428Y-19332667D01*
X11695476Y-19323143D01*
X11724048Y-19323143D01*
X11743095Y-19332667D01*
X11752619Y-19342190D01*
X11762143Y-19361238D01*
X11762143Y-19418381D01*
X11752619Y-19437429D01*
X11743095Y-19446952D01*
X11724048Y-19456476D01*
X11695476Y-19456476D01*
X11876428Y-19456476D02*
X11857381Y-19446952D01*
X11847857Y-19427905D01*
X11847857Y-19256476D01*
X12028809Y-19446952D02*
X12009762Y-19456476D01*
X11971667Y-19456476D01*
X11952619Y-19446952D01*
X11943095Y-19427905D01*
X11943095Y-19351714D01*
X11952619Y-19332667D01*
X11971667Y-19323143D01*
X12009762Y-19323143D01*
X12028809Y-19332667D01*
X12038333Y-19351714D01*
X12038333Y-19370762D01*
X11943095Y-19389810D01*
X12114524Y-19446952D02*
X12133571Y-19456476D01*
X12171667Y-19456476D01*
X12190714Y-19446952D01*
X12200238Y-19427905D01*
X12200238Y-19418381D01*
X12190714Y-19399333D01*
X12171667Y-19389810D01*
X12143095Y-19389810D01*
X12124048Y-19380286D01*
X12114524Y-19361238D01*
X12114524Y-19351714D01*
X12124048Y-19332667D01*
X12143095Y-19323143D01*
X12171667Y-19323143D01*
X12190714Y-19332667D01*
X12266905Y-19532667D02*
X12276428Y-19523143D01*
X12295476Y-19494571D01*
X12305000Y-19475524D01*
X12314524Y-19446952D01*
X12324048Y-19399333D01*
X12324048Y-19361238D01*
X12314524Y-19313619D01*
X12305000Y-19285048D01*
X12295476Y-19266000D01*
X12276428Y-19237429D01*
X12266905Y-19227905D01*
M02*
